<?xml version="1.0" encoding="iso-8859-1"?>
<!-- Generator: Adobe Illustrator 19.0.0, SVG Export Plug-In . SVG Version: 6.00 Build 0)  -->
<svg version="1.1" id="Capa_1" xmlns="http://www.w3.org/2000/svg" xmlns:xlink="http://www.w3.org/1999/xlink" x="0px" y="0px"
	 viewBox="0 0 512 512" style="enable-background:new 0 0 512 512;" xml:space="preserve">
<rect x="0.018" y="95.451" style="fill:#36AFAD;" width="86.774" height="242.967"/>
<path style="fill:#195C85;" d="M173.565,43.387H86.791v295.031h78.096c0.026-18.283,2.959-36.436,8.677-53.8V43.387z"/>
<path style="fill:#36AFAD;" d="M344.57,89.316c-3.384-3.384-8.886-3.384-12.27,0l-43.387,43.387l12.27,12.27l37.252-37.252
	l28.575,28.575c3.384,3.384,8.886,3.384,12.27,0l63.284-63.284v39.794h17.355V52.064h-0.078c0.13-4.66-3.54-8.547-8.2-8.677
	c-0.13,0-0.26,0-0.399,0H390.5v17.355h39.794l-57.149,57.149L344.57,89.316z"/>
<g>
	<rect x="8.678" y="381.805" style="fill:#195C85;" width="138.838" height="17.355"/>
	<rect x="8.678" y="416.514" style="fill:#195C85;" width="138.838" height="17.355"/>
	<rect x="8.678" y="451.224" style="fill:#195C85;" width="138.838" height="17.355"/>
</g>
<path style="fill:#CFDFE8;" d="M260.339,183.657V0h-86.774v284.618C187.961,240.789,219.173,204.474,260.339,183.657z"/>
<path style="fill:#195C85;" d="M347.113,165.131c-2.864-0.174-5.814-0.26-8.677-0.26s-5.814,0.087-8.677,0.26v173.287
	c0,4.79,3.887,8.677,8.677,8.677h173.287c0.174-2.864,0.26-5.814,0.26-8.677s-0.087-5.814-0.26-8.677
	C507.245,240.745,436.099,169.608,347.113,165.131z"/>
<path style="fill:#FDBD40;" d="M494.368,347.095H338.435c-4.79,0-8.677-3.887-8.677-8.677V165.131
	c-24.184,1.224-47.838,7.532-69.419,18.526c-85.524,43.161-119.869,147.472-76.708,232.996s147.472,119.869,232.996,76.708
	c55.691-28.106,92.006-83.954,95.095-146.266H494.368z"/>
<g>
</g>
<g>
</g>
<g>
</g>
<g>
</g>
<g>
</g>
<g>
</g>
<g>
</g>
<g>
</g>
<g>
</g>
<g>
</g>
<g>
</g>
<g>
</g>
<g>
</g>
<g>
</g>
<g>
</g>
</svg>
