<?xml version="1.0" encoding="iso-8859-1"?>
<!-- Generator: Adobe Illustrator 19.0.0, SVG Export Plug-In . SVG Version: 6.00 Build 0)  -->
<svg version="1.1" id="Capa_1" xmlns="http://www.w3.org/2000/svg" xmlns:xlink="http://www.w3.org/1999/xlink" x="0px" y="0px"
	 viewBox="0 0 512 512" style="enable-background:new 0 0 512 512;" xml:space="preserve">
<circle style="fill:#4B5568;" cx="256" cy="256" r="256"/>
<path style="fill:#323750;" d="M512,256c0-3.236-0.081-6.453-0.2-9.66L366.461,101.001l-87.718-7.085L92.144,388.333
	l119.892,119.892C226.321,510.698,241.008,512,256,512C397.385,512,512,397.385,512,256z"/>
<rect x="92.14" y="168.98" style="fill:#FFDA00;" width="327.71" height="219.36"/>
<rect x="255.57" y="168.98" style="fill:#FFB600;" width="164.28" height="219.36"/>
<path style="fill:#FFF04A;" d="M419.856,388.333L297.532,273.901c-23.372-21.864-59.693-21.864-83.065,0L92.144,388.333H419.856z"/>
<path style="fill:#FFDA00;" d="M297.532,273.901c-11.798-11.037-26.895-16.494-41.961-16.388v130.82h164.285L297.532,273.901z"/>
<path style="fill:#FFB600;" d="M92.144,168.977l118.368,110.732c25.598,23.946,65.378,23.946,90.976,0l118.368-110.732
	L92.144,168.977L92.144,168.977z"/>
<path style="fill:#FF9500;" d="M255.571,168.977v128.682c16.487,0.106,33.006-5.872,45.916-17.95l118.369-110.732L255.571,168.977
	L255.571,168.977z"/>
<path style="fill:#FF6633;" d="M326.597,358.398c-31.748,0-57.576-25.829-57.576-57.576V157.805c0-20.055,16.316-36.37,36.37-36.37
	s36.37,16.316,36.37,36.37v121.271h-25.397V157.805c0-6.051-4.922-10.973-10.973-10.973s-10.973,4.923-10.973,10.973v143.017
	c0,17.744,14.435,32.179,32.179,32.179s32.179-14.436,32.179-32.179v-150.37c0-29.029-23.617-52.645-52.646-52.645
	s-52.645,23.617-52.645,52.645v18.51h-25.397v-18.51c0-43.033,35.009-78.042,78.042-78.042s78.043,35.01,78.043,78.042v150.37
	C384.173,332.569,358.345,358.398,326.597,358.398z"/>
<g>
	<path style="fill:#D84C0F;" d="M306.13,72.409c-0.387,0-0.768,0.024-1.154,0.029v25.397c0.385-0.008,0.767-0.029,1.154-0.029
		c29.029,0,52.646,23.617,52.646,52.645v150.37c0,17.744-14.435,32.179-32.179,32.179c-8.315,0-15.904-3.17-21.621-8.366v29.534
		c6.681,2.717,13.976,4.228,21.621,4.228c31.748,0,57.576-25.828,57.576-57.576V150.45
		C384.173,107.419,349.163,72.409,306.13,72.409z"/>
	<path style="fill:#D84C0F;" d="M305.391,146.831c6.051,0,10.973,4.923,10.973,10.973v121.271h25.397v-121.27
		c0-20.055-16.316-36.37-36.37-36.37c-0.139,0-0.276,0.009-0.415,0.01v25.407C305.115,146.847,305.251,146.831,305.391,146.831z"/>
</g>
<g>
</g>
<g>
</g>
<g>
</g>
<g>
</g>
<g>
</g>
<g>
</g>
<g>
</g>
<g>
</g>
<g>
</g>
<g>
</g>
<g>
</g>
<g>
</g>
<g>
</g>
<g>
</g>
<g>
</g>
</svg>
