<svg height="512" viewBox="0 0 128 128" width="512" xmlns="http://www.w3.org/2000/svg"><g id="Circle_Grid" data-name="Circle Grid"><circle cx="64" cy="64" fill="#69b0ee" r="64"/></g><g id="icon"><path d="m32.02 23h63.96v82h-63.96z" fill="#eeefee"/><g fill="#dbd8dd"><path d="m54.527 32.533h23.063v2.46h-23.063z"/><path d="m54.527 39.502h35.995v2.46h-35.995z"/><path d="m37.478 30.073h11.89v11.89h-11.89z"/><path d="m54.527 51.188h23.063v2.46h-23.063z"/><path d="m54.527 58.158h35.995v2.46h-35.995z"/><path d="m37.478 48.727h11.89v11.89h-11.89z"/><path d="m54.527 69.842h23.063v2.46h-23.063z"/><path d="m54.527 76.812h35.995v2.46h-35.995z"/><path d="m37.478 67.382h11.89v11.89h-11.89z"/><path d="m54.527 88.497h23.063v2.46h-23.063z"/><path d="m54.527 95.467h35.995v2.46h-35.995z"/><path d="m37.478 86.037h11.89v11.89h-11.89z"/></g></g></svg>