<svg id="Layer_1" enable-background="new 0 0 510.701 510.701" height="512" viewBox="0 0 510.701 510.701" width="512" xmlns="http://www.w3.org/2000/svg"><g><path d="m257.859 409.371-195.871 12.918c25.463 29.577 57.598 53.246 94.069 68.672l201.591-1.359c35.123-15.41 66.187-38.54 90.982-67.332z" fill="#aad880"/><g><g><path d="m237.318 420.22v70.481h89.336v-46.927z" fill="#4a80aa"/></g><g><path d="m326.654 413.157h-87.066v-7h-55.613v84.545h55.613v-9.567c0-20.634 16.727-37.361 37.361-37.361h49.705z" fill="#365e7d"/></g><g><path d="m510.24 85.733c0-17.045-12.743-30.862-29.788-30.862h-308.528v313.511l318.496-13.486c5.995-14.249 10.74-29.177 14.094-44.657.391-2.39 6.925-27.601 5.726-63.021z" fill="#f6f1f1"/></g><g><path d="m72.02 78.742c-44.383 45.885-71.705 108.382-71.705 177.258 0 34.793 6.979 67.954 19.596 98.173l153.792 1.208v-300.51z" fill="#efe7e4"/></g><g><path d="m490.79 354.011h-317.088l-13.66 38.541 13.66 29.732h274.944c17.398-20.199 31.703-43.191 42.144-68.273z" fill="#4a80aa"/></g><g><path d="m61.994 422.284h111.708v-68.273h-153.858c10.429 25.025 24.725 48.033 42.15 68.273z" fill="#407093"/></g><g><path d="m215.976 479.083-5.368 14.45 5.368 14.45c8.821 1.366 17.792 2.28 26.887 2.717h24.862c31.769-1.53 62.113-8.899 89.922-21.101v-10.517h-141.671z" fill="#4a80aa"/></g><g><path d="m156.736 491.247c18.717 7.852 38.568 13.536 59.24 16.737v-28.901h-59.24z" fill="#407093"/></g><g><circle cx="257.859" cy="391.065" fill="#407093" r="12.385"/></g></g><g><g><path d="m206.067 272.685 3.723 42.654h209.83c10.487 0 18.988-8.501 18.988-18.988v-23.665h-232.541z" fill="#efe7e4"/></g><g><g><path d="m72.02 272.685v23.665c0 10.487 8.501 18.988 18.988 18.988h118.782v-42.654h-137.77z" fill="#efe7e4"/></g></g><g><path d="m188.057 48.351 21.733 248.987h209.83c10.487 0 18.988-8.501 18.988-18.988v-218.345z" fill="#fff"/></g><g><path d="m255.314 1c-16.241 0-31.45 1.517-45.525 4.048l-12.113 26.328 12.113 28.629h208.662c-44.212-36.842-101.086-59.005-163.137-59.005z" fill="#827ddc"/></g><g><g><path d="m438.609 18.988c0-10.487-8.502-18.988-18.989-18.988l-161.761 1.015-60.182 30.361 12.113 28.629h228.819z" fill="#827ddc"/></g></g><g><path d="m178.09 51.603-85.89 8.402c-7.059 5.882-13.796 12.138-20.18 18.738v199.607c0 10.487 8.501 18.988 18.988 18.988h118.782v-237.333z" fill="#f4fbff"/></g><g><path d="m154.93 21.394-12.04 9.981-12.301 1.877c-21.944 12.175-33.948 23.151-34.022 23.193-1.469 1.171-2.925 2.357-4.368 3.559h117.59v-54.956c-20.9 3.758-39.298 9.755-54.859 16.346z" fill="#6e64c3"/></g><g><path d="m130.589 39.994c0 2.034 1.649 3.683 3.683 3.683h17.236c2.034 0 3.683-1.649 3.683-3.683v-17.236c0-.482-.093-.942-.261-1.364-9.108 3.858-17.244 7.921-24.34 11.858v6.742z" fill="#fff"/></g><g><g><path d="m176.758 43.676h17.235c2.034 0 3.683-1.649 3.683-3.683v-17.235c0-2.034-1.649-3.683-3.683-3.683h-17.235c-2.034 0-3.683 1.649-3.683 3.683v17.235c0 2.035 1.649 3.683 3.683 3.683z" fill="#fff"/></g></g><g><g><path d="m260.182 26.107h143.716v15.501h-143.716z" fill="#fff"/></g></g></g><g><path d="m344.592 152.69c-6.226 0-11.774-3.805-14.15-9.56-.026-.063-.052-.126-.078-.189-2.397-5.761-1.181-12.389 3.231-16.801l4.517-4.517-27.022-27.024-4.517 4.517c-4.412 4.412-11.04 5.629-16.801 3.231-.063-.026-.126-.052-.189-.078-5.755-2.376-9.56-7.924-9.56-14.15v-6.389h-38.217v6.389c0 6.226-3.806 11.774-9.56 14.15-.063.026-.126.052-.189.078-5.761 2.397-12.389 1.181-16.802-3.232l-4.517-4.517-13.125 46.516 12.197 82.109 98.638 7.448 29.666-8.697-4.517-4.517c-4.412-4.412-5.629-11.04-3.231-16.801.026-.063.052-.126.078-.189 2.376-5.755 7.924-9.56 14.15-9.56h6.39v-38.217zm-76.927 54.45-4.207 1.183c-25.846 7.267-48.546-18.722-37.87-43.356 3.281-17.065 18.622-29.841 36.806-29.111 18.617.747 33.729 15.871 34.463 34.488.719 18.202-12.094 33.549-29.192 36.796z" fill="#ffd23c"/><path d="m260.913 115.27c-19.094 0-35.975 9.467-46.208 23.963l-2.112 17.758 13.006 7.979c3.192-16.6 17.784-29.143 35.314-29.143 19.867 0 35.973 16.106 35.973 35.973 0 17.559-12.584 32.17-29.224 35.33l8.853 12.319 16.854-1.363c14.558-10.225 24.073-27.143 24.073-46.285.001-31.222-25.308-56.531-56.529-56.531z" fill="#ffc305"/><path d="m325.173 222.549c-20.955 0-40.597-5.615-57.51-15.418-25.008 4.749-46.868-17.193-42.067-42.162-9.719-16.86-15.28-36.419-15.28-57.277 0-4.327.248-8.597.714-12.8l-.293-.293-27.023 27.024 4.517 4.517c4.412 4.412 5.629 11.04 3.231 16.801-.026.063-.052.126-.078.189-2.376 5.755-7.924 9.56-14.15 9.56h-6.389v38.217h6.389c6.226 0 11.774 3.806 14.15 9.56.026.063.052.126.078.189 2.397 5.761 1.181 12.389-3.231 16.801l-4.517 4.517 27.023 27.024 4.517-4.517c4.412-4.412 11.04-5.629 16.801-3.231.063.026.126.052.189.078 5.755 2.376 9.56 7.924 9.56 14.15v6.389h38.217v-6.389c0-6.226 3.806-11.773 9.56-14.15.063-.026.126-.052.189-.078 5.761-2.397 12.389-1.181 16.802 3.231l4.517 4.517 27.023-27.024-.14-.14c-4.202.467-8.472.715-12.799.715z" fill="#ffc305"/><path d="m267.663 207.131c-.001 0-.002 0-.004.001-24.976 4.74-46.866-17.177-42.063-42.161v-.002c-4.622-8.018-8.301-16.648-10.892-25.736-6.5 9.206-10.32 20.44-10.32 32.567 0 31.22 25.309 56.529 56.529 56.529 12.079 0 23.271-3.791 32.457-10.244-9.08-2.613-17.7-6.313-25.707-10.954z" fill="#ffa50a"/></g><g><path d="m219.657 117.956h74.716v220.342h-74.716z" fill="#50d1dd" transform="matrix(0 -1 1 0 28.888 485.143)"/><path d="m238.336 136.635h37.358v220.342h-37.358z" fill="#25bbcc" transform="matrix(0 -1 1 0 10.209 503.821)"/><path d="m350.045 228.127c0 41.449 33.601 75.049 75.049 75.049 41.449 0 75.049-33.601 75.049-75.049s-33.601-75.049-75.049-75.049-75.049 33.601-75.049 75.049zm108.582-19.36v38.72l-33.532 19.36-33.532-19.36v-38.72l33.532-19.36z" fill="#50d1dd"/><path d="m21.369 204.888c15.424 0 30.575-4.06 43.933-11.772l16.178-9.34 38.409 22.176v44.351l-38.409 22.176-16.178-9.34c-13.357-7.712-28.509-11.772-43.933-11.772 9.961 30.607 39.043 52.584 73.154 51.789 39.808-.927 72.272-33.358 73.237-73.165 1.025-42.3-32.959-76.913-75.027-76.913-33.335 0-61.578 21.74-71.364 51.81z" fill="#50d1dd"/><path d="m320.452 228.127c0 6.125-4.965 11.09-11.09 11.09h-100.898c-6.125 0-11.09-4.965-11.09-11.09 0-6.125 4.965-11.09 11.09-11.09h100.898c6.125.001 11.09 4.966 11.09 11.09z" fill="#fff"/></g></g></svg>