<svg height="512pt" viewBox="0 0 512 512" width="512pt" xmlns="http://www.w3.org/2000/svg" xmlns:xlink="http://www.w3.org/1999/xlink"><linearGradient id="a" gradientUnits="userSpaceOnUse" x1="74.9807" x2="437.0193" y1="74.9807" y2="437.0193"><stop offset="0" stop-color="#ffda2d"/><stop offset="1" stop-color="#fdbf00"/></linearGradient><linearGradient id="b" gradientUnits="userSpaceOnUse" x1="131.3064" x2="362.3737" y1="163.3553" y2="394.4225"><stop offset="0" stop-color="#47568c"/><stop offset="1" stop-color="#2c3b73"/></linearGradient><linearGradient id="c"><stop offset="0" stop-color="#4bb9ec"/><stop offset="1" stop-color="#0095ff"/></linearGradient><linearGradient id="d" gradientUnits="userSpaceOnUse" x1="144.6032" x2="349.077" xlink:href="#c" y1="185.5165" y2="389.9903"/><linearGradient id="e"><stop offset="0" stop-color="#61729b"/><stop offset="1" stop-color="#47568c"/></linearGradient><linearGradient id="f" gradientUnits="userSpaceOnUse" x1="170.8014" x2="322.8787" xlink:href="#e" y1="301.7408" y2="453.818"/><linearGradient id="g" gradientUnits="userSpaceOnUse" x1="340.3602" x2="402.707" xlink:href="#e" y1="96.1331" y2="158.4799"/><linearGradient id="h" gradientUnits="userSpaceOnUse" x1="189.5165" x2="304.7546" xlink:href="#c" y1="69.6874" y2="184.9255"/><linearGradient id="i" gradientUnits="userSpaceOnUse" x1="280.008" x2="333.1948" xlink:href="#c" y1="103.2985" y2="156.4853"/><linearGradient id="j" gradientUnits="userSpaceOnUse" x1="180.652" x2="385.1258" y1="131.7387" y2="336.2124"><stop offset="0" stop-color="#f2f2fc"/><stop offset="1" stop-color="#d8d8fc"/></linearGradient><linearGradient id="k" gradientUnits="userSpaceOnUse" x1="198.381" x2="260.4322" xlink:href="#e" y1="185.5165" y2="247.5678"/><linearGradient id="l"><stop offset="0" stop-color="#d8d8fc"/><stop offset="1" stop-color="#a3a3d1"/></linearGradient><linearGradient id="m" gradientUnits="userSpaceOnUse" x1="300.3223" x2="353.5092" xlink:href="#l" y1="172.2198" y2="225.4067"/><linearGradient id="n" gradientUnits="userSpaceOnUse" x1="300.3223" x2="353.5092" xlink:href="#l" y1="207.6776" y2="260.8644"/><linearGradient id="o" gradientUnits="userSpaceOnUse" x1="233.8389" x2="331.348" xlink:href="#l" y1="220.9743" y2="318.4834"/><path d="m512 256c0 141.386719-114.613281 256-256 256s-256-114.613281-256-256 114.613281-256 256-256 256 114.613281 256 256zm0 0" fill="url(#a)"/><path d="m247.136719 172.21875h-124.695313v213.339844h248.796875v-213.339844zm0 0" fill="url(#b)"/><path d="m247.136719 189.949219h-106.964844v195.609375h213.335937v-195.609375zm0 0" fill="url(#d)"/><path d="m247.136719 367.828125h-142.421875v8.863281c0 14.714844 11.875 26.59375 26.589844 26.59375h231.066406c14.71875 0 26.59375-11.878906 26.59375-26.59375v-8.863281zm0 0" fill="url(#f)"/><path d="m335.78125 100.714844h71.503906v53.183594l-39.738281 18.320312-31.765625-18.320312-17.730469-25.851563zm0 0" fill="url(#g)"/><path d="m335.78125 100.714844v53.183594l-53.1875 10.34375-42.902344 7.976562-81.199218-18.320312v-53.183594zm0 0" fill="url(#h)"/><path d="m335.78125 100.714844v53.183594l-53.1875 10.34375v-63.527344zm0 0" fill="url(#i)"/><path d="m282.59375 153.898438h-124.101562v160.152343h248.792968v-160.152343zm0 0" fill="url(#j)"/><path d="m264.863281 243.136719h-70.914062v-53.1875h70.914062zm0 0" fill="url(#k)"/><path d="m282.59375 189.949219h88.644531v17.730469h-88.644531zm0 0" fill="url(#m)"/><path d="m282.59375 225.40625h88.644531v17.730469h-88.644531zm0 0" fill="url(#n)"/><path d="m193.949219 260.863281v17.730469h177.289062v-17.730469zm0 0" fill="url(#o)"/><g fill="#f2f2fc"><path d="m176.21875 118.441406h17.730469v17.730469h-17.730469zm0 0"/><path d="m211.679688 118.441406h17.726562v17.730469h-17.726562zm0 0"/><path d="m247.136719 118.441406h17.726562v17.730469h-17.726562zm0 0"/></g></svg>