<svg xmlns="http://www.w3.org/2000/svg" width="44.001" height="43.999" viewBox="0 0 44.001 43.999">
  <path id="Exclusion_8" data-name="Exclusion 8" d="M-4256,44h-36a4,4,0,0,1-4-4V4a4,4,0,0,1,4-4h36a4,4,0,0,1,4,4V40A4,4,0,0,1-4256,44Zm-12.211-19.06h0a5.082,5.082,0,0,0,.4,1.768,4.15,4.15,0,0,0,.939,1.354,4.184,4.184,0,0,0,1.389.866,4.906,4.906,0,0,0,1.764.308,5.035,5.035,0,0,0,1.784-.314,4.315,4.315,0,0,0,1.435-.877,4.1,4.1,0,0,0,.954-1.353,4.264,4.264,0,0,0,.349-1.733,4.5,4.5,0,0,0-.123-1.046,4.2,4.2,0,0,0-.359-.964,3.6,3.6,0,0,0-.584-.816,3.076,3.076,0,0,0-.8-.6,2.693,2.693,0,0,0,.538-.549,3.371,3.371,0,0,0,.385-.666,3.729,3.729,0,0,0,.23-.728,3.63,3.63,0,0,0,.078-.733,3.631,3.631,0,0,0-.288-1.461,3.31,3.31,0,0,0-.815-1.144,3.741,3.741,0,0,0-1.271-.748,4.937,4.937,0,0,0-1.667-.266,4.571,4.571,0,0,0-1.537.256,3.734,3.734,0,0,0-1.272.764,4.091,4.091,0,0,0-.912,1.256,5.425,5.425,0,0,0-.471,1.733h2.481c.143-1.306.73-1.969,1.743-1.969a1.562,1.562,0,0,1,1.139.395,1.576,1.576,0,0,1,.4,1.164,1.941,1.941,0,0,1-.477,1.379,1.891,1.891,0,0,1-1.44.508H-4265v2.04h1.025a2.737,2.737,0,0,1,.99.165,2.037,2.037,0,0,1,.718.456,1.883,1.883,0,0,1,.441.7,2.677,2.677,0,0,1,.149.9,2.666,2.666,0,0,1-.145.887,2.029,2.029,0,0,1-.41.7,1.9,1.9,0,0,1-.646.456,2.118,2.118,0,0,1-.841.164,1.94,1.94,0,0,1-.851-.179,1.814,1.814,0,0,1-.621-.487,2.139,2.139,0,0,1-.379-.718,2.922,2.922,0,0,1-.128-.871Zm-5.845-7.66a1.884,1.884,0,0,1,1.38.477,1.821,1.821,0,0,1,.477,1.339,3.161,3.161,0,0,1-.16,1.015,3.478,3.478,0,0,1-.523.958,7.891,7.891,0,0,1-.964,1.042c-.4.366-.892.791-1.472,1.261a18.1,18.1,0,0,0-1.651,1.5,10.407,10.407,0,0,0-1.066,1.282,5.091,5.091,0,0,0-.728,2.851h9.064V26.734h-5.742a7.4,7.4,0,0,1,1-1.154c.346-.314.621-.557.841-.743a23.708,23.708,0,0,0,1.887-1.734,13.638,13.638,0,0,0,1.159-1.333,4.536,4.536,0,0,0,.616-1.23,4.716,4.716,0,0,0,.2-1.416,4.053,4.053,0,0,0-.288-1.537,3.54,3.54,0,0,0-.83-1.231,3.854,3.854,0,0,0-1.349-.82,5.291,5.291,0,0,0-1.83-.3,4.7,4.7,0,0,0-1.743.313,4.087,4.087,0,0,0-1.369.882,4.24,4.24,0,0,0-.927,1.384,5.8,5.8,0,0,0-.431,1.809h2.481a3.438,3.438,0,0,1,.215-1.02,2.516,2.516,0,0,1,.437-.733,1.715,1.715,0,0,1,.6-.446A1.741,1.741,0,0,1-4274.056,17.28Zm-10.91,2.092h0V29h2.43V15.465h-1.989c-.285,1.5-1.438,2.255-3.425,2.255v2.041h.013a9.082,9.082,0,0,0,2.97-.389Z" transform="translate(4296)" fill="#4B88BC"/>
</svg>
