<svg xmlns="http://www.w3.org/2000/svg" width="59" height="59" viewBox="0 0 59 59">
  <g id="_3d-model" data-name="3d-model" transform="translate(0 0)" opacity="0.31">
    <path id="Path_2214" data-name="Path 2214" d="M42.752,47.131a2.3,2.3,0,0,1-2.3-2.3V25.467a2.3,2.3,0,0,1,4.609,0V44.826a2.3,2.3,0,0,1-2.3,2.3Zm4.992,7.859,7.165-7.106A13.918,13.918,0,0,0,59,38.066V13.828A13.844,13.844,0,0,0,45.172,0H20.993a13.743,13.743,0,0,0-9.737,4.01L4.091,11.116A13.918,13.918,0,0,0,0,20.934V45.172A13.844,13.844,0,0,0,13.828,59H38.007a13.743,13.743,0,0,0,9.737-4.01ZM45.172,4.609a9.229,9.229,0,0,1,9.219,9.219V38.066a9.279,9.279,0,0,1-2.727,6.546L44.5,51.718a9.162,9.162,0,0,1-6.492,2.673H13.828a9.229,9.229,0,0,1-9.219-9.219V20.934a9.279,9.279,0,0,1,2.727-6.546L14.5,7.282a9.162,9.162,0,0,1,6.492-2.673Zm2.713,9.74.969-.944a2.3,2.3,0,1,0-3.217-3.3l-.969.944a9.746,9.746,0,0,1-6.838,2.781H14.865a2.3,2.3,0,0,0,0,4.609H37.831a14.333,14.333,0,0,0,10.055-4.089Z" transform="translate(0 0)" fill="#39afd1"/>
  </g>
</svg>
