<svg xmlns="http://www.w3.org/2000/svg" width="13.863" height="18.62" viewBox="0 0 13.863 18.62">
  <g id="clipboard" transform="translate(-51.988 -0.001)">
    <g id="Group_2365" data-name="Group 2365" transform="translate(51.988 0.001)">
      <g id="Group_2364" data-name="Group 2364" transform="translate(0 0)">
        <path id="Path_933" data-name="Path 933" d="M141.8,1.412h-1.362a.382.382,0,0,1-.359-.287A1.386,1.386,0,0,0,138.668,0a1.41,1.41,0,0,0-1.41,1.147.359.359,0,0,1-.359.263h-1.315V3.8H141.8Z" transform="translate(-131.761 -0.001)" fill="#384e64"/>
        <path id="Path_934" data-name="Path 934" d="M65.851,76.811v-13.7a.98.98,0,0,0-.977-.983l-.074,0H62.744v1.219c0,.191-.119.454-.311.454H55.382c-.191,0-.287-.263-.287-.454V62.135H53.04a.98.98,0,0,0-1.049.906q0,.037,0,.074v13.7a1.076,1.076,0,0,0,1.051,1.1H64.8a1.076,1.076,0,0,0,1.052-1.1Zm-8.867-3.155L55.119,75.4a.334.334,0,0,1-.239.119.383.383,0,0,1-.263-.119l-.98-1a.364.364,0,0,1,.526-.5l.717.765,1.625-1.53a.359.359,0,0,1,.478.526Zm0-3.824h0l-1.864,1.745a.334.334,0,0,1-.239.119.383.383,0,0,1-.263-.119l-.98-1a.364.364,0,0,1,.526-.5l.717.765,1.625-1.53a.359.359,0,0,1,.478.526Zm0-3.824-1.864,1.745a.334.334,0,0,1-.239.119.383.383,0,0,1-.263-.119l-.98-1a.364.364,0,0,1,.526-.5l.717.765,1.625-1.53a.359.359,0,0,1,.478.526Zm6.955,9.035h-5.5a.359.359,0,1,1,0-.717h5.5a.359.359,0,0,1,0,.717Zm0-3.824h-5.5a.359.359,0,1,1,0-.717h5.5a.359.359,0,0,1,0,.717Zm0-3.824h-5.5a.359.359,0,1,1,0-.717h5.5a.359.359,0,0,1,0,.717Z" transform="translate(-51.988 -59.29)" fill="#384e64"/>
      </g>
    </g>
  </g>
</svg>
