<svg xmlns="http://www.w3.org/2000/svg" width="512" height="511.999" viewBox="0 0 512 511.999">
  <g id="preference_1_" data-name="preference (1)" transform="translate(0 -0.001)">
    <g id="Group_4648" data-name="Group 4648">
      <path id="Path_2143" data-name="Path 2143" d="M504.008,223.961c-4.121-2.587-36.412-21.931-49.246-27.8l-15.9-38.392c4.725-12.7,13.752-48.308,15.164-54.482a17.069,17.069,0,0,0-4.57-15.87L424.585,62.548a17.066,17.066,0,0,0-15.87-4.57c-4.682,1.071-41.226,10.23-54.482,15.164l-38.393-15.9c-5.618-12.28-24.386-43.807-27.8-49.246A17.064,17.064,0,0,0,273.585,0h-35.17a17.067,17.067,0,0,0-14.454,7.992c-2.587,4.121-21.931,36.412-27.8,49.246l-38.392,15.9c-12.7-4.725-48.308-13.752-54.482-15.164a17.071,17.071,0,0,0-15.87,4.57L62.547,87.416a17.066,17.066,0,0,0-4.57,15.87c1.071,4.682,10.23,41.226,15.164,54.482l-15.9,38.392c-12.28,5.618-43.807,24.386-49.246,27.8A17.064,17.064,0,0,0,0,238.415v35.17a17.067,17.067,0,0,0,7.992,14.454c4.121,2.587,36.412,21.931,49.246,27.8l15.9,38.392c-4.725,12.7-13.752,48.308-15.164,54.482a17.069,17.069,0,0,0,4.57,15.87l24.868,24.868a17.065,17.065,0,0,0,15.87,4.57c4.682-1.071,41.226-10.23,54.482-15.164l38.392,15.9c5.618,12.28,24.386,43.807,27.8,49.246A17.067,17.067,0,0,0,238.415,512h35.17a17.067,17.067,0,0,0,14.454-7.992c2.587-4.121,21.931-36.412,27.8-49.246l38.392-15.9c12.7,4.725,48.308,13.752,54.482,15.164a17.059,17.059,0,0,0,15.87-4.57l24.868-24.868a17.066,17.066,0,0,0,4.57-15.87c-1.071-4.682-10.23-41.226-15.164-54.482l15.9-38.392c12.28-5.618,43.807-24.386,49.246-27.8A17.067,17.067,0,0,0,512,273.585v-35.17A17.067,17.067,0,0,0,504.008,223.961ZM256,367.605A111.6,111.6,0,1,1,367.605,256,111.732,111.732,0,0,1,256,367.605Z" fill="#4B88BC"/>
    </g>
  </g>
</svg>
