<svg id="_3d-model" data-name="3d-model" xmlns="http://www.w3.org/2000/svg" width="28" height="28" viewBox="0 0 28 28">
  <path id="Path_2214" data-name="Path 2214" d="M20.289,22.367A1.094,1.094,0,0,1,19.2,21.273V12.086a1.094,1.094,0,0,1,2.188,0v9.187a1.094,1.094,0,0,1-1.094,1.094Zm2.369,3.73,3.4-3.372A6.605,6.605,0,0,0,28,18.065V6.563A6.57,6.57,0,0,0,21.437,0H9.963A6.522,6.522,0,0,0,5.342,1.9l-3.4,3.372A6.605,6.605,0,0,0,0,9.935v11.5A6.57,6.57,0,0,0,6.562,28H18.037a6.522,6.522,0,0,0,4.621-1.9ZM21.437,2.188a4.38,4.38,0,0,1,4.375,4.375v11.5a4.4,4.4,0,0,1-1.294,3.106l-3.4,3.372a4.348,4.348,0,0,1-3.081,1.269H6.562a4.38,4.38,0,0,1-4.375-4.375V9.935A4.4,4.4,0,0,1,3.482,6.828l3.4-3.372A4.348,4.348,0,0,1,9.963,2.188ZM22.725,6.81l.46-.448a1.094,1.094,0,1,0-1.527-1.567l-.46.448a4.625,4.625,0,0,1-3.245,1.32H7.055a1.094,1.094,0,0,0,0,2.188h10.9a6.8,6.8,0,0,0,4.772-1.94Z" transform="translate(0 0)" fill="#39afd1"/>
</svg>
