<svg xmlns="http://www.w3.org/2000/svg" width="384.001" height="426.667" viewBox="0 0 384.001 426.667">
  <g id="list_8_" data-name="list (8)" transform="translate(-21.333)">
    <g id="Group_4650" data-name="Group 4650">
      <path id="Path_2163" data-name="Path 2163" d="M362.667,42.667h-89.28a63.6,63.6,0,0,0-120.107,0H64A42.655,42.655,0,0,0,21.333,85.334V384A42.655,42.655,0,0,0,64,426.667H362.667A42.655,42.655,0,0,0,405.334,384V85.333A42.656,42.656,0,0,0,362.667,42.667Zm-149.334,0A21.333,21.333,0,1,1,192,64,21.327,21.327,0,0,1,213.333,42.667ZM170.667,341.333,85.333,256l30.187-30.187,55.147,55.147,140.48-140.48,30.187,30.187Z" fill="#4B88BC"/>
    </g>
  </g>
</svg>
