<svg xmlns="http://www.w3.org/2000/svg" width="22.728" height="28" viewBox="0 0 22.728 28">
  <g id="test_3_" data-name="test (3)" transform="translate(-48.2)">
    <path id="Path_2248" data-name="Path 2248" d="M70.688,7.269,63.659.24a.82.82,0,0,0-.58-.24H51.217A3.02,3.02,0,0,0,48.2,3.017V24.983A3.02,3.02,0,0,0,51.217,28H67.911a3.02,3.02,0,0,0,3.017-3.017V7.849a.82.82,0,0,0-.24-.58ZM63.9,2.8l4.228,4.228H65.275A1.378,1.378,0,0,1,63.9,5.653Zm4.012,23.559H51.217a1.378,1.378,0,0,1-1.376-1.376V3.017a1.378,1.378,0,0,1,1.376-1.376H62.258V5.653A3.02,3.02,0,0,0,65.275,8.67h4.012V24.983A1.378,1.378,0,0,1,67.911,26.359Z" fill="#39afd1"/>
    <path id="Path_2249" data-name="Path 2249" d="M116.8,224.933h-3.515a.82.82,0,0,0-.82.82v3.515a.82.82,0,0,0,.82.82H116.8a.82.82,0,0,0,.82-.82v-3.515A.82.82,0,0,0,116.8,224.933Zm-.82,3.515h-1.874v-1.874h1.874Z" transform="translate(-60.751 -212.632)" fill="#39afd1"/>
    <path id="Path_2250" data-name="Path 2250" d="M116.8,353.467h-3.515a.82.82,0,0,0-.82.82V357.8a.82.82,0,0,0,.82.82H116.8a.82.82,0,0,0,.82-.82v-3.515A.82.82,0,0,0,116.8,353.467Zm-.82,3.515h-1.874v-1.874h1.874Z" transform="translate(-60.751 -334.137)" fill="#39afd1"/>
    <path id="Path_2251" data-name="Path 2251" d="M241,225.753a.82.82,0,0,0,.82.82h3.515a.82.82,0,0,0,0-1.641H241.82A.82.82,0,0,0,241,225.753Z" transform="translate(-182.256 -212.632)" fill="#39afd1"/>
    <path id="Path_2252" data-name="Path 2252" d="M248.849,289.2H241.82a.82.82,0,1,0,0,1.641h7.029a.82.82,0,0,0,0-1.641Z" transform="translate(-182.256 -273.384)" fill="#39afd1"/>
    <path id="Path_2253" data-name="Path 2253" d="M241.82,355.108h3.515a.82.82,0,0,0,0-1.641H241.82a.82.82,0,0,0,0,1.641Z" transform="translate(-182.256 -334.137)" fill="#39afd1"/>
    <path id="Path_2254" data-name="Path 2254" d="M248.849,417.733H241.82a.82.82,0,0,0,0,1.641h7.029a.82.82,0,0,0,0-1.641Z" transform="translate(-182.256 -394.888)" fill="#39afd1"/>
    <path id="Path_2255" data-name="Path 2255" d="M113.287,81.974h4.393a.82.82,0,0,0,0-1.641h-4.393a.82.82,0,1,0,0,1.641Z" transform="translate(-60.752 -75.94)" fill="#39afd1"/>
    <path id="Path_2256" data-name="Path 2256" d="M113.287,146.241h7.029a.82.82,0,0,0,0-1.641h-7.029a.82.82,0,1,0,0,1.641Z" transform="translate(-60.752 -136.692)" fill="#39afd1"/>
  </g>
</svg>
