<svg xmlns="http://www.w3.org/2000/svg" width="35.223" height="28" viewBox="0 0 35.223 28">
  <g id="dashboard_5_" data-name="dashboard (5)" transform="translate(0 -52.499)">
    <g id="Group_4737" data-name="Group 4737" transform="translate(0 52.499)">
      <g id="Group_4736" data-name="Group 4736" transform="translate(0 0)">
        <path id="Path_2219" data-name="Path 2219" d="M212.479,123.9a1.376,1.376,0,0,0-1.748-.164c-2.059,1.4-12.385,8.46-13.5,9.569a4.128,4.128,0,0,0,5.838,5.838c1.11-1.11,8.166-11.436,9.569-13.5A1.376,1.376,0,0,0,212.479,123.9Zm-11.351,13.3a1.376,1.376,0,0,1-1.946-1.946c.431-.426,3.363-2.517,6.97-5.025C203.644,133.836,201.553,136.767,201.127,137.2Z" transform="translate(-182.543 -118.614)" fill="#39afd1"/>
        <path id="Path_2220" data-name="Path 2220" d="M6.345,76.51l-1.7.829a14.791,14.791,0,0,1-.927-12.5l1.946.934a1.376,1.376,0,1,0,1.19-2.481l-1.922-.922a14.879,14.879,0,0,1,11.3-7.052v2.069a1.376,1.376,0,0,0,2.752,0v-2.07a14.689,14.689,0,0,1,4.731,1.246,1.376,1.376,0,1,0,1.132-2.508A17.6,17.6,0,0,0,2.984,79.888a1.376,1.376,0,0,0,1.747.472l2.821-1.376A1.376,1.376,0,1,0,6.345,76.51Z" transform="translate(0 -52.499)" fill="#39afd1"/>
        <path id="Path_2221" data-name="Path 2221" d="M396.836,192.3a1.376,1.376,0,1,0-2.508,1.132,14.812,14.812,0,0,1-.592,13.346l-1.773-.844a1.376,1.376,0,1,0-1.183,2.485l2.889,1.376a1.376,1.376,0,0,0,1.735-.478,17.57,17.57,0,0,0,1.432-17.016Z" transform="translate(-363.165 -181.932)" fill="#39afd1"/>
      </g>
    </g>
  </g>
</svg>
