<svg xmlns="http://www.w3.org/2000/svg" width="28" height="28" viewBox="0 0 28 28">
  <g id="shapes-and-symbols" transform="translate(0 0)">
    <path id="Path_2257" data-name="Path 2257" d="M10.792,9.333H2.042A2.044,2.044,0,0,1,0,7.292V2.042A2.044,2.044,0,0,1,2.042,0h8.75a2.044,2.044,0,0,1,2.042,2.042v5.25A2.044,2.044,0,0,1,10.792,9.333ZM2.042,1.75a.292.292,0,0,0-.292.292v5.25a.292.292,0,0,0,.292.292h8.75a.292.292,0,0,0,.292-.292V2.042a.292.292,0,0,0-.292-.292Zm0,0" fill="#39afd1"/>
    <path id="Path_2258" data-name="Path 2258" d="M10.792,229.665H2.042A2.044,2.044,0,0,1,0,227.624v-12.25a2.044,2.044,0,0,1,2.042-2.042h8.75a2.044,2.044,0,0,1,2.042,2.042v12.25A2.044,2.044,0,0,1,10.792,229.665Zm-8.75-14.583a.292.292,0,0,0-.292.292v12.25a.292.292,0,0,0,.292.292h8.75a.292.292,0,0,0,.292-.292v-12.25a.292.292,0,0,0-.292-.292Zm0,0" transform="translate(0 -201.665)" fill="#39afd1"/>
    <path id="Path_2259" data-name="Path 2259" d="M288.124,350.665h-8.75a2.044,2.044,0,0,1-2.042-2.042v-5.25a2.044,2.044,0,0,1,2.042-2.042h8.75a2.044,2.044,0,0,1,2.042,2.042v5.25A2.044,2.044,0,0,1,288.124,350.665Zm-8.75-7.583a.292.292,0,0,0-.292.292v5.25a.292.292,0,0,0,.292.292h8.75a.292.292,0,0,0,.292-.292v-5.25a.292.292,0,0,0-.292-.292Zm0,0" transform="translate(-262.165 -322.665)" fill="#39afd1"/>
    <path id="Path_2260" data-name="Path 2260" d="M288.124,16.333h-8.75a2.044,2.044,0,0,1-2.042-2.042V2.042A2.044,2.044,0,0,1,279.374,0h8.75a2.044,2.044,0,0,1,2.042,2.042v12.25A2.044,2.044,0,0,1,288.124,16.333ZM279.374,1.75a.292.292,0,0,0-.292.292v12.25a.292.292,0,0,0,.292.292h8.75a.292.292,0,0,0,.292-.292V2.042a.292.292,0,0,0-.292-.292Zm0,0" transform="translate(-262.165)" fill="#39afd1"/>
  </g>
</svg>
