<svg xmlns="http://www.w3.org/2000/svg" width="24.486" height="28" viewBox="0 0 24.486 28">
  <g id="exchange" transform="translate(0 -0.001)">
    <path id="Path_2246" data-name="Path 2246" d="M12.885,11.131v1.408a2.141,2.141,0,0,0,.266,1.114,1.261,1.261,0,0,0,1.1.634,1.88,1.88,0,0,0,1.311-.642L20.207,9a2.622,2.622,0,0,0,0-3.7L15.557.643A1.88,1.88,0,0,0,14.246,0c-.677,0-1.361.541-1.361,1.749V3.028A13.811,13.811,0,0,0,.007,15.117a.82.82,0,0,0,1.476.584,11.574,11.574,0,0,1,11.4-4.57ZM2.379,12.37A12.179,12.179,0,0,1,13.705,4.645a.82.82,0,0,0,.82-.82V1.932l4.521,4.521a.979.979,0,0,1,0,1.383l-4.521,4.521V10.463a.82.82,0,0,0-.631-.8A13.179,13.179,0,0,0,2.379,12.37Zm0,0" fill="#39afd1"/>
    <path id="Path_2247" data-name="Path 2247" d="M84.706,218.825a.821.821,0,0,0-.964.278,11.574,11.574,0,0,1-11.4,4.57v-1.408c0-1.208-.683-1.749-1.361-1.749a1.879,1.879,0,0,0-1.311.642l-4.65,4.65a2.622,2.622,0,0,0,0,3.7l4.65,4.65a1.879,1.879,0,0,0,1.311.642c.677,0,1.361-.541,1.361-1.749v-1.279a13.811,13.811,0,0,0,12.878-12.089.82.82,0,0,0-.512-.863ZM71.52,230.159a.82.82,0,0,0-.82.82v1.892l-4.521-4.52a.979.979,0,0,1,0-1.383l4.521-4.521v1.893a.821.821,0,0,0,.632.8,13.179,13.179,0,0,0,11.516-2.705,12.179,12.179,0,0,1-11.327,7.725Zm0,0" transform="translate(-60.738 -206.803)" fill="#39afd1"/>
  </g>
</svg>
