<svg xmlns="http://www.w3.org/2000/svg" width="53.8" height="53.867" viewBox="0 0 53.8 53.867">
  <g id="Group_4874" data-name="Group 4874" transform="translate(-1621 -123)">
    <path id="Path_2270" data-name="Path 2270" d="M48.18,49.438c-8.243,6.729-33.978,6.729-42.056,0-8.243-6.729-7.4-35.492,0-43.061s34.653-7.569,42.056,0S56.423,42.709,48.18,49.438Z" transform="translate(1620.748 122.381)" fill="#39afd1"/>
    <g id="Group_4826" data-name="Group 4826" transform="translate(1621.027 123)" opacity="0.2">
      <path id="Path_2267" data-name="Path 2267" d="M27.523,37.053c-7.392,5.89-15.635,8.917-23.382,9.083C-1.571,36.379-.4,12.666,6.329,5.771c6.055-6.221,25.061-7.4,36-3.536C45.014,13.34,39.468,27.461,27.523,37.053Z" transform="translate(-0.485 -0.013)" fill="#fff"/>
    </g>
    <path id="Path_2273" data-name="Path 2273" d="M122.087,107.544a3.018,3.018,0,0,1-3.028,3.028H108.971V120.66a3.028,3.028,0,0,1-6.055,0V110.571H92.828a3.028,3.028,0,0,1,0-6.055h10.088V94.428a3.028,3.028,0,1,1,6.055,0v10.088H119.06A3.018,3.018,0,0,1,122.087,107.544Z" transform="translate(1541.79 42.408)" fill="#fff"/>
  </g>
</svg>
