<?xml version="1.0" encoding="utf-8"?>
<!-- Generator: Adobe Illustrator 24.1.2, SVG Export Plug-In . SVG Version: 6.00 Build 0)  -->
<svg version="1.1" id="Layer_1" xmlns="http://www.w3.org/2000/svg" xmlns:xlink="http://www.w3.org/1999/xlink" x="0px" y="0px"
	 viewBox="0 0 30 30" style="enable-background:new 0 0 30 30;" xml:space="preserve">
<style type="text/css">
	.st0{fill:none;}
	.st1{fill:none;stroke:#FFFFFF;stroke-width:2;}
	.st2{fill:#FFFFFF;}
</style>
<g>
	<g id="Ellipse_44" transform="translate(1332 268)">
		<circle class="st0" cx="-1317" cy="-253" r="14.5"/>
		<circle class="st1" cx="-1317" cy="-253" r="14"/>
	</g>
	<path id="add_1_" class="st2" d="M21.2,13.7h-4.6c-0.1,0-0.3-0.1-0.3-0.3V8.8c0-0.7-0.6-1.3-1.3-1.3c-0.7,0-1.3,0.6-1.3,1.3v4.6
		c0,0.1-0.1,0.3-0.3,0.3l0,0H8.8c-0.7,0-1.3,0.6-1.3,1.3c0,0.7,0.6,1.3,1.3,1.3h4.6c0.1,0,0.3,0.1,0.3,0.3v4.6
		c0,0.7,0.6,1.3,1.3,1.3c0.7,0,1.3-0.6,1.3-1.3v-4.6c0-0.1,0.1-0.3,0.3-0.3h4.6c0.7,0,1.3-0.6,1.3-1.3
		C22.5,14.3,21.9,13.7,21.2,13.7L21.2,13.7z"/>
</g>
</svg>
