<?xml version="1.0" encoding="utf-8"?>
<!-- Generator: Adobe Illustrator 24.1.2, SVG Export Plug-In . SVG Version: 6.00 Build 0)  -->
<svg version="1.1" id="Layer_1" xmlns="http://www.w3.org/2000/svg" xmlns:xlink="http://www.w3.org/1999/xlink" x="0px" y="0px"
	 viewBox="0 0 29 29" style="enable-background:new 0 0 29 29;" xml:space="preserve">
<style type="text/css">
	.st0{opacity:0.31;}
	.st1{fill:none;}
	.st2{fill:none;stroke:#4F4F4F;}
	.st3{fill:#316D91;}
</style>
<g id="Group_2452" transform="translate(-1332 -268)">
	<g id="Ellipse_44" transform="translate(1332 268)" class="st0">
		<circle class="st1" cx="14.5" cy="14.5" r="14.5"/>
		<circle class="st2" cx="14.5" cy="14.5" r="14"/>
	</g>
	<path id="add_1_" class="st3" d="M1352.7,281.2h-4.6c-0.1,0-0.3-0.1-0.3-0.3v-4.6c0-0.7-0.6-1.3-1.3-1.3s-1.3,0.6-1.3,1.3v4.6
		c0,0.1-0.1,0.3-0.3,0.3l0,0h-4.6c-0.7,0-1.3,0.6-1.3,1.3c0,0.7,0.6,1.3,1.3,1.3h4.6c0.1,0,0.3,0.1,0.3,0.3v4.6
		c0,0.7,0.6,1.3,1.3,1.3s1.3-0.6,1.3-1.3v-4.6c0-0.1,0.1-0.3,0.3-0.3h4.6c0.7,0,1.3-0.6,1.3-1.3
		C1354,281.8,1353.4,281.2,1352.7,281.2L1352.7,281.2z"/>
</g>
</svg>
