<svg xmlns="http://www.w3.org/2000/svg" width="18.62" height="18.62" viewBox="0 0 18.62 18.62">
  <path id="gear" d="M18.182,7.19l-1.431-.311a7.788,7.788,0,0,0-.461-1.111l.792-1.232a.557.557,0,0,0-.075-.694L14.778,1.612a.557.557,0,0,0-.694-.075l-1.232.792a7.789,7.789,0,0,0-1.111-.461L11.43.438A.556.556,0,0,0,10.886,0H7.733A.556.556,0,0,0,7.19.438L6.879,1.869a7.788,7.788,0,0,0-1.111.461L4.536,1.537a.557.557,0,0,0-.694.075L1.612,3.841a.557.557,0,0,0-.075.694L2.33,5.768a7.789,7.789,0,0,0-.461,1.111L.438,7.19A.556.556,0,0,0,0,7.733v3.153a.556.556,0,0,0,.438.544l1.431.311a7.788,7.788,0,0,0,.461,1.111l-.792,1.232a.557.557,0,0,0,.075.694l2.229,2.229a.557.557,0,0,0,.694.075l1.232-.792a7.789,7.789,0,0,0,1.111.461l.311,1.431a.556.556,0,0,0,.544.438h3.153a.556.556,0,0,0,.544-.438l.311-1.431a7.788,7.788,0,0,0,1.111-.461l1.232.792a.556.556,0,0,0,.694-.075l2.229-2.229a.557.557,0,0,0,.075-.694l-.792-1.232a7.789,7.789,0,0,0,.461-1.111l1.431-.311a.556.556,0,0,0,.438-.544V7.733A.556.556,0,0,0,18.182,7.19ZM12.648,9.31A3.338,3.338,0,1,1,9.31,5.972,3.342,3.342,0,0,1,12.648,9.31Zm0,0" transform="translate(0 0)" fill="#4B88BC"/>
</svg>
