<svg xmlns="http://www.w3.org/2000/svg" width="62.005" height="62" viewBox="0 0 62.005 62">
  <g id="framework" transform="translate(-0.997 -1)">
    <path id="Path_1288" data-name="Path 1288" d="M35,33h2v6H35Z" fill="#34c7c2"/>
    <path id="Path_1289" data-name="Path 1289" d="M27,37h2v2H27Z" fill="#34c7c2"/>
    <path id="Path_1290" data-name="Path 1290" d="M59.5,37.937a6.993,6.993,0,0,0-9.247,2.072L43,36.381V27.618l11.082-5.542a4.951,4.951,0,0,0,2.624,1.753,5,5,0,1,0-3.536-6.123,4.943,4.943,0,0,0,.018,2.581L43,25.382V19H33V14.92a7,7,0,1,0-2,0V19H21v6.381L10.812,20.287a4.983,4.983,0,0,0-6.106-6.116,5,5,0,1,0,5.211,7.905L21,27.617V36.38l-7.255,3.627a6.988,6.988,0,1,0,.9,1.787L21,38.617V45H31v8.1a5,5,0,1,0,2,0V45H43V38.617L49.356,41.8A7,7,0,1,0,59.5,37.937ZM9,45.731A2,2,0,1,1,9.731,43,2,2,0,0,1,9,45.731ZM30,8a2,2,0,1,1,2,2A2,2,0,0,1,30,8ZM25,23h2v2H25ZM39,41H25V35h4V33h4V31h6Zm0-12H25V27H39Zm0-4H29V23H39ZM57.733,45A2,2,0,1,1,57,42.267,2,2,0,0,1,57.733,45Z" fill="#34c7c2"/>
    <path id="Path_1291" data-name="Path 1291" d="M31,35h2v4H31Z" fill="#34c7c2"/>
  </g>
</svg>
