<svg xmlns="http://www.w3.org/2000/svg" width="340.284" height="340.284" viewBox="0 0 340.284 340.284">
  <path id="Exclusion_6" data-name="Exclusion 6" d="M170.142,340.284C76.326,340.284,0,263.959,0,170.142S76.326,0,170.142,0,340.284,76.326,340.284,170.142,263.959,340.284,170.142,340.284Zm18.943-245.74a11.453,11.453,0,0,0-10.928,8.131L140.349,231.227a11.346,11.346,0,0,0,7.682,14.08,11.673,11.673,0,0,0,3.207.454,11.367,11.367,0,0,0,10.874-8.136l37.809-128.552a11.306,11.306,0,0,0-10.835-14.529Zm52.9,18.858a11.347,11.347,0,0,0-8.023,19.37l37.356,37.355-37.356,37.355a11.36,11.36,0,0,0,0,16.046,11.32,11.32,0,0,0,16.047-.014l45.371-45.372a11.345,11.345,0,0,0,0-16.046l-45.371-45.372A11.274,11.274,0,0,0,241.987,113.4Zm-143.676.015a11.271,11.271,0,0,0-8.023,3.323L44.917,162.112a11.36,11.36,0,0,0,0,16.046l45.372,45.371A11.341,11.341,0,1,0,106.335,207.5L68.98,170.142l37.355-37.355a11.347,11.347,0,0,0-8.023-19.37Z" fill="#ff9800"/>
</svg>
