<svg id="Capa_1" enable-background="new 0 0 520 520" height="512" viewBox="0 0 520 520" width="512" xmlns="http://www.w3.org/2000/svg"><g><path d="m430 45h-219.002c-5.429 0-10.434 2.933-13.086 7.669-2.653 4.735-2.541 10.535.294 15.165l48.992 80c2.727 4.452 7.571 7.166 12.792 7.166h200.01c8.284 0 15-6.716 15-15v-50c0-24.813-20.187-45-45-45z" fill="#ffb300"/><path d="m475 125.016h-206.597l-56.861-92.85c-2.727-4.452-7.571-7.166-12.792-7.166h-153.75c-24.813 0-45 20.187-45 45v380c0 24.813 20.187 45 45 45h430c24.813 0 45-20.187 45-45v-279.984c0-24.814-20.187-45-45-45z" fill="#fdd835"/><path d="m226.789 434.958c-23.047 0-46.094-8.772-63.639-26.318-35.092-35.091-35.092-92.188-.001-127.279l53.033-53.033c25.345-25.343 66.581-25.343 91.924 0 25.344 25.344 25.344 66.58 0 91.924l-45.962 45.962c-7.554 7.556-17.6 11.716-28.284 11.716s-20.729-4.16-28.284-11.716c-15.596-15.595-15.596-40.972-.001-56.568l38.892-38.891c5.857-5.857 15.355-5.857 21.213 0s5.858 15.355 0 21.213l-38.891 38.891c-3.898 3.899-3.898 10.243 0 14.143 1.89 1.889 4.4 2.929 7.071 2.929s5.182-1.04 7.07-2.929l45.963-45.962c13.646-13.646 13.646-35.852 0-49.498s-35.852-13.645-49.498 0l-53.033 53.033c-23.394 23.394-23.394 61.459 0 84.854 23.396 23.394 61.461 23.394 84.854 0l88.389-88.389c5.857-5.857 15.355-5.857 21.213 0s5.858 15.355 0 21.213l-88.389 88.389c-17.545 17.544-40.592 26.316-63.64 26.316z" fill="#64b5f6"/><path d="m430 45h-170v110h200c8.284 0 15-6.716 15-15v-50c0-24.813-20.187-45-45-45z" fill="#ff8f00"/><path d="m475 125.016h-206.597l-8.403-13.722v383.706h215c24.813 0 45-20.187 45-45v-279.984c0-24.814-20.187-45-45-45z" fill="#fbc02d"/><g fill="#1e88e5"><path d="m265.68 270.754c-1.656-1.656-3.607-2.826-5.68-3.546v30.438l5.68-5.68c5.858-5.857 5.858-15.355 0-21.212z"/><path d="m378.817 299.038c-5.857-5.857-15.355-5.857-21.213 0l-88.389 88.389c-2.869 2.869-5.96 5.381-9.216 7.546v33.659c11.087-4.385 21.476-11.039 30.429-19.992l88.389-88.389c5.859-5.857 5.859-15.355 0-21.213z"/><path d="m286.894 249.54c13.646 13.646 13.646 35.852 0 49.498l-26.894 26.893v42.262c.733-.634 1.452-1.288 2.145-1.98l45.962-45.962c25.344-25.344 25.344-66.58 0-91.924-13.216-13.216-30.754-19.524-48.106-18.956v30.008c9.663-.588 19.525 2.793 26.893 10.161z"/></g></g></svg>