<svg id="search_4_" data-name="search (4)" xmlns="http://www.w3.org/2000/svg" width="215.002" height="215" viewBox="0 0 215.002 215">
  <path id="Path_1267" data-name="Path 1267" d="M127.656,0H24.635A24.621,24.621,0,0,0,0,24.635V163.49a24.621,24.621,0,0,0,24.635,24.635H97.556A63.94,63.94,0,0,1,85.1,150.052,65,65,0,0,1,150.052,85.1a18.724,18.724,0,0,1,2.24.09V24.635A24.621,24.621,0,0,0,127.656,0ZM35.833,35.833H71.667a8.958,8.958,0,1,1,0,17.917H35.833a8.958,8.958,0,0,1,0-17.917Zm44.792,89.583H35.833a8.958,8.958,0,1,1,0-17.917H80.625a8.958,8.958,0,0,1,0,17.917Zm35.833-35.833H35.833a8.958,8.958,0,1,1,0-17.917h80.625a8.958,8.958,0,1,1,0,17.917Z" fill="#1e9f9b"/>
  <path id="Path_1268" data-name="Path 1268" d="M58.531,105.562a47.031,47.031,0,1,1,47.031-47.031A47.083,47.083,0,0,1,58.531,105.562Zm0-76.146A29.115,29.115,0,1,0,87.646,58.531,29.148,29.148,0,0,0,58.531,29.417Z" transform="translate(91.521 91.521)" fill="#1e9f9b"/>
  <path id="Path_1269" data-name="Path 1269" d="M56.825,65.783a8.934,8.934,0,0,1-6.334-2.625L21.377,34.044A8.957,8.957,0,1,1,34.044,21.377L63.158,50.491a8.958,8.958,0,0,1-6.334,15.292Z" transform="translate(149.217 149.217)" fill="#1e9f9b"/>
</svg>
