<svg xmlns="http://www.w3.org/2000/svg" width="223.2" height="223.2" viewBox="0 0 223.2 223.2">
  <g id="Group_2542" data-name="Group 2542" transform="translate(-908 -2043.8)">
    <path id="Path_1283" data-name="Path 1283" d="M217.817,107.705,205.6,104.651A89.981,89.981,0,0,0,203.054,91.8l10.109-7.49A8.375,8.375,0,0,0,206.944,69.3l-12.45,1.853a90.562,90.562,0,0,0-7.286-10.884l6.482-10.8A8.375,8.375,0,0,0,182.2,37.97l-10.8,6.482a90.666,90.666,0,0,0-10.884-7.286l1.853-12.45A8.375,8.375,0,0,0,147.352,18.5l-7.49,10.109a90.052,90.052,0,0,0-12.852-2.546l-3.054-12.217a8.375,8.375,0,0,0-16.25,0l-3.054,12.217A89.968,89.968,0,0,0,91.8,28.607L84.309,18.5A8.375,8.375,0,0,0,69.3,24.717l1.853,12.45a90.574,90.574,0,0,0-10.884,7.286l-10.8-6.482A8.375,8.375,0,0,0,37.97,49.46l6.482,10.8a90.632,90.632,0,0,0-7.286,10.884L24.716,69.3A8.375,8.375,0,0,0,18.5,84.309L28.607,91.8a90.052,90.052,0,0,0-2.546,12.852l-12.218,3.054a8.375,8.375,0,0,0,0,16.25l12.218,3.054a89.981,89.981,0,0,0,2.546,12.852L18.5,147.352a8.375,8.375,0,0,0,6.219,15.013l12.45-1.853A90.525,90.525,0,0,0,44.453,171.4l-6.482,10.8a8.375,8.375,0,0,0,11.49,11.49l10.8-6.482a90.692,90.692,0,0,0,10.884,7.286L69.3,206.944a8.375,8.375,0,0,0,15.013,6.219l7.49-10.109a90.05,90.05,0,0,0,12.852,2.546l3.054,12.218a8.375,8.375,0,0,0,16.25,0L127.01,205.6a89.968,89.968,0,0,0,12.852-2.546l7.49,10.109a8.375,8.375,0,0,0,15.013-6.219l-1.853-12.45a90.562,90.562,0,0,0,10.884-7.286l10.8,6.482a8.375,8.375,0,0,0,11.49-11.49l-6.482-10.8a90.66,90.66,0,0,0,7.286-10.884l12.45,1.853a8.375,8.375,0,0,0,6.219-15.013l-10.109-7.49A90.051,90.051,0,0,0,205.6,127.01l12.218-3.054a8.375,8.375,0,0,0,0-16.25ZM115.83,180.131a64.3,64.3,0,1,1,64.3-64.3A64.3,64.3,0,0,1,115.83,180.131Z" transform="translate(903.77 2039.57)" fill="#3793e3"/>
    <path id="Path_1285" data-name="Path 1285" d="M164.619,78.988c31.5,5.131,55.778,37.6,55.778,76.891s-24.277,71.76-55.778,76.891a78.191,78.191,0,0,1-8.741.488,77.379,77.379,0,0,1,0-154.758A78.189,78.189,0,0,1,164.619,78.988Zm34,70.352a6.527,6.527,0,0,0,6.282-8.37,51.35,51.35,0,0,0-34.112-34.112,6.527,6.527,0,0,0-8.37,6.282v17.407a26.213,26.213,0,0,1,18.793,18.793Zm6.282,21.448a6.527,6.527,0,0,0-6.282-8.37H181.211a26.213,26.213,0,0,1-18.793,18.793v17.407a6.527,6.527,0,0,0,8.37,6.282A51.35,51.35,0,0,0,204.9,170.788Zm-35.943-14.909a13.078,13.078,0,1,0-13.078,13.078A13.077,13.077,0,0,0,168.957,155.879ZM149.34,198.618V181.211a26.213,26.213,0,0,1-18.793-18.793H113.14a6.527,6.527,0,0,0-6.282,8.37A51.35,51.35,0,0,0,140.97,204.9a6.527,6.527,0,0,0,8.37-6.282Zm0-68.072V113.14a6.527,6.527,0,0,0-8.37-6.282,51.35,51.35,0,0,0-34.112,34.112,6.527,6.527,0,0,0,6.282,8.37h17.407a26.213,26.213,0,0,1,18.793-18.793Z" transform="translate(863.721 1999.521)" fill="#3793e3"/>
    <path id="Path_1286" data-name="Path 1286" d="M151.648,71a80.695,80.695,0,0,0-52,19.01,3.269,3.269,0,1,0,4.219,5,74.118,74.118,0,1,1-8.859,8.859,3.27,3.27,0,0,0-5-4.219A80.645,80.645,0,1,0,151.648,71Z" transform="translate(867.952 2003.752)" fill="#fff"/>
    <path id="Path_1287" data-name="Path 1287" d="M214.38,122.9a11.645,11.645,0,0,0,0-22.594l-10.069-2.517c-.443-2.991-1.034-5.971-1.765-8.907l8.333-6.174a11.645,11.645,0,0,0-8.646-20.874l-10.264,1.527c-1.558-2.589-3.247-5.114-5.047-7.541l5.343-8.905a11.645,11.645,0,0,0-15.977-15.976l-8.9,5.344c-2.429-1.8-4.953-3.49-7.541-5.048l1.527-10.264a11.645,11.645,0,0,0-20.874-8.646l-6.174,8.333c-2.937-.731-5.918-1.322-8.907-1.765L122.9,8.82a11.645,11.645,0,0,0-22.594,0L97.786,18.889c-2.989.443-5.97,1.034-8.907,1.765l-6.174-8.333a11.645,11.645,0,0,0-20.874,8.646l1.527,10.264c-2.589,1.557-5.113,3.247-7.541,5.048l-8.905-5.343A11.645,11.645,0,0,0,30.935,46.913l5.343,8.9c-1.8,2.429-3.49,4.953-5.047,7.541L20.967,61.832A11.645,11.645,0,0,0,12.32,82.706l8.333,6.174c-.731,2.936-1.322,5.918-1.765,8.907L8.819,100.3a11.645,11.645,0,0,0,0,22.593l10.069,2.517c.443,2.989,1.034,5.971,1.765,8.907l-8.333,6.174a11.645,11.645,0,0,0,8.646,20.874l10.264-1.527c1.558,2.589,3.247,5.113,5.047,7.541l-5.343,8.905a11.645,11.645,0,0,0,15.977,15.976l8.905-5.343c2.429,1.8,4.953,3.49,7.541,5.048l-1.527,10.264a11.645,11.645,0,0,0,20.874,8.646l6.174-8.333c2.936.731,5.918,1.322,8.907,1.765l2.517,10.068a11.644,11.644,0,0,0,22.593,0l2.517-10.069c2.989-.443,5.97-1.034,8.907-1.765l6.174,8.333a11.645,11.645,0,0,0,20.874-8.646l-1.527-10.264c2.589-1.558,5.113-3.247,7.541-5.048l8.905,5.343a11.645,11.645,0,0,0,15.977-15.976l-5.344-8.9c1.8-2.428,3.49-4.952,5.047-7.541l10.264,1.527a11.645,11.645,0,0,0,8.647-20.874l-8.333-6.174c.731-2.935,1.321-5.916,1.765-8.907Zm-17.5,15.362,10.109,7.49a5.106,5.106,0,0,1-3.791,9.153l-12.45-1.853a3.272,3.272,0,0,0-3.322,1.616,87.664,87.664,0,0,1-7.023,10.491,3.271,3.271,0,0,0-.225,3.692l6.482,10.8a5.106,5.106,0,0,1-7.005,7l-10.8-6.482a3.271,3.271,0,0,0-3.692.225,87.66,87.66,0,0,1-10.491,7.023,3.27,3.27,0,0,0-1.616,3.323L154.9,203.2a5.106,5.106,0,0,1-9.152,3.79l-7.49-10.109a3.271,3.271,0,0,0-3.494-1.206,87.06,87.06,0,0,1-12.386,2.453,3.27,3.27,0,0,0-2.772,2.452l-3.055,12.218a5.1,5.1,0,0,1-9.9,0l-3.055-12.217a3.271,3.271,0,0,0-2.772-2.452,87.071,87.071,0,0,1-12.386-2.453,3.267,3.267,0,0,0-3.494,1.206l-7.49,10.109A5.106,5.106,0,0,1,68.3,203.2l1.852-12.45a3.27,3.27,0,0,0-1.616-3.323A87.623,87.623,0,0,1,58.044,180.4a3.27,3.27,0,0,0-3.692-.225l-10.8,6.482a5.106,5.106,0,0,1-7.005-7l6.482-10.8a3.269,3.269,0,0,0-.225-3.692,87.627,87.627,0,0,1-7.023-10.491,3.272,3.272,0,0,0-3.322-1.616L20,154.9a5.106,5.106,0,0,1-3.791-9.153l10.109-7.49a3.27,3.27,0,0,0,1.206-3.494,87.079,87.079,0,0,1-2.453-12.385,3.269,3.269,0,0,0-2.452-2.772l-12.217-3.054a5.106,5.106,0,0,1,0-9.907l12.217-3.054a3.269,3.269,0,0,0,2.452-2.772,87.1,87.1,0,0,1,2.453-12.386,3.27,3.27,0,0,0-1.206-3.494l-10.109-7.49A5.106,5.106,0,0,1,20,68.3l12.45,1.853a3.269,3.269,0,0,0,3.322-1.616A87.7,87.7,0,0,1,42.8,58.043a3.271,3.271,0,0,0,.225-3.692l-6.482-10.8a5.106,5.106,0,0,1,7.005-7.005l10.8,6.482a3.268,3.268,0,0,0,3.692-.225,87.684,87.684,0,0,1,10.491-7.023,3.269,3.269,0,0,0,1.616-3.322L68.3,20a5.106,5.106,0,0,1,9.153-3.79l7.49,10.109a3.27,3.27,0,0,0,3.494,1.206,87.1,87.1,0,0,1,12.386-2.453,3.27,3.27,0,0,0,2.772-2.452l3.055-12.218a5.1,5.1,0,0,1,9.9,0l3.055,12.217a3.271,3.271,0,0,0,2.772,2.452,87.1,87.1,0,0,1,12.386,2.453,3.27,3.27,0,0,0,3.494-1.206l7.49-10.109A5.106,5.106,0,0,1,154.9,20l-1.852,12.45a3.269,3.269,0,0,0,1.616,3.322A87.651,87.651,0,0,1,165.157,42.8a3.27,3.27,0,0,0,3.692.225l10.8-6.482a5.106,5.106,0,0,1,7.005,7.005l-6.482,10.8a3.269,3.269,0,0,0,.225,3.692,87.635,87.635,0,0,1,7.023,10.492,3.273,3.273,0,0,0,3.322,1.616L203.2,68.3a5.106,5.106,0,0,1,3.791,9.152l-10.109,7.49a3.27,3.27,0,0,0-1.206,3.494,87.19,87.19,0,0,1,2.453,12.386,3.269,3.269,0,0,0,2.452,2.771l12.217,3.054a5.105,5.105,0,0,1,0,9.906l-12.217,3.054a3.269,3.269,0,0,0-2.452,2.771,87.172,87.172,0,0,1-2.453,12.386,3.269,3.269,0,0,0,1.206,3.494Z" transform="translate(908 2043.8)" fill="#8ccaff"/>
  </g>
</svg>
