<?xml version="1.0" encoding="utf-8"?>
<!-- Generator: Adobe Illustrator 25.0.0, SVG Export Plug-In . SVG Version: 6.00 Build 0)  -->
<svg version="1.1" id="Layer_1" xmlns="http://www.w3.org/2000/svg" xmlns:xlink="http://www.w3.org/1999/xlink" x="0px" y="0px"
	 viewBox="0 0 561 561" style="enable-background:new 0 0 561 561;" xml:space="preserve">
<style type="text/css">
	.st0{fill:#109AA4;}
	.st1{fill:#FFFFFF;}
</style>
<circle class="st0" cx="280.5" cy="280.5" r="273.5"/>
<g transform="translate(0,-952.36218)">
	<path class="st1" d="M262.2,1088.2c-3.5,0.3-6.4,3.6-6.4,7.1v14.9c-0.6,0.1-1.1,0.2-1.7,0.3c-1.2,0.3-2.4,0.7-3.6,1.1l-14.3-14.3
		c-2.6-2.6-7.4-2.6-10,0l-21.2,21.2c-2.6,2.6-2.6,7.4,0,10l13.8,13.8c-0.4,0.7-0.9,1.2-1.3,2c-0.7,1.3-1.1,2.6-1.7,4h-16.4
		c-3.7,0-7.1,3.4-7.1,7.1v28.2c0,3.7,3.4,7.1,7.1,7.1h16.5c0.6,1.3,0.9,2.6,1.5,3.9c0.4,0.8,1,1.3,1.3,2l-13.8,13.8
		c-2.6,2.6-2.6,7.4,0,10l21.2,21.2c2.6,2.6,7.4,2.6,10,0l14.2-14.2c1.2,0.4,2.5,0.8,3.7,1.1c0.6,0.1,1.1,0.2,1.7,0.3v14.9
		c0,3.7,3.4,7.1,7.1,7.1H291c3.7,0,7.1-3.4,7.1-7.1v-14.9c0.6-0.1,1.2-0.2,1.8-0.3c1.3-0.3,2.4-0.8,3.6-1.2l14.3,14.3
		c2.6,2.6,7.3,2.6,9.9,0l21.2-21.2c2.6-2.6,2.6-7.4,0-10l-13.7-13.7c0.4-0.7,0.9-1.3,1.3-2.1c0.6-1.3,1-2.6,1.5-3.9h16.4
		c3.7,0,7.1-3.4,7.1-7.1c0-8.5,0-18.6,0-28.2c0-3.7-3.4-7.1-7.1-7.1H338c-0.6-1.3-0.9-2.7-1.5-4c-0.4-0.8-0.9-1.4-1.3-2.1l13.7-13.7
		c2.6-2.6,2.6-7.4,0-10l-21.2-21.2c-2.6-2.6-7.3-2.6-9.9,0l-14.3,14.3c-1.2-0.4-2.4-0.8-3.6-1.1c-0.6-0.1-1.2-0.2-1.8-0.3v-14.9
		c0-3.7-3.4-7.1-7.1-7.1C281.5,1088.2,271.7,1088.2,262.2,1088.2L262.2,1088.2z M269.9,1102.3H284v14.1c0,4,4,7.6,7.9,7.1
		c1.6-0.1,3.2,0.4,4.6,0.7c1.3,0.3,2.5,0.7,3.4,1c1,0.4,1.1,0.6,1.7,0.9c2.7,1.5,6.3,1.1,8.5-1.1l12.7-12.7l11.2,11.2l-12.7,12.6
		c-2.6,2.6-2.7,7.3-0.1,9.9c-0.3-0.3,1.4,2.2,2.6,4.6s2.4,5.2,2.6,6.3c0.7,3,3.7,5.4,6.8,5.4h14.1v14.1h-14.1
		c-3.1,0-6.1,2.3-6.8,5.3c-0.3,1-1.4,4-2.6,6.4s-3,5-2.6,4.6c-2.5,2.6-2.4,7.2,0.1,9.8l12.7,12.7l-11.2,11.1l-12.7-12.7
		c-2.4-2.3-6.5-2.6-9.2-0.7c-0.2,0.1-0.5,0.3-1,0.4c-0.9,0.3-2.2,0.7-3.4,1c-1.3,0.3-2.6,0.5-3.5,0.7c-1,0.2-1.2,0.1-2,0.1
		c-3.6,0.1-7.1,3.3-7.1,7v14.1h-14.1v-14.1c0-3.7-3.5-7-7.1-7c-0.3,0-0.4,0-1.9-0.1c-0.9-0.1-2.2-0.4-3.4-0.7
		c-1.3-0.3-2.5-0.7-3.4-1c-1-0.3-1-0.6-1.8-0.9c-2.7-1.5-6.3-1-8.5,1.2l-12.7,12.6l-11-11l12.6-12.7c2.5-2.6,2.6-7.2,0.1-9.8
		c0.3,0.3-1.5-2.2-2.8-4.6c-1.2-2.4-2.4-5.3-2.6-6.4c-0.8-3-3.7-5.3-6.8-5.3h-14.1c0-4.5,0-9.1,0-14.1h14.1c3.1,0,6.1-2.4,6.8-5.4
		c0.3-1,1.4-3.9,2.6-6.3c1.2-2.4,3.1-5,2.8-4.6c2.6-2.6,2.5-7.3-0.1-9.9l-12.6-12.6l11-11.2l12.7,12.7c2.4,2.4,6.5,2.8,9.3,0.8
		c0.2-0.1,0.5-0.4,1-0.6c0.9-0.3,2.2-0.7,3.4-1c1.3-0.3,2.5-0.5,3.4-0.7c0.5-0.1,1,0,1.2,0c3.9,0.4,7.9-3.1,7.8-7.1L269.9,1102.3z
		 M276.9,1137.6c-17.5,0-31.8,14.3-31.8,31.7s14.3,31.7,31.8,31.7s31.8-14.3,31.8-31.7S294.4,1137.6,276.9,1137.6z M276.9,1151.7
		c9.8,0,17.6,7.8,17.6,17.6s-7.8,17.6-17.6,17.6s-17.6-7.8-17.6-17.6S267.1,1151.7,276.9,1151.7z M195.1,1246.9
		c-3.1,0.2-5.9,2.6-6.5,5.6s1,6.3,3.7,7.7l31.8,17.6c3.2,1.8,7.8,0.5,9.6-2.8s0.5-7.8-2.8-9.6l-31.8-17.6
		C198,1247.1,196.5,1246.8,195.1,1246.9z M166.8,1261c-3,0.3-5.7,2.7-6.3,5.7s1.1,6.3,3.8,7.6l45.9,24.7c3.3,1.9,8,0.5,9.7-2.8
		s0.3-8-3.1-9.6l-45.9-24.7C169.6,1261.2,168.2,1260.9,166.8,1261z M368.7,1275.2c-27.6,0-52.8,10.1-68,14.1h-48.4
		c-5.5,0-10.8,1.6-15.3,4.2s-9.4,6.4-9.4,13.4v10.6c0,7,4.9,10.7,9.4,13.3c4.5,2.6,9.8,4.3,15.3,4.3h49.4c3.7,0.1,7.2-3.3,7.2-7.1
		s-3.4-7.1-7.2-7.1h-49.4c-2.3,0-5.8-1.1-8.2-2.4c-1.7-1-2.3-2-2.4-1.8v-9.2c0.1,0.2,0.7-1,2.4-2c2.3-1.4,5.8-2.3,8.2-2.3h49.4
		c0.6,0,1.2-0.1,1.8-0.2c17-4.4,40.9-13.9,65.3-13.9c20.6,0,36.9,7.9,57.1,17c3.4,1.5,7.8-0.2,9.3-3.6s-0.2-7.8-3.6-9.3
		C411.6,1284.5,392.9,1275.2,368.7,1275.2L368.7,1275.2z M143.6,1282c-1.4,0-2.7,0.3-4.2,0.8c-2.9,1-4.8,3-6.2,4.7s-2.3,3.3-3.3,5
		c-0.1,0.1-0.2,0.3-0.3,0.4c-1.3,2.4-2.3,4.1-3.2,6.3c-0.9,2.1-1.8,5.6-0.6,8.8c1.2,3.2,3.2,4.9,5.3,6.5c2.1,1.6,4.6,3.1,7.8,5.3
		c18.4,11.5,35.5,23.9,51.1,33.7c9.9,6.2,19.9,12.1,29.2,16.4c9.3,4.4,17.8,7.5,25.9,7.5c50.2,0,73.9-3.5,130.6-3.5
		c27.6,0,36.1,3.4,45.9,3.4c4.5,0,7.6-2.1,9.9-4.5s4.2-5.2,4.2-9.5V1328c0.1-3.7-3.3-7.2-7.1-7.2c-3.7,0-7.1,3.4-7.1,7.2v35.2h-0.1
		c-5.7,0-17.2-3.4-45.8-3.4c-57.2,0-81,3.5-130.6,3.5c-4,0-11.4-2.2-19.8-6.2s-18.1-9.5-27.8-15.5c-17.5-10.5-34-23.2-51.1-33.7
		c-3-2-5.2-3.4-6.5-4.4c0.5-0.9,1-1.9,2.1-3.9c0.9-1.4,1.6-2.6,2.1-3.2h0.1c0.3,0.1,2,0.4,5.8,2.5c20.2,10.1,39.7,20.7,56.9,28.4
		c3.4,1.5,7.8-0.2,9.3-3.6s-0.2-7.8-3.6-9.3c-19.5-8.7-38.9-19.3-56-28c-3.2-1.8-6.1-3.2-8.9-4C146.4,1282.2,145,1282,143.6,1282
		L143.6,1282z"/>
</g>
</svg>
