<?xml version="1.0" encoding="utf-8"?>
<!-- Generator: Adobe Illustrator 24.1.3, SVG Export Plug-In . SVG Version: 6.00 Build 0)  -->
<svg version="1.1" id="Layer_1" xmlns="http://www.w3.org/2000/svg" xmlns:xlink="http://www.w3.org/1999/xlink" x="0px" y="0px"
	 viewBox="0 0 610 610" style="enable-background:new 0 0 610 610;" xml:space="preserve">
<style type="text/css">
	.st0{fill:#39AFD1;}
</style>
<path id="Exclusion_11" class="st0" d="M563,610H47c-25.9,0-47-21-47-46.9c0,0,0-0.1,0-0.1V47C0,21.1,21,0,46.9,0c0,0,0.1,0,0.1,0
	h516c25.9,0,47,21,47,46.9c0,0,0,0.1,0,0.1v516C610,588.9,589,610,563,610C563.1,610,563,610,563,610z M143.1,271
	c-8.5,0-16.6,3.4-22.6,9.4l-15.1,15.1c-12.5,12.5-12.5,32.7,0,45.2c0,0,0,0,0,0l120.4,120.5c2,2,4.3,3.6,6.9,4.6
	c5.2,2.2,11.1,2.2,16.3,0c2.6-1.1,4.9-2.6,6.9-4.6l248.4-248.5c12.5-12.5,12.5-32.7,0-45.2c0,0,0,0,0,0l-15.1-15.1
	c-12.5-12.5-32.7-12.5-45.2,0c0,0,0,0,0,0L240.9,355.6l-75.2-75.2C159.7,274.4,151.6,271,143.1,271z"/>
</svg>
