<svg xmlns="http://www.w3.org/2000/svg" width="61.133" height="61.133" viewBox="0 0 61.133 61.133">
  <g id="Group_1115" data-name="Group 1115" transform="translate(-832 -500)">
    <g id="Path_717" data-name="Path 717" transform="translate(832 500)" fill="#0a1428">
      <path d="M 30.56640625 59.63281631469727 C 26.64180564880371 59.63281631469727 22.83539581298828 58.86451721191406 19.25290679931641 57.34924697875977 C 15.79188632965088 55.88535690307617 12.68324661254883 53.78935623168945 10.01335620880127 51.11946487426758 C 7.343466281890869 48.44956588745117 5.247466087341309 45.34093475341797 3.783576250076294 41.87990570068359 C 2.268306255340576 38.29741668701172 1.500006198883057 34.49100494384766 1.500006198883057 30.56640625 C 1.500006198883057 26.64180564880371 2.268306255340576 22.83539581298828 3.783576250076294 19.25290679931641 C 5.247466087341309 15.79188632965088 7.343466281890869 12.68324661254883 10.01335620880127 10.01335620880127 C 12.68324661254883 7.343466281890869 15.79188632965088 5.247466087341309 19.25290679931641 3.783576250076294 C 22.83539581298828 2.268306255340576 26.64180564880371 1.500006198883057 30.56640625 1.500006198883057 C 34.49100494384766 1.500006198883057 38.29741668701172 2.268306255340576 41.87990570068359 3.783576250076294 C 45.34093475341797 5.247466087341309 48.44956588745117 7.343466281890869 51.11946487426758 10.01335620880127 C 53.78935623168945 12.68324661254883 55.88535690307617 15.79188632965088 57.34924697875977 19.25290679931641 C 58.86451721191406 22.83539581298828 59.63281631469727 26.64180564880371 59.63281631469727 30.56640625 C 59.63281631469727 34.49100494384766 58.86451721191406 38.29741668701172 57.34924697875977 41.87990570068359 C 55.88535690307617 45.34093475341797 53.78935623168945 48.44956588745117 51.11945724487305 51.11945724487305 C 48.44956588745117 53.78935623168945 45.34093475341797 55.88535690307617 41.87990570068359 57.34924697875977 C 38.29741668701172 58.86451721191406 34.49100494384766 59.63281631469727 30.56640625 59.63281631469727 Z" stroke="none"/>
      <path d="M 30.56640625 2.999996185302734 C 26.8436393737793 2.999996185302734 23.23382949829102 3.728427886962891 19.83723831176758 5.165073394775391 C 16.55500793457031 6.553340911865234 13.60662841796875 8.541393280029297 11.07401657104492 11.07401657104492 C 8.541393280029297 13.60662841796875 6.553340911865234 16.55500793457031 5.165073394775391 19.83723831176758 C 3.728427886962891 23.23382949829102 2.999996185302734 26.8436393737793 2.999996185302734 30.56640625 C 2.999996185302734 34.2891731262207 3.728427886962891 37.89898681640625 5.165073394775391 41.29557037353516 C 6.553340911865234 44.57780456542969 8.541393280029297 47.52617263793945 11.07401657104492 50.05879592895508 C 13.60662841796875 52.59141540527344 16.55500793457031 54.57946014404297 19.83723831176758 55.96772766113281 C 23.23382949829102 57.40437316894531 26.8436393737793 58.13280487060547 30.56640625 58.13280487060547 C 34.2891731262207 58.13280487060547 37.89898681640625 57.40437316894531 41.29557037353516 55.96772766113281 C 44.57780456542969 54.57947158813477 47.52617263793945 52.59141540527344 50.05879592895508 50.05879592895508 C 52.59141540527344 47.52617263793945 54.57947158813477 44.57780456542969 55.96772766113281 41.29557037353516 C 57.40437316894531 37.89898681640625 58.13280487060547 34.2891731262207 58.13280487060547 30.56640625 C 58.13280487060547 26.8436393737793 57.40437316894531 23.23382949829102 55.96772766113281 19.83723831176758 C 54.57946014404297 16.55500793457031 52.59141540527344 13.60662841796875 50.05879592895508 11.07401657104492 C 47.52617263793945 8.541393280029297 44.57780456542969 6.553340911865234 41.29557037353516 5.165073394775391 C 37.89898681640625 3.728427886962891 34.2891731262207 2.999996185302734 30.56640625 2.999996185302734 M 30.56640625 -3.814697265625e-06 C 47.44776153564453 -3.814697265625e-06 61.13280487060547 13.68505096435547 61.13280487060547 30.56640625 C 61.13280487060547 47.44776153564453 47.44776153564453 61.13280487060547 30.56640625 61.13280487060547 C 13.68505096435547 61.13280487060547 -3.814697265625e-06 47.44776153564453 -3.814697265625e-06 30.56640625 C -3.814697265625e-06 13.68505096435547 13.68505096435547 -3.814697265625e-06 30.56640625 -3.814697265625e-06 Z" stroke="none" fill="#34a263"/>
    </g>
    <g id="verified_1_" data-name="verified (1)" transform="translate(848.676 520.6)">
      <g id="Group_1097" data-name="Group 1097" transform="translate(0 0)">
        <g id="Group_1096" data-name="Group 1096">
          <path id="Path_715" data-name="Path 715" d="M156.812,169.952a1.657,1.657,0,0,0-2.344,0l-14.635,14.635-7.7-7.7a1.657,1.657,0,1,0-2.344,2.344l8.876,8.876a1.657,1.657,0,0,0,2.344,0L156.812,172.3A1.657,1.657,0,0,0,156.812,169.952Z" transform="translate(-129.301 -169.467)" fill="#34a263"/>
        </g>
      </g>
    </g>
  </g>
</svg>
