<svg xmlns="http://www.w3.org/2000/svg" width="19.358" height="26" viewBox="0 0 19.358 26">
  <g id="clipboard" transform="translate(-51.988 -0.001)">
    <g id="Group_2365" data-name="Group 2365" transform="translate(51.988 0.001)">
      <g id="Group_2364" data-name="Group 2364" transform="translate(0 0)">
        <path id="Path_933" data-name="Path 933" d="M144.262,1.971h-1.9a.534.534,0,0,1-.5-.4A1.936,1.936,0,0,0,139.89,0a1.969,1.969,0,0,0-1.969,1.6.5.5,0,0,1-.5.367h-1.836V5.309h8.677Z" transform="translate(-130.245 -0.001)" fill="#4B88BC"/>
        <path id="Path_934" data-name="Path 934" d="M71.346,82.628V63.5a1.368,1.368,0,0,0-1.365-1.372q-.052,0-.1,0h-2.87v1.7c0,.267-.167.634-.434.634H56.727c-.267,0-.4-.367-.4-.634v-1.7h-2.87A1.368,1.368,0,0,0,51.992,63.4q0,.052,0,.1V82.628a1.5,1.5,0,0,0,1.468,1.535H69.877a1.5,1.5,0,0,0,1.468-1.534ZM58.964,78.223l-2.6,2.436a.467.467,0,0,1-.334.167.534.534,0,0,1-.367-.167l-1.368-1.4a.508.508,0,0,1,.734-.7l1,1.068,2.27-2.136a.5.5,0,0,1,.667.734Zm0-5.34h0l-2.6,2.436a.467.467,0,0,1-.334.167.534.534,0,0,1-.367-.167l-1.368-1.4a.508.508,0,0,1,.734-.7l1,1.068,2.27-2.136a.5.5,0,0,1,.667.734Zm0-5.34-2.6,2.436a.467.467,0,0,1-.334.167.534.534,0,0,1-.367-.167l-1.368-1.4a.508.508,0,0,1,.734-.7l1,1.068,2.27-2.136a.5.5,0,0,1,.667.734Zm9.712,12.616H61a.5.5,0,0,1,0-1h7.676a.5.5,0,0,1,0,1Zm0-5.34H61a.5.5,0,0,1,0-1h7.676a.5.5,0,0,1,0,1Zm0-5.34H61a.5.5,0,1,1,0-1h7.676a.5.5,0,0,1,0,1Z" transform="translate(-51.988 -58.164)" fill="#4B88BC"/>
      </g>
    </g>
  </g>
</svg>
