<?xml version="1.0" encoding="utf-8"?>
<!-- Generator: Adobe Illustrator 24.2.1, SVG Export Plug-In . SVG Version: 6.00 Build 0)  -->
<svg version="1.1" id="Layer_1" xmlns="http://www.w3.org/2000/svg" xmlns:xlink="http://www.w3.org/1999/xlink" x="0px" y="0px"
	 viewBox="0 0 29.1 25.1" style="enable-background:new 0 0 29.1 25.1;" xml:space="preserve">
<style type="text/css">
	.st0{fill:#758E9B;}
</style>
<path class="st0" d="M27.7,5.9c-0.1,0-0.2,0-0.3-0.1c0-0.5,0-1,0-1.5c0.1-1-0.9-2-1.9-1.9c0,0-9.6,0-14.5,0c-0.5,0-0.7-0.2-1-0.5
	C9.8,1.4,9.5,0.9,9.2,0.5C8.8,0.1,8.5,0,8,0c-2,0-4.1,0-6.1,0C1.3,0,0.8,0.2,0.4,0.7C0.2,0.9,0.1,1.2,0,1.5c0,7.4,0,14.8,0,22.1
	c0,0,0,0.1,0.1,0.1c0.3,0.9,1,1.3,1.8,1.3c7.5,0,15,0,22.4,0c0.8,0,1.7-0.6,1.9-1.6c0.2-1.1,0.4-2.2,0.6-3.4
	c0.8-4.1,1.5-8.2,2.3-12.2C29.3,7,28.6,6,27.7,5.9z M19.3,16.1H15v4.6h-0.8v-4.6H9.8v-0.7h4.4v-4.5H15v4.5h4.4V16.1z M26.2,5.8
	c-0.2,0-0.3,0-0.4,0c-6.9,0-13.9,0-20.8,0c-1.3,0-1.9,0.6-2.1,1.8c-0.3,1.9-0.7,3.8-1,5.6c-0.2,1.1-0.4,2.2-0.6,3.2c0,0,0,0.1,0,0.2
	c0,0,0,0-0.1,0c0-2.3,0-4.6,0-6.9c0-2.6,0-5.3,0-7.9c0-0.6,0.1-0.7,0.7-0.7c2,0,4,0,6.1,0c0.2,0,0.4,0.1,0.5,0.3
	c0.2,0.3,0.3,0.5,0.5,0.8S9.3,2.7,9.5,3c0.3,0.4,0.7,0.5,1.2,0.5c4.9,0,9.8,0,14.7,0c0.8,0,0.9,0.1,0.9,0.9
	C26.2,4.9,26.2,5.3,26.2,5.8z"/>
</svg>
