<svg xmlns="http://www.w3.org/2000/svg" width="19.5" height="16.714" viewBox="0 0 19.5 16.714">
  <g id="cloud-computing" transform="translate(0 -4)">
    <path id="Path_1170" data-name="Path 1170" d="M25.313,32.179a.348.348,0,0,0-.348.348,3.134,3.134,0,1,1-3.134-3.134,3.021,3.021,0,0,1,2.546,1.393h-2.2a.348.348,0,1,0,0,.7h2.787a.363.363,0,0,0,.073-.015.375.375,0,0,0,.063-.014h0a.314.314,0,0,0,.03-.021.22.22,0,0,0,.115-.109.344.344,0,0,0,.037-.058.359.359,0,0,0,.019-.092.38.38,0,0,0,.008-.039v0h0V28.348a.348.348,0,1,0-.7,0v1.6A3.693,3.693,0,0,0,21.83,28.7a3.83,3.83,0,1,0,3.83,3.83A.348.348,0,0,0,25.313,32.179Z" transform="translate(-11.732 -15.643)" fill="#fafeff"/>
    <path id="Path_1171" data-name="Path 1171" d="M16.657,9.567a6.4,6.4,0,0,0-1.631,0,.342.342,0,0,1-.053,0,.348.348,0,0,1-.052-.693,6.652,6.652,0,0,1,1.422-.043A5.257,5.257,0,0,0,11.172,4,5.516,5.516,0,0,0,6.895,6.134,3.127,3.127,0,0,1,8.009,8.527a.348.348,0,1,1-.7,0A2.433,2.433,0,0,0,5.951,6.343l-.073-.035A2.372,2.372,0,0,0,5.587,6.2L5.55,6.186a2.448,2.448,0,0,0-.275-.062l-.081-.013a2.487,2.487,0,0,0-.319-.023A2.441,2.441,0,0,0,2.438,8.527c0,.029,0,.057,0,.085l0,.073,0,.056c0,.045-.005.09-.005.134v.219l-.2.094A4.139,4.139,0,0,0,0,12.759a3.781,3.781,0,0,0,3.776,3.777H5.589A4.53,4.53,0,0,1,10.1,12.357a4.408,4.408,0,0,1,2.089.521v-.173a1.045,1.045,0,1,1,2.089,0v2.786c0,.011,0,.021,0,.032,0,.031-.006.06-.009.09a1.1,1.1,0,0,1-.024.137c-.007.027-.016.053-.025.08a1.011,1.011,0,0,1-.055.131c-.007.014-.01.029-.018.043a1.043,1.043,0,0,1,.415.532h1.45A3.5,3.5,0,0,0,19.5,13.044,3.57,3.57,0,0,0,16.657,9.567Z" fill="#fafeff"/>
  </g>
</svg>
