<svg xmlns="http://www.w3.org/2000/svg" width="36" height="36" viewBox="0 0 36 36">
  <g id="Group_4872" data-name="Group 4872" transform="translate(-267 -372)">
    <circle id="Ellipse_169" data-name="Ellipse 169" cx="18" cy="18" r="18" transform="translate(267 372)" fill="#1bc5bd" opacity="0.12"/>
    <g id="seo-and-web_1_" data-name="seo-and-web (1)" transform="translate(274.976 380)">
      <g id="Group_4754" data-name="Group 4754" transform="translate(8.326)">
        <g id="Group_4753" data-name="Group 4753">
          <path id="Path_2242" data-name="Path 2242" d="M212.44,0a2.442,2.442,0,0,0-2.411,2.411,2.442,2.442,0,0,0,2.411,2.411,2.412,2.412,0,0,0,0-4.823Z" transform="translate(-210.029)" fill="#1bc5bd"/>
        </g>
      </g>
      <g id="Group_4756" data-name="Group 4756" transform="translate(7.14 4.823)">
        <g id="Group_4755" data-name="Group 4755">
          <path id="Path_2243" data-name="Path 2243" d="M186.259,122a3.536,3.536,0,0,1-2.632,1.186A3.623,3.623,0,0,1,180.954,122a3.531,3.531,0,0,0-.925,2.372v.593a.593.593,0,0,0,.593.593h5.969a.593.593,0,0,0,.593-.593v-.593A3.531,3.531,0,0,0,186.259,122Z" transform="translate(-180.029 -122)" fill="#1bc5bd"/>
        </g>
      </g>
      <g id="Group_4758" data-name="Group 4758" transform="translate(0.024 11.485)">
        <g id="Group_4757" data-name="Group 4757" transform="translate(0)">
          <path id="Path_2244" data-name="Path 2244" d="M5.753,297.247l-3.022-6.058a1.186,1.186,0,0,0-1.588-.533l-.79.391a.593.593,0,0,0-.267.8l3.558,7.116a.594.594,0,0,0,.794.266l.78-.386A1.186,1.186,0,0,0,5.753,297.247Z" transform="translate(-0.024 -290.532)" fill="#1bc5bd"/>
        </g>
      </g>
      <g id="Group_4760" data-name="Group 4760" transform="translate(3.542 9.348)">
        <g id="Group_4759" data-name="Group 4759">
          <path id="Path_2245" data-name="Path 2245" d="M105.252,236.922a1.182,1.182,0,0,0-1.565.154l-3.242,3.985a1.434,1.434,0,0,1-.878.379H96.8a.593.593,0,1,1,0-1.186h2.372a1.186,1.186,0,0,0,0-2.372H96.069c-.3,0-.443-.187-.676-.391a4.126,4.126,0,0,0-3.681-.9,4.326,4.326,0,0,0-1.821.909l-.018-.014-.858.755L92.387,245h6.789a3.572,3.572,0,0,0,2.846-1.423l3.479-4.981A1.2,1.2,0,0,0,105.252,236.922Z" transform="translate(-89.016 -236.479)" fill="#1bc5bd"/>
        </g>
      </g>
    </g>
  </g>
</svg>
