<svg xmlns="http://www.w3.org/2000/svg" width="27.997" height="28" viewBox="0 0 27.997 28">
  <g id="seo-and-web_1_" data-name="seo-and-web (1)" transform="translate(-0.024)">
    <g id="Group_4754" data-name="Group 4754" transform="translate(11.509)">
      <g id="Group_4753" data-name="Group 4753">
        <path id="Path_2242" data-name="Path 2242" d="M213.365,0a3.379,3.379,0,0,0-3.336,3.336,3.379,3.379,0,0,0,3.336,3.336,3.336,3.336,0,0,0,0-6.672Z" transform="translate(-210.029)" fill="#1bc5bd"/>
      </g>
    </g>
    <g id="Group_4756" data-name="Group 4756" transform="translate(9.868 6.672)">
      <g id="Group_4755" data-name="Group 4755">
        <path id="Path_2243" data-name="Path 2243" d="M188.647,122a4.892,4.892,0,0,1-3.642,1.641,5.012,5.012,0,0,1-3.7-1.641,4.884,4.884,0,0,0-1.28,3.281v.82a.82.82,0,0,0,.82.82h8.258a.82.82,0,0,0,.82-.82v-.82A4.884,4.884,0,0,0,188.647,122Z" transform="translate(-180.029 -122)" fill="#1bc5bd"/>
      </g>
    </g>
    <g id="Group_4758" data-name="Group 4758" transform="translate(0.024 15.888)">
      <g id="Group_4757" data-name="Group 4757" transform="translate(0)">
        <path id="Path_2244" data-name="Path 2244" d="M7.95,299.821l-4.18-8.381a1.641,1.641,0,0,0-2.2-.738l-1.093.541a.821.821,0,0,0-.369,1.1l4.922,9.844a.821.821,0,0,0,1.1.368l1.079-.534A1.641,1.641,0,0,0,7.95,299.821Z" transform="translate(-0.024 -290.532)" fill="#1bc5bd"/>
      </g>
    </g>
    <g id="Group_4760" data-name="Group 4760" transform="translate(4.891 12.932)">
      <g id="Group_4759" data-name="Group 4759">
        <path id="Path_2245" data-name="Path 2245" d="M111.477,237.092a1.635,1.635,0,0,0-2.166.213l-4.484,5.513a1.983,1.983,0,0,1-1.214.525H99.79a.82.82,0,0,1,0-1.641h3.281a1.641,1.641,0,0,0,0-3.281h-4.3c-.409,0-.613-.259-.935-.541a5.708,5.708,0,0,0-5.092-1.247,5.985,5.985,0,0,0-2.519,1.257l-.024-.02-1.187,1.044,4.663,9.35h9.393a4.942,4.942,0,0,0,3.938-1.969l4.812-6.891A1.653,1.653,0,0,0,111.477,237.092Z" transform="translate(-89.016 -236.479)" fill="#1bc5bd"/>
      </g>
    </g>
  </g>
</svg>
