<svg xmlns="http://www.w3.org/2000/svg" width="35.074" height="35.2" viewBox="0 0 35.074 35.2">
  <g id="smartphone-online_learning-hand-document-learning" data-name="smartphone-online learning-hand-document-learning" transform="translate(-2.216 -2)">
    <path id="Path_331" data-name="Path 331" d="M22,6h1.173V7.173H22Z" transform="translate(-8.177 -1.653)" fill="#20ac9e"/>
    <path id="Path_332" data-name="Path 332" d="M26,6H37.733V7.173H26Z" transform="translate(-9.831 -1.653)" fill="#20ac9e"/>
    <path id="Path_333" data-name="Path 333" d="M22,10H36.08v1.173H22Z" transform="translate(-8.177 -3.307)" fill="#20ac9e"/>
    <path id="Path_334" data-name="Path 334" d="M22,14H36.08v1.173H22Z" transform="translate(-8.177 -4.96)" fill="#20ac9e"/>
    <path id="Path_335" data-name="Path 335" d="M22,18H36.08v1.173H22Z" transform="translate(-8.177 -6.613)" fill="#20ac9e"/>
    <path id="Path_336" data-name="Path 336" d="M22,22H36.08v1.173H22Z" transform="translate(-8.177 -8.267)" fill="#20ac9e"/>
    <path id="Path_337" data-name="Path 337" d="M35.53,23.12a1.76,1.76,0,0,0-.587.106V13.733a1.765,1.765,0,0,0-1.76-1.76H30.249V3.76A1.765,1.765,0,0,0,28.489,2H13.236a1.765,1.765,0,0,0-1.76,1.76v8.213H8.543a1.765,1.765,0,0,0-1.76,1.76v.851L3.6,16.573A2.919,2.919,0,0,0,2.23,19.342L3.262,30.16v6.453a.587.587,0,0,0,.587.587h8.213a.587.587,0,0,0,.587-.587V29.961a2.93,2.93,0,0,0-.857-2.077l-.663-.657h12.08V30.16a.551.551,0,0,0,.111.34l2.822,3.954v2.159a.587.587,0,0,0,.587.587h8.213a.587.587,0,0,0,.587-.587V34.373l1.725-4.594a.6.6,0,0,0,.035-.205V24.88a1.765,1.765,0,0,0-1.76-1.76Zm-5.28-9.973h2.933a.587.587,0,0,1,.587.587v9.492a1.76,1.76,0,0,0-.587-.106,1.739,1.739,0,0,0-1.173.452,1.739,1.739,0,0,0-1.173-.452,1.76,1.76,0,0,0-.587.106ZM12.649,3.76a.587.587,0,0,1,.587-.587H28.489a.587.587,0,0,1,.587.587V15.6a1.723,1.723,0,0,0-1.889.481H12.649ZM11.476,36.027H4.436V34.854h7.04ZM9.3,27.057l1.66,1.66a1.734,1.734,0,0,1,.516,1.244v3.72H4.436V30.108L3.4,19.231a1.747,1.747,0,0,1,.821-1.66l2.564-1.607v8.049a.579.579,0,0,0,.364.54.587.587,0,0,0,.639-.123l3.59-3.6a1.173,1.173,0,1,1,1.654,1.66L9.3,26.224a.6.6,0,0,0,0,.833Zm14.239-1H11.13l2.734-2.728A2.35,2.35,0,1,0,10.543,20L7.956,22.592V13.733a.587.587,0,0,1,.587-.587h2.933v3.52a.587.587,0,0,0,.587.587H26.729v7.955a2.292,2.292,0,0,0-1.173-.329,2.335,2.335,0,0,0-2.018,1.173Zm10.818,9.973h-7.04V34.854h7.04Zm1.76-6.559L34.538,33.68H27.029l-2.646-3.708V27.227a1.173,1.173,0,1,1,2.347,0v1.76H27.9V17.254a.587.587,0,1,1,1.173,0V28.987h1.173V24.88a.587.587,0,1,1,1.173,0v4.107H32.6V24.88a.587.587,0,0,1,1.173,0v4.107h1.173V24.88a.587.587,0,0,1,1.173,0Z" fill="#20ac9e"/>
  </g>
</svg>
