<?xml version="1.0" encoding="utf-8"?>
<!-- Generator: Adobe Illustrator 25.0.0, SVG Export Plug-In . SVG Version: 6.00 Build 0)  -->
<svg version="1.1" id="Layer_1" xmlns="http://www.w3.org/2000/svg" xmlns:xlink="http://www.w3.org/1999/xlink" x="0px" y="0px"
	 viewBox="0 0 561 561" style="enable-background:new 0 0 561 561;" xml:space="preserve">
<style type="text/css">
	.st0{fill:#F7A532;}
	.st1{fill:#FFFFFF;}
</style>
<circle class="st0" cx="280.5" cy="280.5" r="273.5"/>
<g id="pie-chart_2_" transform="translate(0 -0.503)">
	<g id="Group_3006" transform="translate(0 5.025)">
		<g id="Group_3005">
			<path id="Path_1194" class="st1" d="M415,280.6H275.9V141.1c0-5.1-4.1-9.1-9.2-9.1c-41.8-0.1-81.9,16.5-111.4,46.1
				c-61.4,61.6-61.3,161.2,0.3,222.6c29.5,29.4,69.4,46,111.1,46c86.8,0.1,157.2-70.1,157.4-156.9c0-0.1,0-0.2,0-0.3
				C424,284.6,420,280.5,415,280.6L415,280.6z M365.1,387.9c-54.5,54.2-142.6,54.1-196.9-0.4c-26-26.1-40.5-61.3-40.6-98.1
				c0.1-36.9,14.7-72.3,40.7-98.4c23.8-23.9,55.6-38.3,89.3-40.4v138.8c-0.1,5.1,4,9.3,9.1,9.5h138.7
				C403.1,332.4,388.8,364,365.1,387.9z"/>
		</g>
	</g>
	<g id="Group_3008" transform="translate(29.772 0.503)">
		<g id="Group_3007" transform="translate(0 0)">
			<path id="Path_1195" class="st1" d="M375.9,155.8h-0.1l0,0c-29.6-29.4-69.6-45.9-111.3-46c-5.1,0-9.2,4.1-9.2,9.1v148.2
				c0.1,4.9,4.1,8.8,9,8.8c0.1,0,0.1,0,0.2,0h148.2c5,0.1,9.1-3.9,9.1-8.8l0,0V267C421.8,225.3,405.3,185.3,375.9,155.8z
				 M273.6,257.6V128.4c33.6,2.1,65.4,16.4,89.3,40.2c23.7,23.9,38,55.5,40.4,89L273.6,257.6z"/>
		</g>
	</g>
</g>
</svg>
