<?xml version="1.0" encoding="utf-8"?>
<!-- Generator: Adobe Illustrator 25.0.0, SVG Export Plug-In . SVG Version: 6.00 Build 0)  -->
<svg version="1.1" id="Layer_1" xmlns="http://www.w3.org/2000/svg" xmlns:xlink="http://www.w3.org/1999/xlink" x="0px" y="0px"
	 viewBox="0 0 180 180" style="enable-background:new 0 0 180 180;" xml:space="preserve">
<style type="text/css">
	.st0{fill:#39AFD1;}
</style>
<path class="st0" d="M153,0H27C12.1,0,0,12.1,0,27v126c0,14.9,12.1,27,27,27h126c14.9,0,27-12.1,27-27V27C180,12.1,167.9,0,153,0z
	 M27,18h126c5,0,9,4,9,9v27H18V27C18,22,22,18,27,18z M72,108V72h36v36H72z M108,126v36H72v-36H108z M54,108H18V72h36V108z M126,72
	h36v36h-36V72z M18,153v-27h36v36H27C22,162,18,158,18,153z M153,162h-27v-36h36v27C162,158,158,162,153,162z"/>
</svg>
