<?xml version="1.0" encoding="utf-8"?>
<!-- Generator: Adobe Illustrator 24.1.3, SVG Export Plug-In . SVG Version: 6.00 Build 0)  -->
<svg version="1.1" id="Layer_1" xmlns="http://www.w3.org/2000/svg" xmlns:xlink="http://www.w3.org/1999/xlink" x="0px" y="0px"
	 viewBox="0 0 477.3 488.2" style="enable-background:new 0 0 477.3 488.2;" xml:space="preserve">
<style type="text/css">
	.st0{fill:#39AFD1;}
</style>
<g id="calendar_6_" transform="translate(-5.411)">
	<g id="Group_5089">
		<path id="Path_2407" class="st0" d="M177.9,269.3c0-6.1-5-11.1-11.1-11.1c0,0,0,0,0,0h-38.7c-6.1,0-11.1,5-11.1,11.1V308
			c0,6.1,5,11.1,11.1,11.1c0,0,0,0,0,0h38.7c6.1,0,11.1-5,11.1-11.1c0,0,0,0,0,0L177.9,269.3L177.9,269.3z"/>
		<path id="Path_2408" class="st0" d="M274.5,269.3c0-6.1-5-11.1-11.1-11.1h-38.7c-6.1,0-11.1,5-11.1,11.1V308
			c0,6.1,5,11.1,11.1,11.1c0,0,0,0,0,0h38.7c6.1,0,11.1-5,11.1-11.1V269.3z"/>
		<path id="Path_2409" class="st0" d="M371.1,269.3c0-6.1-5-11.1-11.1-11.1h-38.7c-6.1,0-11.1,5-11.1,11.1c0,0,0,0,0,0V308
			c0,6.1,5,11.1,11.1,11.1c0,0,0,0,0,0H360c6.1,0,11.1-5,11.1-11.1c0,0,0,0,0,0V269.3z"/>
		<path id="Path_2410" class="st0" d="M177.9,366c0-6.1-5-11.1-11.1-11.1c0,0,0,0,0,0h-38.7c-6.1,0-11.1,5-11.1,11.1c0,0,0,0,0,0
			v38.6c0,6.1,5,11.1,11.1,11.1l0,0h38.7c6.1,0,11.1-5,11.1-11.1c0,0,0,0,0,0L177.9,366L177.9,366z"/>
		<path id="Path_2411" class="st0" d="M274.5,366c0-6.1-5-11.1-11.1-11.1c0,0,0,0,0,0h-38.7c-6.1,0-11.1,5-11.1,11.1c0,0,0,0,0,0
			v38.6c0,6.1,5,11.1,11.1,11.1c0,0,0,0,0,0h38.7c6.1,0,11.1-5,11.1-11.1V366z"/>
		<path id="Path_2412" class="st0" d="M371.1,366c0-6.1-5-11.1-11.1-11.1c0,0,0,0,0,0h-38.7c-6.1,0-11.1,5-11.1,11.1c0,0,0,0,0,0
			v38.6c0,6.1,5,11.1,11.1,11.1c0,0,0,0,0,0H360c6.1,0,11.1-5,11.1-11.1V366z"/>
		<path id="Path_2413" class="st0" d="M440.3,54.4v59c0,26.6-21.6,48.2-48.3,48.2c0,0-0.1,0-0.1,0h-30.5
			c-26.7,0-48.6-21.5-48.6-48.2V54.1H175.4v59.3c0,26.7-21.9,48.2-48.6,48.2H96.2c-26.6,0.1-48.3-21.5-48.3-48.1c0,0,0-0.1,0-0.1
			v-59C24.3,55.1,5.5,74.5,5.4,98.1v346.1c0,24.2,19.5,43.9,43.8,44H439c24.2-0.1,43.7-19.8,43.8-44V98.1
			C482.6,74.5,463.9,55.1,440.3,54.4z M426.1,422.6c0,10.4-8.5,18.9-18.9,18.9h-327c-10.4,0-18.9-8.5-18.9-18.9V243.8
			c0-10.4,8.5-18.9,18.9-18.9c0,0,0,0,0,0h327c10.4,0,18.9,8.5,18.9,18.9L426.1,422.6L426.1,422.6z"/>
		<path id="Path_2414" class="st0" d="M96.1,129.9h30.2c9.2,0,16.6-7.4,16.6-16.6c0,0,0,0,0,0V16.6c0-9.2-7.4-16.6-16.6-16.6
			c0,0,0,0,0,0H96.1C87,0,79.6,7.4,79.6,16.6c0,0,0,0,0,0v96.8C79.5,122.5,87,129.9,96.1,129.9C96.1,129.9,96.1,129.9,96.1,129.9z"
			/>
		<path id="Path_2415" class="st0" d="M361,129.9h30.2c9.2,0,16.6-7.4,16.6-16.6c0,0,0,0,0,0V16.6c0-9.2-7.4-16.6-16.6-16.6
			c0,0,0,0,0,0H361c-9.2,0-16.6,7.4-16.6,16.6c0,0,0,0,0,0v96.8C344.5,122.5,351.9,129.9,361,129.9C361,129.9,361,129.9,361,129.9z"
			/>
	</g>
</g>
</svg>
