<?xml version="1.0" encoding="utf-8"?>
<!-- Generator: Adobe Illustrator 24.3.0, SVG Export Plug-In . SVG Version: 6.00 Build 0)  -->
<svg version="1.1" id="Layer_1" xmlns="http://www.w3.org/2000/svg" xmlns:xlink="http://www.w3.org/1999/xlink" x="0px" y="0px"
	 viewBox="0 0 300 300" style="enable-background:new 0 0 300 300;" xml:space="preserve">
<style type="text/css">
	.st0{fill:#F64E60;}
</style>
<g>
	<rect x="123.7" y="126.5" class="st0" width="14" height="77.2"/>
	<rect x="162.2" y="126.5" class="st0" width="14" height="77.2"/>
	<path class="st0" d="M165.8,52.3h-31.6c-10.3,0-18.7,8.4-18.7,18.7l0,0v11.5H70.3c-3.9,0-7,3.1-7,7s3.1,7,7,7h12.5L89.6,219
		c0.9,16.1,14.2,28.7,30.4,28.7h60.1c16.1,0,29.5-12.6,30.4-28.7l6.8-122.4h12.5c3.9,0,7-3.1,7-7s-3.1-7-7-7h-45.2V71
		C184.5,60.7,176.1,52.3,165.8,52.3L165.8,52.3z M129.5,71c0-2.6,2.1-4.7,4.7-4.7h31.6c2.6,0,4.7,2.1,4.7,4.7v11.5h-40.9L129.5,71z
		 M203.2,96.6l-6.8,121.7c-0.5,8.7-7.7,15.5-16.4,15.4h-60.2c-8.7,0-15.9-6.8-16.4-15.4L96.8,96.6H203.2z"/>
</g>
</svg>
