<?xml version="1.0" encoding="utf-8"?>
<!-- Generator: Adobe Illustrator 24.1.2, SVG Export Plug-In . SVG Version: 6.00 Build 0)  -->
<svg version="1.1" id="Layer_1" xmlns="http://www.w3.org/2000/svg" xmlns:xlink="http://www.w3.org/1999/xlink" x="0px" y="0px"
	 viewBox="0 0 1070 322.1" style="enable-background:new 0 0 1070 322.1;" xml:space="preserve">
<style type="text/css">
	.st0{fill:#C4514E;}
	.st1{fill:#FFFFFF;}
	.st2{font-family:'Calibri';}
	.st3{font-size:225.9064px;}
</style>
<path class="st0" d="M909,322.1H161c-88.6,0-161-72.5-161-161v0C0,72.5,72.5,0,161,0L909,0c88.6,0,161,72.5,161,161v0
	C1070,249.6,997.5,322.1,909,322.1z"/>
<text transform="matrix(1 0 0 1 338.6005 228.4224)" class="st1 st2 st3">Delete</text>
<g>
	<g>
		<g>
			<path class="st1" d="M239.2,84h-34.4V71c0-3.5-2.8-6.3-6.3-6.3h-46c-3.5,0-6.3,2.8-6.3,6.3v13h-34.4c-3.5,0-6.3,2.8-6.3,6.3v19.3
				c0,3.5,2.8,6.3,6.3,6.3h127.4c3.5,0,6.3-2.8,6.3-6.3V90.3C245.5,86.9,242.6,84,239.2,84z M192.2,84h-33.5v-6.8h33.5V84z"/>
		</g>
	</g>
	<g>
		<g>
			<path class="st1" d="M114.2,128.5l5.2,122.9c0.1,3.4,2.9,6,6.3,6h99.5c3.4,0,6.1-2.7,6.3-6l5.2-122.9L114.2,128.5L114.2,128.5z
				 M156.5,231.8c0,3.5-2.8,6.3-6.3,6.3c-3.5,0-6.3-2.8-6.3-6.3V154c0-3.5,2.8-6.3,6.3-6.3c3.5,0,6.3,2.8,6.3,6.3V231.8z
				 M181.8,231.8c0,3.5-2.8,6.3-6.3,6.3s-6.3-2.8-6.3-6.3V154c0-3.5,2.8-6.3,6.3-6.3s6.3,2.8,6.3,6.3V231.8z M207,231.8
				c0,3.5-2.8,6.3-6.3,6.3c-3.5,0-6.3-2.8-6.3-6.3V154c0-3.5,2.8-6.3,6.3-6.3c3.5,0,6.3,2.8,6.3,6.3L207,231.8L207,231.8z"/>
		</g>
	</g>
</g>
</svg>
