<svg xmlns="http://www.w3.org/2000/svg" width="24.401" height="24.4" viewBox="0 0 24.401 24.4">
  <g id="teamwork" transform="translate(0.001 -0.005)">
    <g id="Group_2480" data-name="Group 2480" transform="translate(9.149 0.005)">
      <g id="Group_2479" data-name="Group 2479" transform="translate(0 0)">
        <circle id="Ellipse_147" data-name="Ellipse 147" cx="3.05" cy="3.05" r="3.05" fill="#34c7c2"/>
      </g>
    </g>
    <g id="Group_2482" data-name="Group 2482" transform="translate(7.625 7.63)">
      <g id="Group_2481" data-name="Group 2481">
        <path id="Path_1179" data-name="Path 1179" d="M169.144,166.77l-.692-5.392A1.519,1.519,0,0,0,166.936,160H166.1a.768.768,0,0,0-.54.223l-.985.985-.985-.985a.768.768,0,0,0-.54-.223h-.834a1.516,1.516,0,0,0-1.516,1.353l-.694,5.414a.764.764,0,0,0,.756.859h.824l.637,7.777a1.52,1.52,0,0,0,1.517,1.372h1.67a1.524,1.524,0,0,0,1.519-1.386l.636-7.764h.822a.761.761,0,0,0,.572-.259A.751.751,0,0,0,169.144,166.77Z" transform="translate(-160 -160.005)" fill="#34c7c2"/>
      </g>
    </g>
    <g id="Group_2484" data-name="Group 2484" transform="translate(16.774 0.005)">
      <g id="Group_2483" data-name="Group 2483" transform="translate(0 0)">
        <circle id="Ellipse_148" data-name="Ellipse 148" cx="3.05" cy="3.05" r="3.05" fill="#34c7c2"/>
      </g>
    </g>
    <g id="Group_2486" data-name="Group 2486" transform="translate(1.524 0.005)">
      <g id="Group_2485" data-name="Group 2485" transform="translate(0 0)">
        <path id="Path_1180" data-name="Path 1180" d="M35.049,0a3.05,3.05,0,1,0,3.05,3.05A3.053,3.053,0,0,0,35.049,0Z" transform="translate(-31.999 -0.005)" fill="#34c7c2"/>
      </g>
    </g>
    <g id="Group_2488" data-name="Group 2488" transform="translate(16.968 7.63)">
      <g id="Group_2487" data-name="Group 2487">
        <path id="Path_1181" data-name="Path 1181" d="M363.488,166.77l-.692-5.391a1.518,1.518,0,0,0-1.516-1.374h-.836a.768.768,0,0,0-.54.223l-.985.985-.985-.985a.767.767,0,0,0-.538-.223h-.836a1.452,1.452,0,0,0-.27.05,2.968,2.968,0,0,1,.4,1.147l.691,5.374a2.282,2.282,0,0,1-.558,1.809,2.21,2.21,0,0,1-.756.537l.506,4.961a1.52,1.52,0,0,0,1.517,1.372h1.67a1.524,1.524,0,0,0,1.519-1.386l.634-6.239h.822a.761.761,0,0,0,.572-.259A.751.751,0,0,0,363.488,166.77Z" transform="translate(-356.063 -160.005)" fill="#34c7c2"/>
      </g>
    </g>
    <g id="Group_2490" data-name="Group 2490" transform="translate(-0.001 7.63)">
      <g id="Group_2489" data-name="Group 2489" transform="translate(0)">
        <path id="Path_1182" data-name="Path 1182" d="M6.67,168.377a2.284,2.284,0,0,1-.552-1.8l.694-5.415a2.819,2.819,0,0,1,.38-1.11A1.434,1.434,0,0,0,6.935,160H6.1a.768.768,0,0,0-.54.223l-.985.985-.985-.985A.767.767,0,0,0,3.051,160H2.215A1.516,1.516,0,0,0,.7,161.358l-.694,5.414a.764.764,0,0,0,.756.859h.824l.637,6.252a1.52,1.52,0,0,0,1.517,1.373H5.41a1.524,1.524,0,0,0,1.519-1.386l.506-4.949A2.287,2.287,0,0,1,6.67,168.377Z" transform="translate(0.001 -160.005)" fill="#34c7c2"/>
      </g>
    </g>
  </g>
</svg>
