<svg xmlns="http://www.w3.org/2000/svg" width="512" height="512" viewBox="0 0 512 512">
  <g id="Group_4643" data-name="Group 4643" transform="translate(-7968 -3712)">
    <g id="Group_4641" data-name="Group 4641" transform="translate(7885.486 3777.528)">
      <g id="Group_4640" data-name="Group 4640" transform="translate(256.514 32.472)">
        <path id="Path_2142" data-name="Path 2142" d="M412.889,249.626a23.446,23.446,0,0,0-2.231-1.9,24.267,24.267,0,0,0-31.067,3.4l-7.386,7.386a35.17,35.17,0,0,0-6.331,8.675L361.3,275.98V57.459a24.267,24.267,0,0,0-19.461-24.736A23.448,23.448,0,0,0,315,56.17V275.629l-3.165-6.917a35.155,35.155,0,0,0-6.917-9.965l-7.737-7.737a24.267,24.267,0,0,0-31.067-3.4,23.444,23.444,0,0,0-3.048,35.17L321.678,341.4a23.446,23.446,0,0,0,33.158.018l.018-.018,58.616-58.616A23.447,23.447,0,0,0,412.889,249.626Z" transform="translate(-256.514 -32.472)" fill="#c4514e"/>
      </g>
    </g>
    <g id="Group_2544" data-name="Group 2544" transform="translate(7968 3712)">
      <g id="Group_2543" data-name="Group 2543">
        <path id="Path_1292" data-name="Path 1292" d="M256,0C114.51,0,0,114.5,0,256S114.5,512,256,512,512,397.5,512,256,397.5,0,256,0Zm0,477.867C133.663,477.867,34.133,378.338,34.133,256S133.663,34.133,256,34.133,477.867,133.663,477.867,256,378.337,477.867,256,477.867Z" fill="#f3ab29"/>
      </g>
    </g>
    <g id="Group_2544-2" data-name="Group 2544" transform="translate(7968 3712)">
      <g id="Group_2543-2" data-name="Group 2543">
        <path id="Path_1292-2" data-name="Path 1292" d="M256,0C114.51,0,0,114.5,0,256S114.5,512,256,512,512,397.5,512,256,397.5,0,256,0Zm0,477.867C133.663,477.867,34.133,378.338,34.133,256S133.663,34.133,256,34.133,477.867,133.663,477.867,256,378.337,477.867,256,477.867Z" fill="#c4514e"/>
      </g>
    </g>
  </g>
</svg>
