<?xml version="1.0" encoding="utf-8"?>
<!-- Generator: Adobe Illustrator 24.1.2, SVG Export Plug-In . SVG Version: 6.00 Build 0)  -->
<svg version="1.1" id="Capa_1" xmlns="http://www.w3.org/2000/svg" xmlns:xlink="http://www.w3.org/1999/xlink" x="0px" y="0px"
	 viewBox="0 0 1070 322.1" style="enable-background:new 0 0 1070 322.1;" xml:space="preserve">
<style type="text/css">
	.st0{fill:#FF9800;}
	.st1{fill:#FFFFFF;}
	.st2{font-family:'Calibri';}
	.st3{font-size:225.9064px;}
</style>
<path class="st0" d="M909,322.1H161c-88.6,0-161-72.5-161-161v0C0,72.5,72.5,0,161,0L909,0c88.6,0,161,72.5,161,161v0
	C1070,249.6,997.5,322.1,909,322.1z"/>
<g>
	<g>
		<polygon class="st1" points="121.9,218.1 121.9,258.8 162.6,258.8 282.9,138.6 242.1,97.8 		"/>
		<path class="st1" d="M314.3,91.8l-25.4-25.4c-4.2-4.2-11.1-4.2-15.4,0l-19.9,19.9l40.7,40.7l19.9-19.9
			C318.5,102.9,318.5,96,314.3,91.8z"/>
	</g>
</g>
<text transform="matrix(1 0 0 1 388.404 228.4224)" class="st1 st2 st3">Edit</text>
</svg>
