<svg xmlns="http://www.w3.org/2000/svg" width="228.362" height="297" viewBox="0 0 228.362 297">
  <g id="manager" transform="translate(-34.32)">
    <path id="Path_1264" data-name="Path 1264" d="M148.51,117.216A58.608,58.608,0,1,0,89.9,58.608,58.674,58.674,0,0,0,148.51,117.216Z" fill="#e36537"/>
    <path id="Path_1265" data-name="Path 1265" d="M227.154,145.618c-.025-.008-.073-.026-.1-.032-7.631-1.864-31-5.133-31-5.133a5.194,5.194,0,0,0-6.406,3.188L154.477,240.15a6.35,6.35,0,0,1-11.932,0l-35.174-96.509a5.2,5.2,0,0,0-4.876-3.42c-.5,0-24.531,3.369-32.53,5.358-21.858,5.435-35.645,26.929-35.645,49.329v80.3A21.79,21.79,0,0,0,56.11,297H240.892a21.79,21.79,0,0,0,21.79-21.79V194.641a51.566,51.566,0,0,0-35.528-49.023Z" fill="#e36537"/>
    <path id="Path_1266" data-name="Path 1266" d="M161.775,138.613a7.473,7.473,0,0,0-5.532-2.3H140.758a7.476,7.476,0,0,0-5.532,2.3,7.183,7.183,0,0,0-.946,8.462l8.278,12.479-3.875,32.69,7.631,20.3a2.328,2.328,0,0,0,4.375,0l7.631-20.3-3.875-32.69,8.278-12.479A7.186,7.186,0,0,0,161.775,138.613Z" fill="#e36537"/>
  </g>
</svg>
