<svg xmlns="http://www.w3.org/2000/svg" width="18.657" height="18.62" viewBox="0 0 18.657 18.62">
  <g id="internet" transform="translate(0 -0.316)">
    <path id="Path_1208" data-name="Path 1208" d="M231.816,348.213c1.427-.2,2.677-1.692,3.465-3.891a16.935,16.935,0,0,0-3.465-.408Zm0,0" transform="translate(-222.154 -329.277)" fill="#4B88BC"/>
    <path id="Path_1209" data-name="Path 1209" d="M279.788,360.991c.084-.024.168-.049.252-.076s.14-.047.209-.071.164-.057.245-.088.138-.054.207-.082l.237-.1c.069-.03.137-.062.2-.093s.154-.073.23-.112l.2-.1q.112-.06.223-.123c.067-.038.131-.076.2-.115l.216-.133c.064-.041.128-.082.191-.125s.14-.1.209-.146l.184-.133c.067-.051.135-.1.2-.158s.119-.094.177-.143.13-.113.2-.17.114-.1.169-.152.126-.121.188-.182.108-.105.161-.16l.029-.031a11.207,11.207,0,0,0-2.285-.879,8.274,8.274,0,0,1-2.131,3.46l.081-.02C279.649,361.034,279.719,361.012,279.788,360.991Zm0,0" transform="translate(-267.847 -342.404)" fill="#4B88BC"/>
    <path id="Path_1210" data-name="Path 1210" d="M340.23,231.684h-4a17.293,17.293,0,0,1-.673,4.613,11.6,11.6,0,0,1,2.531,1.007A9.316,9.316,0,0,0,340.23,231.684Zm0,0" transform="translate(-321.573 -221.724)" fill="#4B88BC"/>
    <path id="Path_1211" data-name="Path 1211" d="M231.816,113.391h4.33a16.681,16.681,0,0,0-.656-4.449,17.563,17.563,0,0,1-3.674.438Zm0,0" transform="translate(-222.154 -104.098)" fill="#4B88BC"/>
    <path id="Path_1212" data-name="Path 1212" d="M231.816.316v4.3a16.947,16.947,0,0,0,3.465-.408c-.787-2.2-2.038-3.688-3.465-3.891Zm0,0" transform="translate(-222.154)" fill="#4B88BC"/>
    <path id="Path_1213" data-name="Path 1213" d="M231.816,235.694a17.575,17.575,0,0,1,3.674.438,16.682,16.682,0,0,0,.656-4.449h-4.33Zm0,0" transform="translate(-222.153 -221.724)" fill="#4B88BC"/>
    <path id="Path_1214" data-name="Path 1214" d="M338.089,80.844a11.6,11.6,0,0,1-2.531,1.007,17.293,17.293,0,0,1,.673,4.613h4a9.319,9.319,0,0,0-2.141-5.62Zm0,0" transform="translate(-321.572 -77.171)" fill="#4B88BC"/>
    <path id="Path_1215" data-name="Path 1215" d="M283.876,9.377l-.029-.031c-.053-.054-.107-.107-.161-.16s-.124-.123-.187-.182-.112-.1-.169-.151-.129-.115-.2-.17-.117-.1-.175-.142-.135-.108-.2-.159-.121-.089-.183-.133-.14-.1-.211-.148-.126-.083-.189-.123-.144-.092-.218-.136-.129-.077-.194-.114-.149-.084-.225-.124-.133-.07-.2-.1-.154-.076-.233-.113-.134-.063-.2-.093-.159-.067-.238-.1-.137-.056-.206-.082-.163-.06-.245-.088-.139-.049-.209-.071-.167-.052-.252-.076c-.069-.02-.139-.041-.209-.06l-.081-.02a8.275,8.275,0,0,1,2.131,3.46,11.19,11.19,0,0,0,2.287-.88Zm0,0" transform="translate(-267.809 -6.21)" fill="#4B88BC"/>
    <path id="Path_1216" data-name="Path 1216" d="M0,86.464H4a17.3,17.3,0,0,1,.673-4.613,11.582,11.582,0,0,1-2.53-1.007A9.316,9.316,0,0,0,0,86.464Zm0,0" transform="translate(0 -77.171)" fill="#4B88BC"/>
    <path id="Path_1217" data-name="Path 1217" d="M136.159,348.213v-4.3a16.948,16.948,0,0,0-3.465.408C133.482,346.521,134.733,348.01,136.159,348.213Zm0,0" transform="translate(-127.164 -329.276)" fill="#4B88BC"/>
    <path id="Path_1218" data-name="Path 1218" d="M116.251,231.684h-4.33a16.675,16.675,0,0,0,.656,4.449,17.552,17.552,0,0,1,3.674-.438Zm0,0" transform="translate(-107.256 -221.724)" fill="#4B88BC"/>
    <path id="Path_1219" data-name="Path 1219" d="M136.159.316c-1.427.2-2.678,1.692-3.465,3.891a16.924,16.924,0,0,0,3.465.408Zm0,0" transform="translate(-127.164)" fill="#4B88BC"/>
    <path id="Path_1220" data-name="Path 1220" d="M116.252,109.379a17.563,17.563,0,0,1-3.674-.438,16.674,16.674,0,0,0-.656,4.449h4.33Zm0,0" transform="translate(-107.257 -104.097)" fill="#4B88BC"/>
    <path id="Path_1221" data-name="Path 1221" d="M66.606,6.789l-.081.02c-.071.019-.14.04-.211.06s-.167.049-.251.076-.141.047-.21.072-.163.057-.244.088-.138.054-.207.083l-.237.1c-.069.03-.137.062-.2.093s-.154.073-.23.112l-.2.1q-.112.06-.222.123t-.2.115c-.072.044-.144.089-.215.133s-.128.082-.191.125-.14.1-.209.146l-.184.134c-.068.051-.133.1-.2.158s-.119.094-.177.143-.13.112-.194.169-.114.1-.17.153-.125.12-.187.181-.108.106-.161.16l-.029.031a11.2,11.2,0,0,0,2.285.879,8.272,8.272,0,0,1,2.13-3.458Zm0,0" transform="translate(-59.599 -6.203)" fill="#4B88BC"/>
    <path id="Path_1222" data-name="Path 1222" d="M62.418,358.632c.062.061.124.123.187.182s.112.1.169.151.129.115.2.17.116.1.175.142.133.108.2.16.121.089.182.134.14.1.211.148.126.083.189.123.144.092.218.136.129.077.194.114.149.084.225.124l.2.1c.077.039.154.076.233.113s.134.062.2.093.159.067.238.1.137.056.206.082.163.06.245.088.139.049.209.071.167.052.252.076c.069.02.139.041.209.06l.081.02a8.276,8.276,0,0,1-2.131-3.461,11.2,11.2,0,0,0-2.285.88l.029.031c.05.054.1.106.158.159Zm0,0" transform="translate(-59.637 -342.356)" fill="#4B88BC"/>
    <path id="Path_1223" data-name="Path 1223" d="M2.141,237.3a11.6,11.6,0,0,1,2.53-1.007A17.3,17.3,0,0,1,4,231.683H0a9.318,9.318,0,0,0,2.141,5.62Zm0,0" transform="translate(0 -221.723)" fill="#4B88BC"/>
  </g>
</svg>
