<svg xmlns="http://www.w3.org/2000/svg" width="249.01" height="309.029" viewBox="0 0 249.01 309.029">
  <g id="excellence" transform="translate(-232.26 -66.077)">
    <path id="Path_1225" data-name="Path 1225" d="M314.35,279.621c-1.278-.788-3.15-1.942-4.04-2.415-1.037-.338-3.418-.923-5.036-1.32-9.7-2.382-25.941-6.369-39.279-19.706-.34-.34-.649-.69-.977-1.034L233.536,326.6a15.032,15.032,0,0,0,15.857,20.945l30.377-4.289L297.1,368.567a15.03,15.03,0,0,0,12.4,6.538c.463,0,.929-.022,1.395-.065a15.03,15.03,0,0,0,12.363-8.906l31.884-72.365c-18.561-.478-32.425-8.989-40.8-14.148Z" fill="#e3bb1b"/>
    <path id="Path_1226" data-name="Path 1226" d="M448.507,255.14c-.33.346-.641.7-.983,1.041-13.337,13.338-29.576,17.324-39.279,19.706-1.62.4-4,.982-5.036,1.32-.891.474-2.763,1.628-4.039,2.415-8.369,5.158-22.23,13.668-40.788,14.148l31.885,72.365a15.031,15.031,0,0,0,12.364,8.906q.7.064,1.395.065a15.035,15.035,0,0,0,12.4-6.538l17.334-25.311,30.376,4.289A15.032,15.032,0,0,0,479.993,326.6Z" fill="#e3bb1b"/>
    <path id="Path_1227" data-name="Path 1227" d="M356.76,187.2a21.783,21.783,0,1,0-21.783-21.783A21.807,21.807,0,0,0,356.76,187.2Z" fill="#e3bb1b"/>
    <path id="Path_1228" data-name="Path 1228" d="M267.294,192.577a63.939,63.939,0,0,1,4.488,8.045,68.7,68.7,0,0,1,2.731,9.351c1.975,8.046,4.433,18.059,12.032,25.657s17.612,10.057,25.658,12.032a68.7,68.7,0,0,1,9.35,2.73,63.935,63.935,0,0,1,8.044,4.488c7.136,4.4,16.017,9.872,27.163,9.872s20.026-5.474,27.162-9.872a64.005,64.005,0,0,1,8.044-4.488,68.7,68.7,0,0,1,9.35-2.73c8.046-1.975,18.059-4.433,25.658-12.032s10.057-17.612,12.032-25.658a68.606,68.606,0,0,1,2.731-9.351,63.938,63.938,0,0,1,4.488-8.045c4.4-7.136,9.871-16.016,9.871-27.161s-5.473-20.026-9.871-27.161a63.62,63.62,0,0,1-4.488-8.046,68.7,68.7,0,0,1-2.731-9.351c-1.975-8.045-4.433-18.058-12.032-25.657s-17.612-10.057-25.657-12.032a68.6,68.6,0,0,1-9.351-2.731,64.012,64.012,0,0,1-8.045-4.488c-7.136-4.4-16.016-9.872-27.162-9.872S336.733,71.55,329.6,75.949a63.939,63.939,0,0,1-8.045,4.488,68.6,68.6,0,0,1-9.35,2.73c-8.046,1.975-18.058,4.433-25.658,12.032s-10.057,17.612-12.032,25.658a68.606,68.606,0,0,1-2.731,9.351,64.009,64.009,0,0,1-4.488,8.045c-4.4,7.136-9.872,16.016-9.872,27.162s5.475,20.027,9.873,27.162Zm89.466-79.008a51.846,51.846,0,1,1-51.846,51.846,51.9,51.9,0,0,1,51.846-51.846Z" fill="#e3bb1b"/>
  </g>
</svg>
