<?xml version="1.0" encoding="utf-8"?>
<!-- Generator: Adobe Illustrator 24.1.3, SVG Export Plug-In . SVG Version: 6.00 Build 0)  -->
<svg version="1.1" id="Layer_1" xmlns="http://www.w3.org/2000/svg" xmlns:xlink="http://www.w3.org/1999/xlink" x="0px" y="0px"
	 viewBox="0 0 510 512" style="enable-background:new 0 0 510 512;" xml:space="preserve">
<style type="text/css">
	.st0{fill:#39AFD1;}
</style>
<g id="upload_2_" transform="translate(-1)">
	<g id="Group_5090">
		<path id="Path_2416" class="st0" d="M468.5,160.7c1.7-8.5,2.5-17.1,2.5-25.7C471,60.6,410.4,0,336,0
			c-47.7,0.1-91.8,25.3-116.1,66.3C171,47.5,116.1,72,97.3,120.9c-2.5,6.5-4.2,13.2-5.3,20c-57.5,7.7-97.9,60.5-90.2,118
			C8.8,311.1,53.4,350,106,350h90v-18.8c-24.7-2.4-42.8-24.4-40.4-49.1c0.8-7.7,3.5-15.1,7.9-21.4l55.6-79.4
			c14.3-20.4,42.3-25.3,62.7-11.1c4.3,3,8,6.8,11.1,11.1l55.6,79.4c14.2,20.3,9.3,48.4-11,62.6c-6.3,4.4-13.7,7.2-21.4,7.9V350h90
			c57.9,0,105-46.9,105-104.8C511,211.8,495.2,180.5,468.5,160.7L468.5,160.7z"/>
	</g>
	<path id="Path_2417" class="st0" d="M187.8,294.6c2.9,4.3,7.8,6.9,13,6.9H226V497c0,8.3,6.7,15,15,15h30c8.3,0,15-6.7,15-15V301.4
		h25.2c5.2,0.1,10.1-2.5,13-6.9c3.3-5.1,3.2-11.7-0.3-16.7l-55.6-79.4c-4.8-6.8-14.1-8.4-20.9-3.7c-1.4,1-2.7,2.3-3.7,3.7
		l-55.6,79.4C184.6,282.8,184.5,289.4,187.8,294.6z"/>
</g>
</svg>
