<?xml version="1.0" encoding="utf-8"?>
<!-- Generator: Adobe Illustrator 24.2.1, SVG Export Plug-In . SVG Version: 6.00 Build 0)  -->
<svg version="1.1" id="Layer_1" xmlns="http://www.w3.org/2000/svg" xmlns:xlink="http://www.w3.org/1999/xlink" x="0px" y="0px"
	 viewBox="0 0 23.9 20.7" style="enable-background:new 0 0 23.9 20.7;" xml:space="preserve">
<style type="text/css">
	.st0{fill:#FEFEFE;}
	.st1{fill:#758E9B;}
</style>
<g>
	<path class="st0" d="M23.1,4.2c-0.1-0.5-0.4-0.8-0.9-0.9c-0.2,0-0.4,0-0.5,0c-2.9,0-5.9,0-8.8,0c-0.7,0-1.3-0.3-1.7-0.9
		c-0.2-0.3-0.4-0.6-0.6-0.9C10.3,1,9.9,0.8,9.5,0.8c-0.6,0-1.1,0-1.7,0c-1.9,0-3.9,0-5.8,0c-0.6,0-1.2,0.5-1.2,1.1
		c0,1.1,0,5.5,0,6.7c0,0.6,0,1.1,0,1.6l0,0v2.2l0,0c0,2,0,3.7,0,6.2c0,0.9,0.5,1.4,1.4,1.4c3.3,0,6.5,0,9.8,0c3.3,0,6.6,0,9.9,0
		c0.8,0,1.3-0.5,1.3-1.3c0-2.5,0-4.3,0-6.3l0,0v-1.1c0-0.4,0-0.7,0-1.1c0-0.5,0-1,0-1.6C23.1,8.2,23.1,4.5,23.1,4.2z"/>
	<path class="st1" d="M23.9,4.5c0-1.3-0.9-2.1-2.1-2.1c-3,0-5.9,0-8.9,0c-0.5,0-0.9-0.2-1.1-0.6c-0.2-0.3-0.4-0.6-0.6-0.9
		C10.8,0.3,10.2,0,9.4,0C7,0,4.5,0,2,0C0.9,0,0,0.9,0,2c0,5.6,0,11.1,0,16.7c0,1.1,0.9,2,2,2c3.3,0,6.6,0,9.9,0c3.3,0,6.6,0,9.9,0
		c1.2,0,2.1-0.9,2.1-2.1C23.9,13.9,23.9,9.2,23.9,4.5z M23.1,12.4 M0.8,8.6c0-1.1,0-5.6,0-6.7c0-0.6,0.6-1.1,1.2-1.1
		c1.9,0,3.9,0,5.8,0c0.6,0,1.1,0,1.7,0c0.4,0,0.8,0.2,1.1,0.6c0.2,0.3,0.4,0.6,0.6,0.9c0.4,0.6,1,0.9,1.7,0.9c2.9,0,5.9,0,8.8,0
		c0.2,0,0.4,0,0.5,0c0.5,0.1,0.8,0.4,0.9,0.9c0.1,0.3,0,4,0,4.4"/>
	<path class="st1" d="M23.1,8.9c0,2.3,0,6.5,0,7.3h0.7c0-3.7,0-3.7,0-7.4C23.9,7.8,23,7,22,7c-3.1,0-16.9,0-20,0C0.8,7,0,7.8,0,8.9
		c0,3.7,0,3.7,0,7.4h0.7v0"/>
</g>
</svg>
