<?xml version="1.0" encoding="utf-8"?>
<!-- Generator: Adobe Illustrator 24.3.0, SVG Export Plug-In . SVG Version: 6.00 Build 0)  -->
<svg version="1.1" id="Layer_1" xmlns="http://www.w3.org/2000/svg" xmlns:xlink="http://www.w3.org/1999/xlink" x="0px" y="0px"
	 viewBox="0 0 29.1 25.1" style="enable-background:new 0 0 29.1 25.1;" xml:space="preserve">
<style type="text/css">
	.st0{fill:#39AFD1;}
</style>
<g>
	<g>
		<path class="st0" d="M0,1.5C0.1,1.2,0.2,1,0.4,0.7C0.8,0.2,1.3,0,1.9,0C3.9,0,6,0,8,0c0.5,0,0.9,0.2,1.2,0.5
			c0.3,0.4,0.6,0.9,0.9,1.3c0.2,0.4,0.5,0.5,0.9,0.5c4.8,0,14.5,0,14.5,0c1,0,2,0.9,1.9,1.9c0,0.5,0,1,0,1.6c0.1,0,0.2,0,0.3,0.1
			c0.9,0.2,1.6,1.1,1.4,2c-0.8,4.1-1.5,8.1-2.3,12.2c-0.2,1.1-0.4,2.2-0.6,3.4c-0.2,1-1.1,1.6-1.9,1.6c-7.5,0-15,0-22.4,0
			c-0.9,0-1.5-0.5-1.9-1.3c0,0,0-0.1-0.1-0.1C0,16.3,0,8.9,0,1.5z M1.2,16.7L1.2,16.7c0.1,0,0.1-0.1,0.1-0.2
			c0.2-1.1,0.4-2.2,0.6-3.2c0.4-1.9,0.7-3.7,1-5.6C3.1,6.4,3.8,5.8,5,5.8c6.9,0,13.9,0,20.8,0c0.1,0,0.3,0,0.4,0c0-0.5,0-1,0-1.4
			c0-0.8-0.1-0.9-0.9-0.9c-4.9,0-9.8,0-14.7,0c-0.5,0-0.9-0.2-1.2-0.5C9.3,2.7,9.1,2.5,8.9,2.2S8.6,1.7,8.4,1.4
			C8.3,1.2,8.2,1.2,7.9,1.2c-2,0-4,0-6.1,0c-0.6,0-0.7,0.1-0.7,0.7c0,2.6,0,5.3,0,7.9C1.2,12.1,1.2,14.4,1.2,16.7z"/>
	</g>
</g>
</svg>
