<svg id="Group_2414" data-name="Group 2414" xmlns="http://www.w3.org/2000/svg" width="31" height="26" viewBox="0 0 31 26">
  <rect id="Rectangle_655" data-name="Rectangle 655" width="31" height="18" rx="2" transform="translate(0 8)" fill="#4B88BC"/>
  <path id="Path_948" data-name="Path 948" d="M28.862,3.224H16.644a2.134,2.134,0,0,1-1.78-.956L14,.956A2.134,2.134,0,0,0,12.218,0H2.138A2.144,2.144,0,0,0,0,2.149V8.6A2.144,2.144,0,0,1,2.138,6.447H28.862A2.144,2.144,0,0,1,31,8.6V5.373A2.144,2.144,0,0,0,28.862,3.224Z" transform="translate(0 0)" fill="#4B88BC"/>
</svg>
