<svg xmlns="http://www.w3.org/2000/svg" width="59.4" height="73.178" viewBox="0 0 59.4 73.178">
  <g id="test_2_" data-name="test (2)" transform="translate(-48.2)">
    <path id="Path_2144" data-name="Path 2144" d="M142.468,383.467h4.9v4.9h-4.9Z" transform="translate(-80.795 -328.66)" fill="#3793e3"/>
    <path id="Path_2145" data-name="Path 2145" d="M338.863,25.9h13.518L335.266,8.787V22.3A3.6,3.6,0,0,0,338.863,25.9Z" transform="translate(-246.037 -7.531)" fill="#3793e3"/>
    <path id="Path_2146" data-name="Path 2146" d="M142.468,254.933h4.9v4.9h-4.9Z" transform="translate(-80.795 -218.496)" fill="#3793e3"/>
    <path id="Path_2147" data-name="Path 2147" d="M92.826,22.658a7.894,7.894,0,0,1-7.885-7.885V0H56.085A7.894,7.894,0,0,0,48.2,7.885V65.293a7.894,7.894,0,0,0,7.885,7.885H99.715a7.894,7.894,0,0,0,7.885-7.885V22.658Zm-5.741,9.49a2.144,2.144,0,1,1,0,4.288H77.9a2.144,2.144,0,1,1,0-4.288ZM59.529,11.482H71.011a2.144,2.144,0,0,1,0,4.288H59.529a2.144,2.144,0,1,1,0-4.288Zm0,9.185H77.9a2.144,2.144,0,1,1,0,4.288H59.529a2.144,2.144,0,1,1,0-4.288ZM70.859,61.849a2.144,2.144,0,0,1-2.144,2.144H59.529a2.144,2.144,0,0,1-2.144-2.144V52.663a2.144,2.144,0,0,1,2.144-2.144h9.185a2.144,2.144,0,0,1,2.144,2.144Zm0-18.371a2.144,2.144,0,0,1-2.144,2.144H59.529a2.144,2.144,0,0,1-2.144-2.144V34.292a2.144,2.144,0,0,1,2.144-2.144h9.185a2.144,2.144,0,0,1,2.144,2.144ZM96.271,63.993H77.9a2.144,2.144,0,1,1,0-4.288H96.271a2.144,2.144,0,0,1,0,4.288ZM75.756,52.663A2.144,2.144,0,0,1,77.9,50.52h9.185a2.144,2.144,0,1,1,0,4.288H77.9A2.144,2.144,0,0,1,75.756,52.663Zm20.515-7.042H77.9a2.144,2.144,0,0,1,0-4.288H96.271a2.144,2.144,0,0,1,0,4.288Z" fill="#3793e3"/>
  </g>
</svg>
