<?xml version="1.0" encoding="utf-8"?>
<!-- Generator: Adobe Illustrator 25.0.1, SVG Export Plug-In . SVG Version: 6.00 Build 0)  -->
<svg version="1.1" id="Layer_1" xmlns="http://www.w3.org/2000/svg" xmlns:xlink="http://www.w3.org/1999/xlink" x="0px" y="0px"
	 viewBox="0 0 300 300" style="enable-background:new 0 0 300 300;" xml:space="preserve">
<style type="text/css">
	.st0{fill:#39AFD1;}
</style>
<desc>Created with Sketch.</desc>
<g>
	<g>
		<path class="st0" d="M295,275H25V5c0-2.8-2.2-5-5-5s-5,2.2-5,5v15H5c-2.8,0-5,2.2-5,5s2.2,5,5,5h10v30H5c-2.8,0-5,2.2-5,5
			s2.2,5,5,5h10v30H5c-2.8,0-5,2.2-5,5s2.2,5,5,5h10v30H5c-2.8,0-5,2.2-5,5s2.2,5,5,5h10v30H5c-2.8,0-5,2.2-5,5s2.2,5,5,5h10v30H5
			c-2.8,0-5,2.2-5,5s2.2,5,5,5h10v30H5c-2.8,0-5,2.2-5,5s2.2,5,5,5h10v5c0,5.5,4.5,10,10,10v10c0,2.8,2.2,5,5,5s5-2.2,5-5v-10h30v10
			c0,2.8,2.2,5,5,5s5-2.2,5-5v-10h30v10c0,2.8,2.2,5,5,5s5-2.2,5-5v-10h30v10c0,2.8,2.2,5,5,5s5-2.2,5-5v-10h30v10c0,2.8,2.2,5,5,5
			s5-2.2,5-5v-10h30v10c0,2.8,2.2,5,5,5s5-2.2,5-5v-10h30v10c0,2.8,2.2,5,5,5s5-2.2,5-5v-10h20c2.8,0,5-2.2,5-5S297.8,275,295,275z"
			/>
		<path class="st0" d="M45,65c0,2.8,2.2,5,5,5h90c2.8,0,5-2.2,5-5V55c0-2.8-2.2-5-5-5H50c-2.8,0-5,2.2-5,5V65z"/>
		<path class="st0" d="M70,85v10c0,2.8,2.2,5,5,5h90c2.8,0,5-2.2,5-5V85c0-2.8-2.2-5-5-5H75C72.2,80,70,82.2,70,85z"/>
		<path class="st0" d="M50,20h40c2.8,0,5,2.2,5,5v10c0,2.8-2.2,5-5,5H50c-2.8,0-5-2.2-5-5V25C45,22.2,47.2,20,50,20z"/>
		<path class="st0" d="M100,160h135c2.8,0,5-2.2,5-5v-10c0-2.8-2.2-5-5-5H100c-2.8,0-5,2.2-5,5v10C95,157.8,97.2,160,100,160z"/>
		<path class="st0" d="M210,250h75c2.8,0,5-2.2,5-5v-10c0-2.8-2.2-5-5-5h-75c-2.8,0-5,2.2-5,5v10C205,247.8,207.2,250,210,250z"/>
		<path class="st0" d="M75,130h90c2.8,0,5-2.2,5-5v-10c0-2.8-2.2-5-5-5H75c-2.8,0-5,2.2-5,5v10C70,127.8,72.2,130,75,130z"/>
		<path class="st0" d="M125,190h135c2.8,0,5-2.2,5-5v-10c0-2.8-2.2-5-5-5H125c-2.8,0-5,2.2-5,5v10C120,187.8,122.2,190,125,190z"/>
		<path class="st0" d="M195,220h75c2.8,0,5-2.2,5-5v-15h-80c-2.8,0-5,2.2-5,5v10C190,217.8,192.2,220,195,220z"/>
	</g>
</g>
</svg>
