<svg xmlns="http://www.w3.org/2000/svg" width="428.477" height="512.002" viewBox="0 0 428.477 512.002">
  <g id="file_1_" data-name="file (1)" transform="translate(-41.762)">
    <g id="Group_2576" data-name="Group 2576">
      <g id="Group_2575" data-name="Group 2575">
        <path id="Path_1324" data-name="Path 1324" d="M444.615,196.923H315.239A25.624,25.624,0,0,1,289.615,171.3V25.624A25.628,25.628,0,0,0,263.989,0H77.96a36.2,36.2,0,0,0-36.2,36.2V475.8A36.2,36.2,0,0,0,77.96,512H434.042a36.2,36.2,0,0,0,36.2-36.2V222.547A25.625,25.625,0,0,0,444.615,196.923ZM140.224,80.127h64.55c11.005,0,20.5,8.455,20.989,19.449a20.372,20.372,0,0,1-20.351,21.293h-64.55c-11.005,0-20.5-8.455-20.989-19.449A20.372,20.372,0,0,1,140.224,80.127ZM371.1,418.292H140.863c-11.005,0-20.506-8.455-20.991-19.449a20.372,20.372,0,0,1,20.351-21.293H370.46c11.005,0,20.5,8.456,20.989,19.449A20.371,20.371,0,0,1,371.1,418.292Zm0-69.263H140.863c-11.005,0-20.506-8.455-20.991-19.449a20.373,20.373,0,0,1,20.351-21.294H370.46c11.005,0,20.5,8.456,20.989,19.449A20.371,20.371,0,0,1,371.1,349.029Zm0-66.546H140.863c-11.005,0-20.506-8.455-20.991-19.449a20.373,20.373,0,0,1,20.351-21.294H370.46c11.005,0,20.5,8.455,20.989,19.449A20.372,20.372,0,0,1,371.1,282.483Z" fill="#fafeff"/>
      </g>
    </g>
    <g id="Group_2578" data-name="Group 2578">
      <g id="Group_2577" data-name="Group 2577">
        <path id="Path_1325" data-name="Path 1325" d="M455.053,144.688,362.513,15.132A36.2,36.2,0,0,0,333.112,0a2.756,2.756,0,0,0-2.756,2.756V143.14a13.04,13.04,0,0,0,13.039,13.04H449.139A7.267,7.267,0,0,0,455.053,144.688Z" fill="#fafeff"/>
      </g>
    </g>
  </g>
</svg>
