<svg id="goal_1_" data-name="goal (1)" xmlns="http://www.w3.org/2000/svg" width="26" height="26" viewBox="0 0 26 26">
  <path id="Path_949" data-name="Path 949" d="M179.916,175.08a4.114,4.114,0,1,0,3.232,3.232l-2.418,2.418A2.285,2.285,0,0,1,177.5,177.5Zm0,0" transform="translate(-166.113 -166.114)" fill="#4B88BC"/>
  <path id="Path_950" data-name="Path 950" d="M24.836,7.627,23.2,9.266a2.289,2.289,0,0,1-.548.406,10.206,10.206,0,1,1-6.319-6.32,2.286,2.286,0,0,1,.4-.549l1.639-1.639a13,13,0,1,0,6.463,6.463Zm0,0" transform="translate(0 0)" fill="#4B88BC"/>
  <path id="Path_951" data-name="Path 951" d="M96.919,87.216,96.78,85.57a8.684,8.684,0,1,0,5.016,5.016l-1.646-.139-1.208,1.208a5.637,5.637,0,1,1-3.232-3.232Zm0,0" transform="translate(-80.684 -80.683)" fill="#4B88BC"/>
  <path id="Path_952" data-name="Path 952" d="M246.353,12.417l.222,2.628L241.223,20.4a.762.762,0,1,0,1.077,1.077l5.351-5.351,2.628.222.064,0a.762.762,0,0,0,.539-.223l3.232-3.232a.761.761,0,0,0-.474-1.3l-2.34-.2-.2-2.339a.762.762,0,0,0-1.3-.475l-3.232,3.232a.762.762,0,0,0-.221.6Zm0,0" transform="translate(-228.761 -7.935)" fill="#4B88BC"/>
</svg>
