<svg xmlns="http://www.w3.org/2000/svg" width="35.54" height="35.54" viewBox="0 0 35.54 35.54">
  <g id="_007-government" data-name="007-government" transform="translate(0)">
    <path id="Path_347" data-name="Path 347" d="M35.019,34.5H34.5V20.616h.521a.521.521,0,1,0,0-1.041h-8.5V18.023l.354.119a.521.521,0,1,0,.332-.987l-2.152-.725V12.808h.521a.521.521,0,0,0,0-1.041h-.54a7.046,7.046,0,0,0-6.749-6.51V4.512h4.2A1.216,1.216,0,0,0,23.7,3.3V1.215A1.216,1.216,0,0,0,22.49,0H17.77a.521.521,0,0,0-.521.521V5.257A7.054,7.054,0,0,0,13.1,6.814a.521.521,0,0,0,.655.81,6.008,6.008,0,0,1,3.768-1.332h.5a6,6,0,0,1,5.971,5.475H11.546A5.948,5.948,0,0,1,12.6,8.861a.521.521,0,0,0-.854-.6,6.985,6.985,0,0,0-1.243,3.5h-.54a.521.521,0,0,0,0,1.041h.521v3.623l-2.152.725a.521.521,0,1,0,.332.987l.354-.119v1.552H.521a.521.521,0,1,0,0,1.041h.521V34.5H.521a.521.521,0,1,0,0,1.041h34.5a.521.521,0,0,0,0-1.041ZM18.291,1.041h4.2a.174.174,0,0,1,.174.174V3.3a.174.174,0,0,1-.174.174h-4.2ZM11.523,12.808H24.017V16.08l-5.195-1.75a3.316,3.316,0,0,0-2.1,0l-5.195,1.75Zm-1.465,4.864,6.992-2.355a2.27,2.27,0,0,1,1.44,0l6.992,2.355v1.9H10.058ZM6.783,34.5H4.165V32.416H6.783Zm0-3.124H4.165V29.624a1.309,1.309,0,0,1,2.618,0ZM8.866,34.5H7.824V29.624a2.35,2.35,0,0,0-4.7,0V34.5H2.082V26.3H8.866Zm0-9.24H2.082V20.616H7.163v1.076a1.564,1.564,0,0,0,1.562,1.562h.14v2.006ZM12.1,34.5H9.907V23.254H12.1V34.5Zm3.385,0H13.139V23.254h2.344Zm3.232,0H16.524V23.254h2.191Zm3.687,0H19.756V23.254h.139a.521.521,0,0,0,0-1.041H8.725a.521.521,0,0,1-.521-.521V20.616H27.335v1.076a.521.521,0,0,1-.521.521H21.977a.521.521,0,1,0,0,1.041H22.4V34.5Zm3.232,0H23.443V23.254h2.191V34.5Zm5.742,0H28.757V32.416h2.618Zm0-3.124H28.757V29.624a1.309,1.309,0,0,1,2.618,0ZM33.458,34.5H32.416V29.624a2.35,2.35,0,0,0-4.7,0V34.5H26.674V26.3h6.783Zm0-9.24H26.674V23.254h.14a1.564,1.564,0,0,0,1.562-1.562V20.616h5.081Z" transform="translate(0)" fill="#20ac9e"/>
  </g>
</svg>
