<?xml version="1.0" encoding="utf-8"?>
<!-- Generator: Adobe Illustrator 25.0.0, SVG Export Plug-In . SVG Version: 6.00 Build 0)  -->
<svg version="1.1" id="Layer_1" xmlns="http://www.w3.org/2000/svg" xmlns:xlink="http://www.w3.org/1999/xlink" x="0px" y="0px"
	 viewBox="0 0 270 270" style="enable-background:new 0 0 270 270;" xml:space="preserve">
<style type="text/css">
	.st0{display:none;}
	.st1{display:inline;fill:#FFFFFF;}
	.st2{display:inline;}
	.st3{fill:#FFFFFF;}
	.st4{display:inline;fill:none;stroke:#FFFFFF;stroke-width:3;stroke-miterlimit:30;}
	.st5{fill:#8B8B8B;}
</style>
<g class="st0">
	<circle class="st1" cx="135" cy="135" r="135"/>
</g>
<g class="st0">
	<g class="st2">
		<g>
			<path class="st3" d="M326.4,113.4c16.5,16.5,33,33,49.5,49.5c4.2,4.2,10.5-2.4,6.3-6.3c-16.5-16.5-33-33-49.5-49.5
				C328.8,102.9,322.2,109.2,326.4,113.4L326.4,113.4z"/>
		</g>
	</g>
	<g class="st2">
		<g>
			<path class="st3" d="M332.7,162.9c16.5-16.5,33-33,49.5-49.5c4.2-4.2-2.4-10.5-6.3-6.3c-16.5,16.5-33,33-49.5,49.5
				C322.2,160.8,328.8,167.1,332.7,162.9L332.7,162.9z"/>
		</g>
	</g>
	<path class="st1" d="M-388.5,127.2l-71.1-41.1c-6-3.6-13.5,0.9-13.5,7.8v81.9c0,6.9,7.5,11.4,13.5,7.8l71.1-41.1
		C-382.5,139.2-382.5,130.8-388.5,127.2z"/>
	<path class="st1" d="M-318.6,127.2l-71.1-41.1c-6-3.6-13.5,0.9-13.5,7.8v81.9c0,6.9,7.5,11.4,13.5,7.8l71.1-41.1
		C-312.6,139.2-312.6,130.8-318.6,127.2z"/>
	<path class="st1" d="M-110.4-43.5l-82.8-47.7c-6-3.6-13.5,0.9-13.5,7.8v95.7c0,6.9,7.5,11.4,13.5,7.8l82.8-47.7
		C-104.4-31.2-104.4-39.9-110.4-43.5z"/>
	<path class="st1" d="M-90.9,21h-13.2c-4.8,0-9-3.9-9-9v-95.1c0-4.8,3.9-9,9-9h13.2c4.8,0,9,4.2,9,9V12C-81.9,16.8-86.1,21-90.9,21z
		"/>
	<path class="st1" d="M-194.4,141.6l47.7,43.2c5.7,5.1,15,1.2,15-6.6V91.8c0-7.8-9.3-12-15-6.6l-47.7,43.2
		C-198.3,132-198.3,138-194.4,141.6z"/>
	<path class="st1" d="M-170.1,158.7h-26.1c-5.1,0-9-3.9-9-9v-29.4c0-5.1,3.9-9,9-9h26.1c5.1,0,9,3.9,9,9v29.4
		C-161.1,154.5-165,158.7-170.1,158.7z"/>
	<g class="st2">
		<g>
			<g>
				<path class="st3" d="M-91.2,93.3c22.5,24,22.5,59.1,0,83.1c-3.9,4.2,2.4,10.5,6.3,6.3c25.8-27.6,25.8-68.1,0-96
					C-88.8,82.8-95.1,89.1-91.2,93.3L-91.2,93.3z"/>
			</g>
		</g>
		<g>
			<g>
				<path class="st3" d="M-105.3,105.3c16.2,17.4,16.2,42,0,59.7c-3.9,4.2,2.4,10.5,6.3,6.3c19.5-21,19.5-51.3,0-72.3
					C-102.9,94.5-109.2,100.8-105.3,105.3L-105.3,105.3z"/>
			</g>
		</g>
		<g>
			<g>
				<path class="st3" d="M-119.1,117c9.6,10.5,9.9,25.5,0,36c-3.9,4.2,2.4,10.5,6.3,6.3c13.2-14.1,13.2-34.5,0-48.9
					C-116.7,106.2-123,112.8-119.1,117L-119.1,117z"/>
			</g>
		</g>
	</g>
	<path class="st4" d="M-291,93.9c21.6,0,39,17.4,39,39s-17.4,39-39,39"/>
</g>
<g class="st0">
	<path class="st1" d="M135,0C60.3,0,0,60.3,0,135s60.3,135,135,135s135-60.3,135-135S209.7,0,135,0z M205.8,142.8l-102.9,59.4
		c-6,3.6-13.5-0.9-13.5-7.8V75.6c0-6.9,7.5-11.4,13.5-7.8l102.9,59.4C211.8,130.8,211.8,139.2,205.8,142.8z"/>
</g>
<g class="st0">
	<path class="st1" d="M135,0C60.3,0,0,60.3,0,135s60.3,135,135,135s135-60.3,135-135S209.7,0,135,0z M120.9,189.6c0,5.1-3.9,9-9,9
		h-24c-4.8,0-9-3.9-9-9V80.4c0-4.8,4.2-9,9-9h24c5.1,0,9,4.2,9,9V189.6z M190.5,189.6c0,5.1-3.9,9-9,9h-24c-4.8,0-9-3.9-9-9V80.4
		c0-4.8,4.2-9,9-9h24c5.1,0,9,4.2,9,9V189.6z"/>
</g>
<g class="st0">
	<path class="st1" d="M135,0C60.3,0,0,60.3,0,135s60.3,135,135,135s135-60.3,135-135S209.7,0,135,0z M122.4,142.8l-57.6,33.3
		c-6,3.6-13.5-0.9-13.5-7.8v-66.6c0-6.9,7.5-11.4,13.5-7.8l57.9,33.3C128.4,130.8,128.4,139.2,122.4,142.8z M173.4,167.7
		c0,5.1-4.2,9-9,9h-9.3c-5.1,0-9-3.9-9-9v-65.4c0-5.1,3.9-9,9-9h9.3c4.8,0,9,3.9,9,9V167.7z M218.7,167.7c0,5.1-3.9,9-9,9h-9.3
		c-5.1,0-9-3.9-9-9v-65.4c0-5.1,3.9-9,9-9h9.3c5.1,0,9,3.9,9,9V167.7z"/>
</g>
<g class="st0">
	<path class="st1" d="M135,0C60.3,0,0,60.3,0,135s60.3,135,135,135s135-60.3,135-135S209.7,0,135,0z M194.4,185.4c0,5.1-3.9,9-9,9
		H84.6c-5.1,0-9-3.9-9-9V84.6c0-5.1,3.9-9,9-9h100.8c5.1,0,9,3.9,9,9V185.4z"/>
</g>
<g class="st0">
	<path class="st1" d="M135,0C60.3,0,0,60.3,0,135s60.3,135,135,135s135-60.3,135-135S209.7,0,135,0z M135,199.8
		c-35.7,0-64.8-29.1-64.8-64.8S99.3,70.2,135,70.2s64.8,29.1,64.8,64.8S170.7,199.8,135,199.8z"/>
</g>
<g class="st0">
	<path class="st1" d="M135,0C60.3,0,0,60.3,0,135s60.3,135,135,135s135-60.3,135-135S209.7,0,135,0z M217.5,142.8l-71.1,41.1
		c-6,3.6-13.5-0.9-13.5-7.8v-24.9l-56.4,32.7c-6,3.6-13.5-0.9-13.5-7.8V93.9c0-6.9,7.5-11.4,13.5-7.8l56.4,32.7V93.9
		c0-6.9,7.5-11.4,13.5-7.8l71.1,41.1C223.5,130.8,223.5,139.2,217.5,142.8z"/>
</g>
<g class="st0">
	<path class="st1" d="M135,0C60.3,0,0,60.3,0,135s60.3,135,135,135s135-60.3,135-135S209.7,0,135,0z M207,176.1
		c0,6.9-7.5,11.4-13.5,7.8l-56.4-32.7v24.9c0,6.9-7.5,11.4-13.5,7.8l-71.1-41.1c-6-3.6-6-12,0-15.6l71.1-41.1
		c6-3.6,13.5,0.9,13.5,7.8v24.9l56.4-32.7c6-3.6,13.5,0.9,13.5,7.8V176.1z"/>
</g>
<g class="st0">
	<path class="st1" d="M135,0C60.3,0,0,60.3,0,135s60.3,135,135,135s135-60.3,135-135S209.7,0,135,0z M191.4,182.7c0,5.1-4.2,9-9,9
		h-1.2c-4.8,0-9-3.9-9-9v-38.4l-80.1,46.2c-6,3.6-13.5-0.9-13.5-7.8V87.3c0-6.9,7.5-11.4,13.5-7.8l80.1,46.2V87.3c0-4.8,4.2-9,9-9
		h1.2c4.8,0,9,4.2,9,9V182.7z"/>
</g>
<g class="st0">
	<path class="st1" d="M135,0C60.3,0,0,60.3,0,135s60.3,135,135,135s135-60.3,135-135S209.7,0,135,0z M191.4,182.7
		c0,6.9-7.5,11.4-13.5,7.8l-80.1-46.2v38.4c0,4.8-4.2,9-9,9h-1.2c-4.8,0-9-4.2-9-9V87.3c0-5.1,4.2-9,9-9h1.2c4.8,0,9,3.9,9,9v38.4
		l80.1-46.2c6-3.6,13.5,0.9,13.5,7.8V182.7z"/>
</g>
<g class="st0">
	<path class="st1" d="M135,0C60.3,0,0,60.3,0,135s60.3,135,135,135s135-60.3,135-135S209.7,0,135,0z M100.5,182.7c0,5.1-3.9,9-9,9
		h-1.2c-5.1,0-9-3.9-9-9V87.3c0-4.8,3.9-9,9-9h1.2c5.1,0,9,4.2,9,9V182.7z M211.2,142.8l-82.8,47.7c-6,3.6-13.5-0.9-13.5-7.8V87.3
		c0-6.9,7.5-11.4,13.5-7.8l82.8,47.7C217.2,130.8,217.2,139.2,211.2,142.8z"/>
</g>
<g class="st0">
	<path class="st1" d="M135,0C60.3,0,0,60.3,0,135s60.3,135,135,135s135-60.3,135-135S209.7,0,135,0z M156.6,182.7
		c0,6.9-7.5,11.4-13.5,7.8l-82.8-47.7c-6-3.6-6-12,0-15.6l82.8-47.7c6-3.6,13.5,0.9,13.5,7.8V182.7z M190.2,182.7c0,5.1-3.9,9-9,9
		H180c-5.1,0-9-3.9-9-9V87.3c0-4.8,3.9-9,9-9h1.2c5.1,0,9,4.2,9,9V182.7z"/>
</g>
<g class="st0">
	<path class="st1" d="M135,0C60.3,0,0,60.3,0,135s60.3,135,135,135s135-60.3,135-135S209.7,0,135,0z M140.4,185.1
		c0,9-10.8,13.8-17.4,7.8l-33.9-30.3H61.5c-5.7,0-10.5-4.8-10.5-10.5v-34.2c0-5.7,4.8-10.5,10.5-10.5h27.6L123,77.1
		c6.6-6,17.4-1.2,17.4,7.8V185.1z M154.8,156c11.4-12.3,11.4-29.7,0-42c-4.5-5.1,2.7-12.3,7.5-7.5c15.3,16.5,15.3,40.2,0,57
		C157.5,168.3,150.3,161.1,154.8,156z M171,169.8c18.6-20.1,18.6-49.2,0-69.3c-4.5-4.8,2.7-12.3,7.5-7.5c22.8,24.3,22.8,60,0,84.3
		C173.7,182.1,166.5,174.6,171,169.8z M194.7,190.8c-4.5,4.8-12-2.4-7.5-7.5c26.1-27.9,26.1-69,0-96.9c-4.5-4.8,2.7-12.3,7.5-7.5
		C225,111.3,225,158.7,194.7,190.8z"/>
</g>
<g class="st0">
	<path class="st1" d="M135,0C60.3,0,0,60.3,0,135s60.3,135,135,135s135-60.3,135-135S209.7,0,135,0z M159.3,185.1
		c0,9-10.8,13.8-17.4,7.8L108,162.6H80.4c-5.7,0-10.5-4.8-10.5-10.5v-34.2c0-5.7,4.8-10.5,10.5-10.5H108l33.9-30.6
		c6.6-6,17.4-1.2,17.4,7.8V185.1z M180.9,163.5c-4.5,5.1-12-2.4-7.5-7.5c11.4-12.3,11.4-29.7,0-42c-4.5-5.1,2.7-12.3,7.5-7.5
		C196.2,123,196.2,147,180.9,163.5z"/>
</g>
<g class="st0">
	<path class="st1" d="M135,0C60.3,0,0,60.3,0,135s60.3,135,135,135s135-60.3,135-135S209.7,0,135,0z M143.4,185.1
		c0,9-10.8,13.8-17.4,7.8l-33.9-30.3H64.5c-5.7,0-10.5-4.8-10.5-10.5v-34.2c0-5.7,4.8-10.5,10.5-10.5h27.6L126,77.1
		c6.6-6,17.4-1.2,17.4,7.8V185.1z M206.7,159.9c-7.2-7.2-11.4-11.4-18.6-18.6c-7.2,7.2-11.4,11.4-18.6,18.6
		c-4.2,4.2-10.5-2.4-6.3-6.3c7.2-7.2,11.4-11.4,18.6-18.6c-7.2-7.2-11.4-11.4-18.6-18.6c-4.2-4.2,2.4-10.5,6.3-6.3
		c7.2,7.2,11.4,11.4,18.6,18.6c7.2-7.2,11.4-11.4,18.6-18.6c4.2-4.2,10.5,2.4,6.3,6.3c-7.2,7.2-11.4,11.4-18.6,18.6
		c7.2,7.2,11.4,11.4,18.6,18.6C217.2,157.8,210.9,164.1,206.7,159.9z"/>
</g>
<g class="st0">
	<path class="st1" d="M135,0C60.3,0,0,60.3,0,135s60.3,135,135,135s135-60.3,135-135S209.7,0,135,0z M202.8,147.6
		c-18.3,0-36.6,0-55.2,0c0,18.3,0,36.6,0,55.2c0,16.5-25.5,16.2-25.5,0c0-18.3,0-36.6,0-55.2c-18.3,0-36.6,0-55.2,0
		c-16.5,0-16.2-25.5,0-25.5c18.3,0,36.6,0,55.2,0c0-18.3,0-36.6,0-55.2c0-16.5,25.5-16.2,25.5,0c0,18.3,0,36.6,0,55.2
		c18.3,0,36.6,0,55.2,0C219.3,122.4,219,147.6,202.8,147.6z"/>
</g>
<g class="st0">
	<path class="st1" d="M135,0C60.3,0,0,60.3,0,135s60.3,135,135,135s135-60.3,135-135S209.7,0,135,0z M202.8,147.6
		c-45.3,0-90.3,0-135.6,0c-16.5,0-16.2-25.5,0-25.5c45.3,0,90.3,0,135.6,0C219.3,122.4,219,147.6,202.8,147.6z"/>
</g>
<path class="st5" d="M252.5,270h-235C7.8,270,0,262.2,0,252.5v-235C0,7.8,7.8,0,17.5,0h235c9.7,0,17.5,7.8,17.5,17.5v235
	C270,262.2,262.2,270,252.5,270z"/>
</svg>
