<svg xmlns="http://www.w3.org/2000/svg" width="537.6" height="512" viewBox="0 0 537.6 512">
  <g id="hierarchical-structure" transform="translate(0 -12.8)">
    <g id="Group_4640" data-name="Group 4640">
      <path id="Path_2156" data-name="Path 2156" d="M512,371.2H460.8V294.4c0-15.36-10.24-25.6-25.6-25.6H281.6V217.6h76.8c15.36,0,25.6-10.24,25.6-25.6V38.4c0-15.36-10.24-25.6-25.6-25.6H153.6c-15.36,0-25.6,10.24-25.6,25.6V192c0,15.36,10.24,25.6,25.6,25.6h76.8v51.2h-128c-15.36,0-25.6,10.24-25.6,25.6v76.8H25.6C10.24,371.2,0,381.44,0,396.8V499.2c0,15.36,10.24,25.6,25.6,25.6H179.2c15.36,0,25.6-10.24,25.6-25.6V396.8c0-15.36-10.24-25.6-25.6-25.6H128V320H409.6v51.2H358.4c-15.36,0-25.6,10.24-25.6,25.6V499.2c0,15.36,10.24,25.6,25.6,25.6H512c15.36,0,25.6-10.24,25.6-25.6V396.8C537.6,381.44,524.8,371.2,512,371.2Z" fill="#4B88BC"/>
    </g>
  </g>
</svg>
