<svg id="error" xmlns="http://www.w3.org/2000/svg" width="24.4" height="24.4" viewBox="0 0 24.4 24.4">
  <g id="Group_2496" data-name="Group 2496">
    <g id="Group_2495" data-name="Group 2495">
      <path id="Path_1185" data-name="Path 1185" d="M12.2,0A12.2,12.2,0,1,0,24.4,12.2,12.193,12.193,0,0,0,12.2,0Zm0,22.494A10.294,10.294,0,1,1,22.494,12.2,10.288,10.288,0,0,1,12.2,22.494Z" fill="#c4514e"/>
    </g>
  </g>
  <g id="Group_2498" data-name="Group 2498" transform="translate(7.747 7.747)">
    <g id="Group_2497" data-name="Group 2497">
      <path id="Path_1186" data-name="Path 1186" d="M171.182,169.835l-2.826-2.826,2.826-2.826a.953.953,0,1,0-1.348-1.348l-2.826,2.826-2.826-2.826a.953.953,0,1,0-1.348,1.348l2.826,2.826-2.826,2.826a.953.953,0,1,0,1.348,1.348l2.826-2.826,2.826,2.826a.953.953,0,1,0,1.348-1.348Z" transform="translate(-162.555 -162.556)" fill="#c4514e"/>
    </g>
  </g>
</svg>
