<svg xmlns="http://www.w3.org/2000/svg" width="36" height="36" viewBox="0 0 36 36">
  <g id="Group_4869" data-name="Group 4869" transform="translate(-122 -372)">
    <circle id="Ellipse_164" data-name="Ellipse 164" cx="18" cy="18" r="18" transform="translate(122 372)" fill="#39afd1" opacity="0.12"/>
    <g id="Component_1_1" data-name="Component 1 – 1" transform="translate(130 382)">
      <path id="Path_481" data-name="Path 481" d="M1.975,59.8q.391.276,2.354,1.637t3.009,2.1q.115.081.488.35t.62.437q.247.166.6.373a3.465,3.465,0,0,0,.66.31,1.82,1.82,0,0,0,.574.1H10.3a1.821,1.821,0,0,0,.574-.1,3.468,3.468,0,0,0,.66-.31q.35-.207.6-.373t.62-.437q.373-.27.488-.35L18.616,59.8a5.456,5.456,0,0,0,1.4-1.413,3.033,3.033,0,0,0,.563-1.734,1.853,1.853,0,0,0-1.838-1.838H1.837a1.64,1.64,0,0,0-1.361.6A2.318,2.318,0,0,0,0,56.91a2.683,2.683,0,0,0,.632,1.568A5.7,5.7,0,0,0,1.975,59.8Z" transform="translate(0 -54.82)" fill="#39afd1"/>
      <path id="Path_482" data-name="Path 482" d="M19.431,185.436q-3.766,2.549-5.719,3.962-.655.482-1.062.752a6.556,6.556,0,0,1-1.085.551,3.3,3.3,0,0,1-1.263.281h-.023a3.306,3.306,0,0,1-1.263-.281,6.559,6.559,0,0,1-1.085-.551q-.408-.27-1.062-.752-1.55-1.137-5.708-3.962a6.084,6.084,0,0,1-1.16-1v9.118a1.769,1.769,0,0,0,.54,1.3,1.769,1.769,0,0,0,1.3.54H18.743a1.843,1.843,0,0,0,1.837-1.838v-9.118A6.333,6.333,0,0,1,19.431,185.436Z" transform="translate(0 -179.223)" fill="#39afd1"/>
    </g>
  </g>
</svg>
