<?xml version="1.0" encoding="utf-8"?>
<!-- Generator: Adobe Illustrator 24.1.1, SVG Export Plug-In . SVG Version: 6.00 Build 0)  -->
<svg version="1.1" id="Layer_1" xmlns="http://www.w3.org/2000/svg" xmlns:xlink="http://www.w3.org/1999/xlink" x="0px" y="0px"
	 viewBox="0 0 557 557" style="enable-background:new 0 0 557 557;" xml:space="preserve">
<style type="text/css">
	.st0{fill:#008BB5;}
	.st1{fill:none;stroke:#FFFFFF;stroke-width:10;stroke-linecap:round;stroke-miterlimit:10;stroke-dasharray:40.9147,40.9147;}
	.st2{fill:#FFFFFF;}
</style>
<circle class="st0" cx="278.5" cy="278.5" r="278.5"/>
<g>
	<circle class="st1" cx="278.5" cy="278.5" r="247.4"/>
</g>
<g>
	<path class="st2" d="M252.8,414.2h-30.1c-75,0-135.7-60.8-135.7-135.7v0c0-75,60.8-135.7,135.7-135.7h30.1c4.4,0,8,3.6,8,8v255.5
		C260.7,410.7,257.2,414.2,252.8,414.2z"/>
	<path class="st2" d="M304.2,414.2h30.1c75,0,135.7-60.8,135.7-135.7v0c0-75-60.8-135.7-135.7-135.7h-30.1c-4.4,0-8,3.6-8,8v255.5
		C296.3,410.7,299.8,414.2,304.2,414.2z"/>
</g>
</svg>
