<svg xmlns="http://www.w3.org/2000/svg" width="78.088" height="66" viewBox="0 0 78.088 66">
  <g id="Group_2541" data-name="Group 2541" transform="translate(-780 131)">
    <rect id="Rectangle_655" data-name="Rectangle 655" width="78" height="51" rx="3" transform="translate(780 -116)" fill="#4B88BC" opacity="0.69"/>
    <path id="Path_948" data-name="Path 948" d="M72.7,8.09H41.925a5.381,5.381,0,0,1-4.483-2.4L35.261,2.4A5.381,5.381,0,0,0,30.777,0H5.385A5.389,5.389,0,0,0,0,5.393V21.573a5.389,5.389,0,0,1,5.385-5.393H72.7a5.389,5.389,0,0,1,5.385,5.393v-8.09A5.389,5.389,0,0,0,72.7,8.09Z" transform="translate(780 -131)" fill="#4B88BC"/>
    <g id="speedometer" transform="translate(802 -108)">
      <path id="Path_954" data-name="Path 954" d="M102.588,371.048a16.943,16.943,0,0,0,10.909-4.057,12.967,12.967,0,0,0-21.846-.024A16.94,16.94,0,0,0,102.588,371.048ZM99.594,363h5.989v2H99.594Zm0,0" transform="translate(-85.553 -336.978)" fill="#efefef"/>
      <path id="Path_955" data-name="Path 955" d="M91.754,103.689a10.835,10.835,0,0,0,2.838,6.4,14.829,14.829,0,0,1,16.189-.006,10.833,10.833,0,0,0,2.832-6.394h-1.946v-2h1.946a10.926,10.926,0,0,0-2.5-6.023l-1.374,1.374-1.411-1.411,1.374-1.374a10.926,10.926,0,0,0-6.023-2.5v1.946h-2V91.762a10.926,10.926,0,0,0-6.023,2.5l1.374,1.374-1.411,1.411L94.251,95.67a10.926,10.926,0,0,0-2.5,6.023H93.7v2Zm12.486-3.556a2.994,2.994,0,1,1-4.114,4.114l-3.446-7.56Zm0,0" transform="translate(-85.648 -85.656)" fill="#efefef"/>
      <path id="Path_956" data-name="Path 956" d="M17.035,0A16.939,16.939,0,0,0,4.653,28.6a14.812,14.812,0,0,1,2.668-2.981,12.829,12.829,0,0,1-3.261-8.584,12.976,12.976,0,1,1,25.952,0,12.829,12.829,0,0,1-3.266,8.588,15.019,15.019,0,0,1,2.67,2.979A16.939,16.939,0,0,0,17.035,0Zm0,0" fill="#efefef"/>
      <path id="Path_957" data-name="Path 957" d="M228.2,229.2a1,1,0,0,0,.559-1.825l-2.541-1.155,1.185,2.606A1,1,0,0,0,228.2,229.2Zm0,0" transform="translate(-211.165 -211.165)" fill="#efefef"/>
    </g>
  </g>
</svg>
