<svg xmlns="http://www.w3.org/2000/svg" width="1603" height="1336" viewBox="0 0 1603 1336">
  <g id="Group_2561" data-name="Group 2561" transform="translate(-1663 -2976)">
    <g id="Group_2560" data-name="Group 2560" transform="translate(-1026 -199)">
      <g id="Group_2550" data-name="Group 2550" transform="translate(3697.613 3282)">
        <g id="Group_2549" data-name="Group 2549">
          <path id="Path_1306" data-name="Path 1306" d="M172.384,255.768A127.384,127.384,0,1,1,299.768,128.384,127.533,127.533,0,0,1,172.384,255.768Zm0-175.153a47.769,47.769,0,1,0,47.769,47.769A47.827,47.827,0,0,0,172.384,80.615Z" transform="translate(-45 -1)" fill="#4d91b6"/>
        </g>
      </g>
      <g id="Group_2551" data-name="Group 2551" transform="translate(2997 3345.692)">
        <path id="Path_1307" data-name="Path 1307" d="M124.461,137.977A123.722,123.722,0,0,0,87.95,49.844L76.692,38.586,65.434,49.844a123.749,123.749,0,0,0-36.511,88.134V258.26A63.088,63.088,0,0,0,13,299.946,63.694,63.694,0,1,0,124.461,258.26ZM76.692,85.957a92.2,92.2,0,0,1,15.923,52.036V238.531a62.027,62.027,0,0,0-15.923-2.277,62.721,62.721,0,0,0-15.923,2.261V137.977A92.185,92.185,0,0,1,76.692,85.957Zm0,245.835a31.846,31.846,0,1,1,31.846-31.846A31.878,31.878,0,0,1,76.692,331.792Z" transform="translate(178.076 496.204)" fill="#4d91b6"/>
        <path id="Path_1308" data-name="Path 1308" d="M962.989,428.413l-70.3-26.353V19H765.3V385.229H701.613V194.153H574.229V385.229H510.537V98.615H383.152V244.55a252.876,252.876,0,0,0-63.692-26.082V19H192.076V218.468C82.383,246.858,1,346.393,1,464.844,1,605.317,115.3,719.613,255.768,719.613c112.655,0,208.321-73.58,241.855-175.153H847.8l115.187-43.2a38.9,38.9,0,0,0,0-72.848Zm-388.76-11.337H829v31.846H574.229Zm0,63.692H829v31.846H574.229ZM797.151,50.846h63.692V390.118L847.8,385.229H797.151ZM606.075,226h63.692v159.23H606.075ZM86.093,377.316l-29.41-12.181A223.183,223.183,0,0,1,87.51,319.069l22.563,22.563A191.434,191.434,0,0,0,86.093,377.316ZM73.927,406.757a189.608,189.608,0,0,0-8.567,42.164h-31.7A221.415,221.415,0,0,1,44.39,394.512Zm58.66-87.608L110.009,296.57a223.393,223.393,0,0,1,46.065-30.827l12.149,29.33a190.5,190.5,0,0,0-35.636,24.076Zm65.077-36.193-12.213-29.489a221.29,221.29,0,0,1,54.393-10.732v31.8A189.589,189.589,0,0,0,197.665,282.956Zm74.026-40.222a221.29,221.29,0,0,1,54.393,10.732l-12.213,29.489a189.589,189.589,0,0,0-42.18-8.423Zm83.787,23.009a223.182,223.182,0,0,1,46.065,30.827l-22.579,22.579a191.794,191.794,0,0,0-35.636-24.076Zm68.564,53.342A223.394,223.394,0,0,1,454.87,365.15l-29.41,12.181A191.494,191.494,0,0,0,401.5,341.664Zm43.1,75.427a221.269,221.269,0,0,1,10.732,54.409h-31.7a188.731,188.731,0,0,0-8.582-42.164ZM415,130.461h63.692V341.775A256.316,256.316,0,0,0,415,266.284ZM223.922,50.846h63.692V212.289a253.226,253.226,0,0,0-31.846-2.213,253.226,253.226,0,0,0-31.846,2.213Zm31.846,636.921c-117.544,0-213.894-91.51-222.11-207h62.88V464.844c0-87.8,71.431-159.23,159.23-159.23S415,377.045,415,464.844v15.923h62.88c-8.216,115.49-104.566,207-222.11,207ZM505.887,417.075h36.5v95.538h-36.5a247.713,247.713,0,0,0,0-95.538ZM951.8,471.452l-90.952,34.107v-81.43l90.936,34.091a7.061,7.061,0,0,1,.016,13.232Z" transform="translate(-1 203.922)" fill="#8693a2"/>
        <path id="Path_1309" data-name="Path 1309" d="M67.426,126.761l73.867-92.338a128.3,128.3,0,0,1-24.9-19.856l-73.755,92.21A63.814,63.814,0,0,1,67.426,126.761Z" transform="translate(620.305 137.769)" fill="#8693a2"/>
        <path id="Path_1310" data-name="Path 1310" d="M112.753,59.575-155.324-81.814c-4.411,9.824-8.723,16.811-16,24.533L95.094,86.071a63.183,63.183,0,0,1,17.659-26.5Z" transform="translate(481.924 195.655)" fill="#8693a2"/>
        <path id="Path_1312" data-name="Path 1312" d="M115.174,10.314c-7.4-7.643,3.869-28.693,0-38.788L9.588,41.693A79.318,79.318,0,0,1,26.626,68.6Z" transform="translate(127.159 126.024)" fill="#8693a2"/>
        <path id="Path_1313" data-name="Path 1313" d="M112.692,132.384A63.692,63.692,0,1,0,49,68.692,63.756,63.756,0,0,0,112.692,132.384Zm0-95.538A31.846,31.846,0,1,1,80.846,68.692,31.878,31.878,0,0,1,112.692,36.846Z" transform="translate(715.305 -5)" fill="#8693a2"/>
      </g>
      <g id="Group_2553" data-name="Group 2553" transform="translate(3570.229 3552.537)">
        <g id="Group_2552" data-name="Group 2552">
          <path id="Path_1314" data-name="Path 1314" d="M100.692,147.384a63.692,63.692,0,1,1,63.692-63.692A63.756,63.756,0,0,1,100.692,147.384Z" transform="translate(-37 -20)" fill="#4d91b6"/>
        </g>
      </g>
      <g id="Group_2557" data-name="Group 2557" transform="translate(3211.153 3377.538)">
        <g id="Group_2556" data-name="Group 2556">
          <path id="Path_1316" data-name="Path 1316" d="M91.615,166.23A79.615,79.615,0,1,1,171.23,86.615,79.705,79.705,0,0,1,91.615,166.23Z" transform="translate(-12 -7)" fill="#4d91b6"/>
        </g>
      </g>
      <g id="Group_2559" data-name="Group 2559" transform="translate(2997 3488.999)">
        <g id="Group_2558" data-name="Group 2558">
          <path id="Path_1317" data-name="Path 1317" d="M80.615,173.23A79.615,79.615,0,1,1,160.23,93.615,79.705,79.705,0,0,1,80.615,173.23Z" transform="translate(-1 -14)" fill="#4d91b6"/>
        </g>
      </g>
    </g>
    <rect id="Rectangle_690" data-name="Rectangle 690" width="1603" height="1336" transform="translate(1663 2976)" fill="none"/>
    <text id="KPI" transform="translate(2315 4235)" fill="#4d91b6" font-size="175" font-family="GothamRounded-Bold, Gotham Rounded" font-weight="700"><tspan x="0" y="0">KPI</tspan></text>
  </g>
</svg>
