<svg id="dashboard_5_" data-name="dashboard (5)" xmlns="http://www.w3.org/2000/svg" width="62.221" height="49.461" viewBox="0 0 62.221 49.461">
  <g id="dashboard_5_2" data-name="dashboard (5)" transform="translate(0 -52.499)" opacity="0.31">
    <g id="Group_4737" data-name="Group 4737" transform="translate(0 52.499)">
      <g id="Group_4736" data-name="Group 4736" transform="translate(0 0)">
        <path id="Path_2219" data-name="Path 2219" d="M225.087,124.21a2.431,2.431,0,0,0-3.088-.29c-3.637,2.479-21.878,14.944-23.839,16.9a7.292,7.292,0,0,0,10.312,10.312c1.96-1.96,14.425-20.2,16.9-23.839A2.431,2.431,0,0,0,225.087,124.21ZM205.035,147.7a2.43,2.43,0,0,1-3.438-3.437c.762-.753,5.941-4.446,12.313-8.876C209.481,141.759,205.788,146.938,205.035,147.7Z" transform="translate(-172.206 -114.87)" fill="#39afd1"/>
        <path id="Path_2220" data-name="Path 2220" d="M11.208,94.914l-3,1.464A26.127,26.127,0,0,1,6.57,74.29l3.438,1.649a2.431,2.431,0,1,0,2.1-4.383L8.716,69.928A26.283,26.283,0,0,1,28.68,57.472v3.656a2.43,2.43,0,0,0,4.861,0V57.47a25.948,25.948,0,0,1,8.357,2.2,2.43,2.43,0,1,0,2-4.43A31.085,31.085,0,0,0,5.271,100.88a2.43,2.43,0,0,0,3.086.834l4.983-2.43a2.431,2.431,0,1,0-2.131-4.369Z" transform="translate(0 -52.499)" fill="#39afd1"/>
        <path id="Path_2221" data-name="Path 2221" d="M402.079,192.925a2.43,2.43,0,1,0-4.43,2A26.164,26.164,0,0,1,396.6,218.5l-3.133-1.492a2.431,2.431,0,1,0-2.09,4.389l5.1,2.431a2.43,2.43,0,0,0,3.065-.844,31.037,31.037,0,0,0,2.529-30.058Z" transform="translate(-342.6 -174.603)" fill="#39afd1"/>
      </g>
    </g>
  </g>
</svg>
