<svg xmlns="http://www.w3.org/2000/svg" width="35.695" height="35.695" viewBox="0 0 35.695 35.695">
  <g id="_001-performance" data-name="001-performance" transform="translate(-1 -1)">
    <path id="Path_316" data-name="Path 316" d="M17.03,42.18a4.473,4.473,0,0,0-1.32-3.187l-.407-.407-.407.407a4.474,4.474,0,0,0-1.32,3.187v4.349A2.281,2.281,0,0,0,13,48.036a2.3,2.3,0,1,0,4.03-1.507ZM15.3,40.3a3.334,3.334,0,0,1,.576,1.881v3.635a2.243,2.243,0,0,0-.576-.082,2.268,2.268,0,0,0-.576.082V42.18A3.333,3.333,0,0,1,15.3,40.3Zm0,8.889a1.151,1.151,0,1,1,1.151-1.151A1.153,1.153,0,0,1,15.3,49.188Z" transform="translate(-5.091 -15.947)" fill="#20ac9e"/>
    <path id="Path_317" data-name="Path 317" d="M35.783,33.8l-2.542-.953V19H28.635V32.242h-2.3V25.333H21.726v6.909h-2.3V21.879H14.818v5.277a9.143,9.143,0,0,0-2.3-.943V19H7.909v7.212A9.206,9.206,0,1,0,18.956,38H31.618l4.165-1.562a1.407,1.407,0,0,0,0-2.634Zm-14.056-.41h9.212v1.151H21.726Zm0,2.3h9.212v1.151H21.726Zm8.06-15.545h2.3V32.419l-.472-.177H29.787Zm-6.909,6.333h2.3v5.757h-2.3Zm-18.8,5.471-1.063-.44A8.07,8.07,0,0,1,4.128,29.85l.816.816a6.922,6.922,0,0,0-.867,1.29Zm-.44,1.065a6.856,6.856,0,0,0-.31,1.525H2.181a8.006,8.006,0,0,1,.388-1.967Zm2.121-3.168-.816-.816a8.077,8.077,0,0,1,1.666-1.115l.439,1.06a6.888,6.888,0,0,0-1.288.871Zm2.353-1.309-.442-1.066a8,8,0,0,1,1.967-.388v1.15A6.855,6.855,0,0,0,8.111,28.544Zm2.677-1.454a8,8,0,0,1,1.967.388l-.442,1.066a6.855,6.855,0,0,0-1.525-.3Zm3.029.832a8.07,8.07,0,0,1,1.666,1.115l-.816.816a6.935,6.935,0,0,0-1.288-.871ZM16.3,29.85a8.077,8.077,0,0,1,1.115,1.666l-1.063.44a6.924,6.924,0,0,0-.866-1.29Zm1.559,2.727a8,8,0,0,1,.388,1.967H17.1a6.824,6.824,0,0,0-.31-1.525ZM15.969,23.03h2.3v7.641a9.268,9.268,0,0,0-2.3-2.73ZM9.06,20.151h2.3v5.837a9.156,9.156,0,0,0-1.151-.08,9.156,9.156,0,0,0-1.151.08Zm1.151,23.029A8.064,8.064,0,0,1,2.181,35.7H4.454V35.12a5.757,5.757,0,1,1,11.515,0V35.7h2.274a8.064,8.064,0,0,1-8.031,7.485Zm9.044-9.787h1.32v3.454h-1.32a8.957,8.957,0,0,0,0-3.454Zm16.123,1.966-3.289,1.233V33.648l3.288,1.233a.255.255,0,0,1,0,.478Z" transform="translate(0 -7.637)" fill="#20ac9e"/>
    <path id="Path_318" data-name="Path 318" d="M51.3,9.606A2.3,2.3,0,1,0,49,7.3,2.305,2.305,0,0,0,51.3,9.606Zm0-3.454A1.151,1.151,0,1,1,50.151,7.3,1.153,1.153,0,0,1,51.3,6.151Z" transform="translate(-20.365 -1.697)" fill="#20ac9e"/>
    <path id="Path_319" data-name="Path 319" d="M3.879,14.242a2.882,2.882,0,0,0,2.879-2.879,2.848,2.848,0,0,0-.2-1.024L8.146,9.33a2.856,2.856,0,0,0,4.547-.563l1.018.34a3.418,3.418,0,0,0-.045.53A3.45,3.45,0,0,0,19.631,12l2.232,1.488a2.264,2.264,0,0,0-.137.752,2.3,2.3,0,0,0,4.606,0,2.282,2.282,0,0,0-.466-1.374l2.671-3.339a4.6,4.6,0,1,0-.9-.718L24.97,12.145a2.26,2.26,0,0,0-2.468.386l-2.23-1.487a3.452,3.452,0,0,0-6.2-3.031l-1.017-.339a2.787,2.787,0,0,0,.035-.341,2.879,2.879,0,0,0-5.757,0,2.846,2.846,0,0,0,.2,1.024L5.944,9.367a2.876,2.876,0,1,0-2.066,4.875ZM30.938,2.151a3.454,3.454,0,1,1-3.454,3.454A3.458,3.458,0,0,1,30.938,2.151ZM24.029,13.09a1.151,1.151,0,1,1-1.151,1.151A1.153,1.153,0,0,1,24.029,13.09ZM17.12,7.333a2.3,2.3,0,1,1-2.3,2.3A2.305,2.305,0,0,1,17.12,7.333ZM10.212,5.606A1.727,1.727,0,1,1,8.485,7.333,1.729,1.729,0,0,1,10.212,5.606ZM3.879,9.636a1.727,1.727,0,1,1-1.727,1.727A1.729,1.729,0,0,1,3.879,9.636Z" fill="#20ac9e"/>
  </g>
</svg>
