<svg id="language" xmlns="http://www.w3.org/2000/svg" width="16.17" height="16.17" viewBox="0 0 16.17 16.17">
  <path id="Path_10" data-name="Path 10" d="M8.085,0A8.085,8.085,0,1,0,16.17,8.085,8.109,8.109,0,0,0,8.085,0Zm5.579,4.851H11.319A12.778,12.778,0,0,0,10.187,1.94,6.508,6.508,0,0,1,13.664,4.851ZM8.085,1.617A10.856,10.856,0,0,1,9.621,4.851H6.549A11.888,11.888,0,0,1,8.085,1.617ZM1.86,9.7a5.213,5.213,0,0,1-.243-1.617A5.213,5.213,0,0,1,1.86,6.468H4.608a10.836,10.836,0,0,0-.081,1.617c0,.566.081,1.051.081,1.617Zm.647,1.617H4.851A12.778,12.778,0,0,0,5.983,14.23,6.508,6.508,0,0,1,2.506,11.319ZM4.851,4.851H2.506A6.814,6.814,0,0,1,5.983,1.94,12.778,12.778,0,0,0,4.851,4.851Zm3.234,9.7a10.856,10.856,0,0,1-1.536-3.234H9.621A11.888,11.888,0,0,1,8.085,14.553ZM9.945,9.7H6.225a10.957,10.957,0,0,1-.162-1.617,10.957,10.957,0,0,1,.162-1.617h3.8a10.957,10.957,0,0,1,.162,1.617A11.161,11.161,0,0,1,9.945,9.7Zm.243,4.528a11.471,11.471,0,0,0,1.132-2.911h2.345A6.508,6.508,0,0,1,10.187,14.23ZM11.642,9.7a10.835,10.835,0,0,0,.081-1.617c0-.566-.081-1.051-.081-1.617h2.749a5.213,5.213,0,0,1,.243,1.617A5.214,5.214,0,0,1,14.391,9.7Z" fill="#384e64"/>
</svg>
