<?xml version="1.0" encoding="utf-8"?>
<!-- Generator: Adobe Illustrator 25.0.0, SVG Export Plug-In . SVG Version: 6.00 Build 0)  -->
<svg version="1.1" id="Layer_1" xmlns="http://www.w3.org/2000/svg" xmlns:xlink="http://www.w3.org/1999/xlink" x="0px" y="0px"
	 viewBox="0 0 300 229.7" style="enable-background:new 0 0 300 229.7;" xml:space="preserve">
<style type="text/css">
	.st0{fill:#109AA4;}
</style>
<path class="st0" d="M40.2,6.9C31-2.3,16.1-2.3,6.9,6.9s-9.2,24.1,0,33.3c7.9,7.9,20.3,9.2,29.7,3l21.2,21.2c1.7-2.6,4-4.9,6.6-6.6
	L43.2,36.6C49.4,27.2,48.2,14.8,40.2,6.9z M33.6,33.6c-5.5,5.5-14.5,5.5-20.1,0C8,28.1,8,19.1,13.5,13.5s14.5-5.5,20.1,0
	c2.7,2.7,4.2,6.3,4.2,10C37.8,27.3,36.3,31,33.6,33.6z"/>
<path class="st0" d="M276.4,182.6c-4.6,0-9.2,1.4-13,3.9l-21.2-21.2c-1.7,2.6-4,4.9-6.6,6.6l21.2,21.2c-7.2,10.9-4.2,25.5,6.6,32.7
	c10.9,7.2,25.5,4.2,32.7-6.6c7.2-10.9,4.2-25.5-6.6-32.7C285.6,183.9,281.1,182.6,276.4,182.6L276.4,182.6z M286.5,216.2
	c-5.5,5.5-14.5,5.5-20.1,0c-5.5-5.5-5.5-14.5,0-20.1c5.5-5.5,14.5-5.5,20.1,0c0,0,0,0,0,0C292,201.6,292,210.6,286.5,216.2z"/>
<path class="st0" d="M57.8,165.3l-21.2,21.2c-10.8-7.2-25.5-4.2-32.7,6.6s-4.2,25.5,6.6,32.7s25.5,4.2,32.7-6.6
	c5.2-7.9,5.2-18.1,0-26l21.2-21.2C61.8,170.1,59.5,167.9,57.8,165.3z M33.6,216.2c-5.5,5.5-14.5,5.5-20.1,0
	c-5.5-5.5-5.5-14.5,0-20.1c5.5-5.5,14.5-5.5,20.1,0c2.7,2.7,4.2,6.3,4.2,10C37.8,209.9,36.3,213.5,33.6,216.2z"/>
<path class="st0" d="M242.2,64.4l21.2-21.2c10.8,7.2,25.5,4.2,32.7-6.6c7.2-10.8,4.2-25.5-6.6-32.7s-25.5-4.2-32.7,6.6
	c-5.2,7.9-5.2,18.1,0,26l-21.2,21.2C238.2,59.5,240.5,61.8,242.2,64.4z M266.4,13.5c5.5-5.5,14.5-5.5,20.1,0s5.5,14.5,0,20.1
	s-14.5,5.5-20.1,0c-2.7-2.7-4.2-6.3-4.2-10C262.2,19.8,263.7,16.2,266.4,13.5L266.4,13.5z"/>
<path class="st0" d="M222.7,63.3H77.3c-7.8,0-14.1,6.3-14.1,14.1v75c0,7.8,6.3,14.1,14.1,14.1h68v9.4h-15.2c-2.6,0-4.7,2.1-4.7,4.7
	s2.1,4.7,4.7,4.7l0,0h39.8c2.6,0,4.7-2.1,4.7-4.7s-2.1-4.7-4.7-4.7l0,0h-15.2v-9.4h68c7.8,0,14.1-6.3,14.1-14.1v-75
	C236.7,69.6,230.4,63.3,222.7,63.3z M227.3,152.3c0,2.6-2.1,4.7-4.7,4.7H77.3c-2.6,0-4.7-2.1-4.7-4.7v-75c0-2.6,2.1-4.7,4.7-4.7
	h145.3c2.6,0,4.7,2.1,4.7,4.7V152.3z"/>
</svg>
