<?xml version="1.0" encoding="utf-8"?>
<!-- Generator: Adobe Illustrator 25.0.0, SVG Export Plug-In . SVG Version: 6.00 Build 0)  -->
<svg version="1.1" id="Layer_1" xmlns="http://www.w3.org/2000/svg" xmlns:xlink="http://www.w3.org/1999/xlink" x="0px" y="0px"
	 viewBox="0 0 281.3 281.3" style="enable-background:new 0 0 281.3 281.3;" xml:space="preserve">
<style type="text/css">
	.st0{fill:#109AA4;}
</style>
<path class="st0" d="M277.1,174.6c2.7-11,4.1-22.5,4.1-33.9C281.3,63.1,218.2,0,140.6,0S0,63.1,0,140.6c0,47.3,23.6,91.1,63,117.3
	l5.2-7.8C32.7,226.6,11,187.6,9.5,145.3h100.8c-8.7,5.4-14.9,15.3-16.5,27.5c-1.7,12.4-13.5,49.3-13.7,49.9
	c-0.3,1.1-0.4,2.3-0.4,3.4c0,7.1,5.8,13,13,13h16.2c-2.6,2.9-6.3,4.7-10.4,4.7c-12.9,0-23.4,10.5-23.4,23.4v9.4
	c0,2.6,2.1,4.7,4.7,4.7h93.8h103.1c2.6,0,4.7-2.1,4.7-4.7v-9.4c0-12.9-10.5-23.4-23.4-23.4c-7.8,0-14.1-6.3-14.1-14.1v-4.5
	c11.6-8.7,18.8-22.3,18.8-37.2v-14.5c0-18.1-14.7-32.8-32.8-32.8h-9.4c-18.1,0-32.8,14.7-32.8,32.8V188c0,14.9,7.2,28.6,18.8,37.2
	v4.5c0,7.8-6.3,14.1-14.1,14.1c-5.3,0-10.1,1.8-14,4.8c-4-3.1-9-4.8-14.1-4.8c-4.2,0-7.9-1.9-10.5-4.8l15.6-0.1
	c7.4,0,13.7-5.8,13.7-12.7c0-1.1-0.2-2.3-0.5-3.5c-5-17.6-13.2-46.7-13.6-49.7c-1.2-12.3-9.9-25.2-22.2-30.2l111.9-59.9
	c8.6,17.4,13.4,37,13.4,57.7c0,10.7-1.3,21.4-3.8,31.7L277.1,174.6z M145.3,9.5c32.7,1.2,62.3,14.3,84.7,35.1l-84.7,84.7V9.5z
	 M135.9,9.5v126.4H9.5C11.9,67.3,67.3,11.9,135.9,9.5z M136.8,222.2c-3.5,1.5-7.6,1.5-11.1,0c-6.3-2.7-14.6-8.3-17.3-15
	c-1.1-2.8-0.3-6.8,1.9-10.1c1.9-2.9,4.6-4.6,7.1-4.6c10.3,0,19.3-5.6,24.1-13.9c0.7,0.8,1.5,1.6,2.3,2.4c1.5,1.4,2.7,2.8,3.9,4.5
	c0,0,0,0,0,0c0.8,1.2,1.6,2.4,2.3,3.8c2.7,5.2,5.3,12.6,4.7,16.4C153.8,211.6,144.7,218.8,136.8,222.2z M122,230.8
	c2.9,1.3,6.1,1.9,9.2,1.9s6.3-0.6,9.2-1.9c0.1,0,0.2-0.1,0.2-0.1c0.2,4.3,1.5,8.3,3.7,11.7l-13,5.6l-12.9-6.4
	c1.9-3.2,3-6.9,3.2-10.8C121.8,230.8,122,230.8,122,230.8z M84.4,267.2c0-7.8,6.3-14.1,14.1-14.1c5.1,0,9.7-1.7,13.6-4.4l14.6,7.3
	v15.9H84.4V267.2z M257.8,253.1c7.8,0,14.1,6.3,14.1,14.1v4.7h-42.2v-15.7l15.7-6.7C249,251.8,253.2,253.1,257.8,253.1z M220.3,150
	h9.4c12.9,0,23.4,10.5,23.4,23.4v9c-6.6-1.9-11.7-7.3-13.1-14.3l-1-5c-0.5-2.4-2.7-3.9-5.1-3.6c-2.4,0.2-4.2,2.4-4.2,4.8
	c0,10.2-8.3,18.7-18.6,18.8l-14.2,0.2v-9.8C196.9,160.5,207.4,150,220.3,150z M197.2,192.6l14-0.2c9.7-0.1,18.3-5.2,23.3-12.9
	c4,6.5,10.6,11,18.3,12.6c-1.5,13.2-9.8,24.8-22.3,30.2c-3.5,1.5-7.6,1.5-11.1,0C207.2,217,198.8,205.6,197.2,192.6z M215.8,230.8
	c2.9,1.3,6.1,1.9,9.2,1.9s6.3-0.6,9.2-1.9l0,0c0.1,0,0.2-0.1,0.2-0.1c0.2,4.3,1.5,8.3,3.7,11.7l-13,5.6l-12.9-6.4
	c1.9-3.2,3.1-6.9,3.2-10.8C215.6,230.7,215.7,230.8,215.8,230.8z M192.2,253.1c5.1,0,9.7-1.7,13.6-4.4l14.6,7.3v15.9h-42.2v-4.7
	C178.1,259.4,184.4,253.1,192.2,253.1z M164.1,253.1c2.9,0,5.5,0.9,7.9,2.5c-2,3.4-3.2,7.3-3.2,11.6v4.7h-32.8v-15.7l15.7-6.7
	C155.3,251.8,159.5,253.1,164.1,253.1z M159.4,173.9c0.4,3.7,10.8,40.2,13.9,51.2c0.1,0.3,0.1,0.6,0.1,0.9c0,1.7-2.1,3.3-4.4,3.3
	l-19.1,0.2v-4.1c6.4-4.4,12.8-10.8,14-18.3c1.2-8-4-19-5.6-22.1c-0.9-1.8-1.9-3.4-2.9-4.9c-1.5-2.2-3.2-4.2-5.2-6
	c-2.3-2.1-3.7-4.2-4-6l-1-5c-0.5-2.4-2.6-4-5.1-3.7c-2.4,0.2-4.2,2.3-4.2,4.7v0.5c0,10.2-8.3,18.5-18.6,18.5
	c-5.7,0.1-11.1,3.3-14.8,8.8c-4,5.9-5.1,13.1-2.8,18.8c2.6,6.6,7.9,11.5,12.8,14.9v4.2H92.6c-2,0-3.6-1.6-3.6-3.6
	c0-0.3,0-0.6,0.1-0.7c0.5-1.5,12.2-38.1,14-51.3c1.6-12,9.5-24.1,23.5-24.1h9.4C148.3,150,158.2,162.6,159.4,173.9z M166.3,121.6
	l70.3-70.3c6.6,7.1,12.4,14.9,17.4,23.4L166.3,121.6z"/>
</svg>
