<?xml version="1.0" encoding="utf-8"?>
<!-- Generator: Adobe Illustrator 25.0.0, SVG Export Plug-In . SVG Version: 6.00 Build 0)  -->
<svg version="1.1" id="Layer_1" xmlns="http://www.w3.org/2000/svg" xmlns:xlink="http://www.w3.org/1999/xlink" x="0px" y="0px"
	 viewBox="0 0 302.5 302.5" style="enable-background:new 0 0 302.5 302.5;" xml:space="preserve">
<style type="text/css">
	.st0{fill-rule:evenodd;clip-rule:evenodd;fill:#B71E3E;}
</style>
<g>
	<path class="st0" d="M170.8,0c7,0,12.7,5.5,13.1,12.3l0,0l5.6,30.6c0.1,0.4,0.1,0.7,0.1,1.1c0,0.3,0.1,0.6,0.2,0.8
		c5.9,2.1,11.5,4.7,16.9,7.8l0,0l24.6-17.2c5.1-4.6,13-4.5,18,0.3l0,0L272,58.1c2.5,2.4,3.9,5.7,3.9,9.2c0,3.3-1.2,6.4-3.3,8.8l0,0
		L255,101.7c-0.2,0.3-0.5,0.6-0.7,0.9c-0.2,0.2-0.3,0.5-0.4,0.8c2.6,5.6,4.8,11.5,6.5,17.4l0,0l29.6,5.3c3.2,0.1,6.3,1.5,8.6,3.8
		c2.5,2.5,3.9,5.8,3.9,9.3l0,0l0.1,31.7c0,3.4-1.3,6.7-3.8,9.2c-2.3,2.3-5.3,3.7-8.6,3.9l0,0l-30.5,5.7c-0.4,0.1-0.7,0.1-1.1,0.1
		c-0.3,0-0.6,0.1-0.8,0.3c-2.1,5.9-4.8,11.5-7.8,16.9l0,0l17.2,24.6c2.2,2.4,3.4,5.5,3.4,8.8c0,3.5-1.3,6.8-3.8,9.2l0,0L244.4,272
		c-2.5,2.5-5.8,3.9-9.3,3.9l0,0c-3.3,0-6.3-1.2-8.7-3.4l0,0L200.8,255c-0.3-0.2-0.6-0.4-0.8-0.7c-0.3-0.3-0.6-0.4-0.8-0.4
		c-5.5,2.6-11.3,4.7-17.5,6.4l0,0l-5.3,29.6c-0.3,6.9-6,12.4-13,12.5l0,0l-12.2,0l-19.6,0.1c-7,0-12.7-5.5-13.1-12.3l0,0l-5.7-30.5
		c-0.1-0.4-0.1-0.7-0.1-1.1c0-0.3-0.1-0.6-0.3-0.8c-5.8-2.1-11.5-4.7-16.9-7.7l0,0l-24.6,17.2c-2.4,2.2-5.5,3.4-8.8,3.4l0,0
		c-3.5,0-6.8-1.3-9.2-3.8l0,0l-22.5-22.4c-2.5-2.4-3.9-5.7-3.9-9.2c0-3.3,1.2-6.4,3.3-8.7l0,0l17.6-25.6c0.2-0.3,0.4-0.6,0.7-0.8
		c0.2-0.2,0.3-0.5,0.4-0.8c-2.7-5.7-4.8-11.6-6.5-17.5l0,0l-29.6-5.2c-6.9-0.3-12.4-6-12.4-13l0,0L0,131.7c0-3.5,1.3-6.8,3.8-9.3
		c2.3-2.3,5.3-3.7,8.6-3.8l0,0l30.5-5.7c0.4-0.1,0.7-0.1,1.1-0.1c0.3,0,0.6-0.1,0.8-0.3c2.1-5.8,4.7-11.5,7.8-16.9l0,0L35.3,71.1
		c-2.2-2.4-3.4-5.5-3.4-8.8c0-3.5,1.3-6.8,3.8-9.2l0,0l22.4-22.6c4.9-4.9,12.8-5.1,18-0.6l0,0l25.6,17.6c0.3,0.2,0.6,0.5,0.9,0.7
		c0.2,0.2,0.4,0.3,0.7,0.4c5.6-2.6,11.5-4.8,17.5-6.5l0,0l5.2-29.6c0.3-6.8,6-12.4,13-12.4l0,0l12.3,0L170.8,0L170.8,0L170.8,0z
		 M166.1,18.9L151.3,19l-8.1,0c-0.1,0-0.2,0.1-0.2,0.2c0,0.4,0,0.7-0.1,1.1l0,0l-5.2,29.2c-0.1,1.7-0.5,3.4-1.2,4.9
		c-0.8,1.7-2.3,3-4.2,3.4c-6.6,1.6-19.2,6-25.4,8.9c-0.5,0.3-1.1,0.4-1.7,0.5c-4.1,0.7-8.3-0.6-11.4-3.4l0,0L69.4,47.2
		c-0.3-0.2-0.6-0.4-0.8-0.7l0,0L52.2,62.9c0.3,0.3,0.5,0.8,0.7,1.1l0,0l17,24.3c1.1,1.2,2,2.6,2.6,4.2c0.7,1.8,0.5,3.8-0.5,5.5
		c-3.6,5.8-9.3,20.9-11.6,27.4c-0.2,0.6-0.5,1.1-0.8,1.6c-2.4,3.4-6.3,5.5-10.4,5.7l0,0l-29.2,5.4c-0.4,0.1-0.7,0.1-1.1,0.1l0,0
		L18.9,158c0,0.1,0.1,0.2,0.2,0.2c0.4,0,0.7,0,1.1,0.1l0,0l29.3,5.2c1.7,0.1,3.3,0.5,4.9,1.2c1.8,0.8,3,2.3,3.5,4.2
		c1.5,6.4,6.1,20.6,9.2,26.9c0.3,0.5,0.4,1.1,0.5,1.7c0.6,4.1-0.6,8.3-3.3,11.4l0,0l-16.9,24.5c-0.2,0.3-0.5,0.6-0.7,0.9l0,0
		l16.2,16c0.3-0.3,0.8-0.5,1.1-0.7l0,0l24.4-17c1.2-1.1,2.6-2,4.2-2.6c1.8-0.7,3.7-0.3,5.5,0.5c6.6,2.8,18.9,9.4,25.3,11.6
		c0.6,0.2,1.2,0.5,1.7,0.9c3.4,2.5,5.4,6.3,5.6,10.4l0,0l5.4,29.2c0.1,0.4,0.1,0.7,0.1,1.1l0,0l11.5,0.1l11.7,0
		c0-0.4,0.2-0.9,0.3-1.3l0,0l5.2-30.7c0.1-1.5,0.4-3.1,1.1-4.7c0.7-1.8,2.4-3,4.3-3.7c7.8-2.9,19.2-6.5,25.8-9.4
		c0.6-0.2,1.2-0.5,1.8-0.5c4.1-0.6,8.2,0.6,11.3,3.3l0,0l24.5,18.3c0.3,0.2,0.6,0.5,0.9,0.7l0,0l15.6-15.1c-0.3-0.3-0.5-0.8-0.7-1.1
		l0,0l-17.6-25.3c-1.1-1.2-2-2.6-2.6-4.2c-0.7-1.8-0.6-3.8,0.5-5.5c3.5-5.8,9.5-19.5,11.8-26c0.2-0.6,0.5-1.1,0.8-1.6
		c2.4-3.4,6.3-5.5,10.4-5.7l0,0l29.8-4.5c0.4-0.1,0.7-0.1,1.1-0.1l0,0l0-22c-0.3,0-0.9-0.2-1.3-0.3l0,0l-29.2-5.2
		c-1.7-0.1-3.4-0.5-5-1.2c-1.7-0.8-3-2.3-3.4-4.2c-1.6-6.6-6.9-20.9-9.9-27c-0.3-0.6-0.5-1.2-0.6-1.8c-0.6-4.2,0.6-8.2,3.4-11.3l0,0
		l16.8-24.5c0.2-0.3,0.5-0.6,0.7-0.9l0,0l-15.4-15.7c-0.3,0.3-0.8,0.5-1.1,0.7l0,0l-24.4,17c-1.2,1.1-2.5,1.9-4,2.6
		c-1.8,0.8-3.9,0.6-5.6-0.4c-5.8-3.5-19-9.6-25.5-11.8c-0.6-0.2-1.1-0.5-1.6-0.8c-3.4-2.4-5.5-6.3-5.7-10.4l0,0l-5.4-29.2
		c-0.1-0.3-0.1-0.7-0.1-1.1C166.3,19,166.2,18.9,166.1,18.9L166.1,18.9z M151.3,94.5c15.1,0,29.3,5.8,40,16.4
		c22.2,22.1,22.3,58,0.3,80.2c-10.7,10.8-25,16.8-40.3,16.8c-15,0-29.2-5.8-40-16.4c-22.2-22-22.4-58-0.3-80.2
		C121.7,100.5,136,94.5,151.3,94.5z M151.3,113.4c-10.2,0-19.7,4-26.9,11.2c-14.7,14.8-14.6,38.8,0.2,53.5c7.2,7.1,16.6,11,26.7,11
		c10.2,0,19.7-4,26.8-11.2c14.7-14.8,14.6-38.8-0.2-53.5C170.8,117.3,161.3,113.4,151.3,113.4z"/>
</g>
</svg>
