<?xml version="1.0" encoding="utf-8"?>
<!-- Generator: Adobe Illustrator 25.0.0, SVG Export Plug-In . SVG Version: 6.00 Build 0)  -->
<svg version="1.1" id="Layer_1" xmlns="http://www.w3.org/2000/svg" xmlns:xlink="http://www.w3.org/1999/xlink" x="0px" y="0px"
	 viewBox="0 0 57.8 57.8" style="enable-background:new 0 0 57.8 57.8;" xml:space="preserve">
<style type="text/css">
	.st0{fill:#109AA4;stroke:#FFFFFF;stroke-width:0.5;stroke-miterlimit:10;}
</style>
<g transform="translate(-46 -507)">
	<g transform="translate(46.002 507)">
		<g transform="translate(0 0)">
			<path class="st0" d="M56.8,47.5c-0.4-0.6-0.8-1.1-1.4-1.6l-5.3-4.6c-0.1-0.2-0.3-0.3-0.5-0.4l-3.2-2.8L31.7,25.2
				c1.3-1.3,1.3-3.5-0.1-4.8c-0.3-0.3-0.6-0.5-0.9-0.6l1.4-1.4c1.6,0.4,3.2,0,4.4-1.2c1.8-1.8,1.8-4.6,0-6.4c0,0,0,0,0,0l-9.6-9.6
				c-1.8-1.8-4.6-1.8-6.4,0c-1.1,1.1-1.6,2.8-1.2,4.4L5.7,19.3c-0.4-0.1-0.8-0.2-1.2-0.2c-2.5,0-4.5,2-4.5,4.5
				c0,1.2,0.5,2.3,1.3,3.2l9.6,9.6c1.8,1.8,4.6,1.8,6.4,0c1.1-1.1,1.6-2.8,1.2-4.4l1.4-1.4c0.8,1.7,2.8,2.4,4.5,1.6
				c0.3-0.2,0.6-0.4,0.9-0.6L41,49.8c0,0.1,0.1,0.1,0.2,0.2c0,0,0,0,0.1,0.1l4.7,5.4c0.1,0.1,0.2,0.3,0.4,0.4c1.3,1.3,3,2,4.8,2
				c0.3,0,0.6,0,1-0.1c2.1-0.3,4-1.6,5-3.5C58.2,52.1,58.1,49.5,56.8,47.5z M22.1,2.9C23,2,24.4,2,25.3,2.9c0,0,0,0,0,0l9.6,9.6
				c0.9,0.9,0.8,2.3-0.1,3.2c-0.9,0.8-2.2,0.8-3.1,0l-9.6-9.6l0,0C21.2,5.2,21.2,3.8,22.1,2.9z M15.7,34.9c-0.9,0.9-2.3,0.9-3.2,0
				c0,0,0,0,0,0l-9.6-9.6C2,24.4,2,23,2.9,22.1s2.3-0.9,3.2,0l0,0l9.6,9.6C16.6,32.6,16.6,34,15.7,34.9
				C15.7,34.9,15.7,34.9,15.7,34.9L15.7,34.9z M20.5,26.9l-3.2,3.2l-9.6-9.6L20.5,7.7l9.6,9.6l-3.2,3.2l0,0L20.5,26.9L20.5,26.9z
				 M24.5,29.3L24.5,29.3l-0.8,0.8c-0.5,0.4-1.2,0.4-1.6-0.1c-0.4-0.4-0.4-1.1,0-1.5l6.4-6.4c0.4-0.4,1.2-0.4,1.6,0
				c0.2,0.2,0.3,0.5,0.3,0.8c0,0.3-0.1,0.6-0.3,0.8l-0.8,0.8l0,0L24.5,29.3z M26.8,30.1l3.3-3.3l14,12.2L39,44.1L26.8,30.1z
				 M40.5,45.8l5.3-5.3l1.7,1.5L42,47.5L40.5,45.8z M55,53.2c-0.7,1.3-1.9,2.1-3.4,2.4c-1.4,0.2-2.8-0.3-3.8-1.3
				c-0.1-0.1-0.2-0.2-0.2-0.3l0,0l-4.1-4.7l5.8-5.8l4.7,4.1l0,0c0.4,0.3,0.7,0.7,0.9,1.1C55.7,50,55.8,51.8,55,53.2z"/>
		</g>
	</g>
</g>
</svg>
