<?xml version="1.0" encoding="utf-8"?>
<!-- Generator: Adobe Illustrator 25.0.0, SVG Export Plug-In . SVG Version: 6.00 Build 0)  -->
<svg version="1.1" id="Layer_1" xmlns="http://www.w3.org/2000/svg" xmlns:xlink="http://www.w3.org/1999/xlink" x="0px" y="0px"
	 viewBox="0 0 225 281.3" style="enable-background:new 0 0 225 281.3;" xml:space="preserve">
<style type="text/css">
	.st0{fill:#B71E3E;}
</style>
<path class="st0" d="M114.3,0h-3.5C49.7,0,0,49.7,0,110.7c0,29.4,11.7,57.5,32.5,78.3l16.1,16.1c7.9,7.9,12.4,18.6,12.4,29.8v18.1
	c0,15.5,12.6,28.1,28.1,28.1h46.9c15.5,0,28.1-12.6,28.1-28.1V235c-0.1-11.2,4.4-21.9,12.4-29.8l16.1-16.1
	c20.8-20.8,32.5-48.9,32.5-78.3C225,49.7,175.3,0,114.3,0z M154.7,253.1c0,10.4-8.4,18.8-18.8,18.8H89.1c-10.4,0-18.8-8.4-18.8-18.8
	v-4.7h84.4V253.1z M154.7,235v4H70.3v-4c0-5-0.7-10-2.1-14.7h88.7C155.4,225.1,154.7,230,154.7,235z M185.9,182.5l-16.1,16.1
	c-3.6,3.6-6.7,7.8-9.1,12.4H64.3c-2.4-4.6-5.5-8.7-9.1-12.4l-16.1-16.1c-19.1-19-29.8-44.8-29.7-71.7C9.4,54.8,54.8,9.4,110.7,9.4
	h3.5c55.9,0,101.4,45.5,101.4,101.4C215.7,137.6,205,163.5,185.9,182.5z"/>
<path class="st0" d="M171.2,61.9l6.3-12.8l-24-17.2l-10.4,9.8l-13.2-4.3l-2.5-14H97.7l-2.5,14L82,41.7l-10.4-9.8l-24,17.2l6.3,12.8
	L45.8,73l-14.1-1.9L22.4,99l12.6,6.7v13.7L22.4,126l9.2,27.9l14.1-1.9l8.1,11.1l-6.3,12.8l24,17.2l10.4-9.8l13.2,4.3l2.5,14h29.6
	l2.5-14l13.2-4.3l10.4,9.8l24-17.2l-6.3-12.8l8.1-11.1l14.1,1.9l9.2-27.9l-12.6-6.7v-13.7l12.6-6.7l-9.3-27.9L179.2,73L171.2,61.9z
	 M191.2,94.5l-10.6,5.6v25l10.6,5.6l-4.3,13L175,142l-14.8,20.2l5.3,10.8l-11.3,8.1l-8.8-8.3l-23.8,7.7l-2.2,11.8h-13.9l-2.2-11.8
	l-23.8-7.7l-8.8,8.3L59.4,173l5.3-10.8L49.9,142L38,143.7l-4.3-13l10.6-5.6v-25l-10.6-5.6l4.3-13l11.9,1.6l14.8-20.2l-5.3-10.8
	L70.7,44l8.8,8.3l23.8-7.7l2.2-11.8h13.9l2.2,11.8l23.8,7.7l8.8-8.3l11.3,8.1l-5.3,10.8L175,83.1l11.9-1.6L191.2,94.5z"/>
<path class="st0" d="M112.5,56.3c-31.1,0-56.3,25.2-56.3,56.3s25.2,56.3,56.3,56.3s56.3-25.2,56.3-56.3
	C168.7,81.4,143.6,56.3,112.5,56.3z M159.1,117.2c-2.6,25.8-25.5,44.5-51.3,42c-22.2-2.2-39.7-19.7-42-42H75v-9.4h-9.1
	c0.9-9.1,4.5-17.9,10.4-25l4.9,4.9l6.6-6.6l-4.9-4.9c7.1-5.9,15.8-9.4,25-10.4V75h9.4v-9.1c9.1,0.9,17.9,4.5,25,10.4l-4.9,4.9
	l6.6,6.6l4.9-4.9c5.9,7.1,9.4,15.8,10.4,25H150v9.4H159.1z"/>
<path class="st0" d="M126.5,80.2c-2.1-1.1-4.7-0.5-6.2,1.2l-24,26.5c-6,6.6-5.4,16.7,1.1,22.7c6.6,6,16.7,5.4,22.7-1.1
	c2.1-2.3,3.5-5.2,4-8.3l5.5-35.3C129.8,83.5,128.6,81.2,126.5,80.2z M114.7,119.7c-0.6,3.6-4,6.2-7.6,5.6s-6.2-4-5.6-7.6
	c0.2-1.3,0.8-2.5,1.6-3.5l14.9-16.5L114.7,119.7z"/>
</svg>
