<?xml version="1.0" encoding="utf-8"?>
<!-- Generator: Adobe Illustrator 25.0.0, SVG Export Plug-In . SVG Version: 6.00 Build 0)  -->
<svg version="1.1" id="Layer_1" xmlns="http://www.w3.org/2000/svg" xmlns:xlink="http://www.w3.org/1999/xlink" x="0px" y="0px"
	 viewBox="0 0 265.8 273" style="enable-background:new 0 0 265.8 273;" xml:space="preserve">
<style type="text/css">
	.st0{fill:#F7A532;}
</style>
<path class="st0" d="M264.3,91.1l-26.4-45.6c-2.7-4.8-8.4-6.9-13.6-5l-30.5,12.3c-5.9-4.3-12.2-8-18.9-11l-4.6-32.4
	C169.5,4,164.8,0,159.3,0h-52.8C101-0.1,96.3,4,95.6,9.4l-4.7,32.5c-6.7,3-13,6.7-18.9,11L41.5,40.5c-5.1-2-11,0.1-13.6,4.9
	L1.5,91.1c-2.8,4.8-1.7,10.9,2.7,14.3l25.9,20.2c-0.9,7.3-0.9,14.6,0,21.9L4.2,167.7c-4.3,3.4-5.4,9.5-2.7,14.2l26.4,45.6
	c2.7,4.8,8.5,6.9,13.6,5L72,220.2c5.9,4.3,12.2,7.9,18.8,10.9l4.7,32.4c0.7,5.5,5.4,9.5,10.9,9.5h52.8c5.5,0.1,10.2-4,10.9-9.4
	l4.7-32.5c6.7-3,13-6.7,18.9-11l30.6,12.4c5.1,2,10.9-0.1,13.6-4.9l26.5-45.8c2.7-4.8,1.5-10.8-2.8-14.2l-25.9-20.2
	c0.9-7.3,0.9-14.6,0-21.9l25.9-20.2C265.9,101.9,267,95.8,264.3,91.1z M256,98.2L228.2,120c-1.2,1-1.9,2.5-1.7,4.1
	c0.6,4.1,0.9,8.2,0.9,12.4c0,4.1-0.3,8.3-0.9,12.4c-0.2,1.6,0.4,3.1,1.7,4.1l27.8,21.8c0.8,0.7,1,1.8,0.5,2.7l-26.5,45.7
	c-0.5,0.9-1.5,1.2-2.4,0.9l-33-13.2c-1.5-0.6-3.1-0.4-4.4,0.6c-6.5,5-13.7,9.2-21.3,12.4c-1.5,0.6-2.5,1.9-2.8,3.5l-4.9,35.2
	c-0.2,1-1,1.6-2,1.6h-52.8c-1,0-1.9-0.7-2-1.7l-5-35.1c-0.2-1.6-1.2-2.9-2.6-3.5c-7.7-3.1-14.9-7.3-21.4-12.3
	c-1.3-1-2.9-1.2-4.4-0.6L38.3,224c-1,0.4-2.1,0-2.6-0.9L9.3,177.5c-0.5-0.9-0.3-2.1,0.5-2.8L37.7,153c1.2-1,1.9-2.5,1.7-4.1
	c-0.6-4.1-0.9-8.2-0.9-12.4c0-4.1,0.3-8.3,0.9-12.4c0.2-1.6-0.4-3.1-1.7-4.1L9.9,98.3c-0.8-0.6-1-1.8-0.5-2.7l26.5-45.8
	c0.5-0.9,1.5-1.2,2.4-0.9l33,13.2c1.4,0.5,2.9,0.2,4.1-0.6c6.6-5,13.8-9.1,21.4-12.3c1.5-0.6,2.5-2,2.8-3.5l4.9-35.2
	c0.2-1,1-1.6,2-1.6h52.8c1,0,1.9,0.7,2,1.7l5,35c0.2,1.6,1.3,2.9,2.8,3.5c7.6,3.2,14.8,7.3,21.3,12.4c1.3,1,2.9,1.2,4.4,0.6
	L227.5,49c1-0.4,2.1,0,2.6,0.9l26.4,45.6C257,96.4,256.8,97.6,256,98.2L256,98.2z"/>
<path class="st0" d="M132.9,63C92.3,63,59.4,96,59.4,136.5c0,40.6,32.9,73.5,73.5,73.4c40.6,0,73.4-32.9,73.4-73.5
	C206.3,95.9,173.4,63.1,132.9,63z M122.1,200c0-0.3,0-0.7,0-1v-38.3c0-1.8-1.1-3.4-2.7-4.1c-16.5-7.7-23.7-27.3-16.1-43.8
	c2.7-5.9,7.2-10.9,12.7-14.3l0.3,28.3c0,2.5,2.1,4.5,4.6,4.4c0,0,0,0,0,0h24.2c2.5,0,4.5-2,4.5-4.5V99.2c9.7,6,15.6,16.6,15.7,28
	c0.1,12.9-7.4,24.6-19.1,29.8c-1.6,0.7-2.7,2.3-2.7,4.1v38.4c0,0.2,0,0.4,0,0.6c-7.1,1.3-14.4,1.3-21.5,0L122.1,200z M152.5,197.9
	V164c13.5-7.3,21.9-21.4,21.8-36.8c-0.1-17.6-11.1-33.3-27.6-39.4c-2.3-0.8-4.9,0.4-5.7,2.7c-0.2,0.5-0.3,1-0.3,1.5v30.2h-15.3
	L125,91.5c0-2.5-2-4.5-4.5-4.5c-0.5,0-1,0.1-1.5,0.3c-21.8,7.9-33.1,32-25.1,53.8c3.5,9.5,10.3,17.5,19.1,22.4v34.4
	c-33.9-10.9-52.6-47.2-41.7-81.1s47.2-52.6,81.1-41.7s52.6,47.2,41.7,81.1c-6.4,19.8-21.9,35.4-41.7,41.7L152.5,197.9z"/>
</svg>
