<?xml version="1.0" encoding="utf-8"?>
<!-- Generator: Adobe Illustrator 25.0.0, SVG Export Plug-In . SVG Version: 6.00 Build 0)  -->
<svg version="1.1" id="Layer_1" xmlns="http://www.w3.org/2000/svg" xmlns:xlink="http://www.w3.org/1999/xlink" x="0px" y="0px"
	 viewBox="0 0 288 264" style="enable-background:new 0 0 288 264;" xml:space="preserve">
<style type="text/css">
	.st0{fill:#B71E3E;}
</style>
<path class="st0" d="M249,0H39C17.5,0,0,17.5,0,39v186c0,21.5,17.5,39,39,39h210c21.5,0,39-17.5,39-39V39C288,17.5,270.5,0,249,0z
	 M39,18h210c11.6,0,21,9.4,21,21v1.5H18V39C18,27.4,27.4,18,39,18z M249,246H39c-11.6,0-21-9.4-21-21V58.5h252V225
	C270,236.6,260.6,246,249,246z"/>
<path class="st0" d="M235.5,85.5h-78c-12.4,0-22.5,10.1-22.5,22.5s10.1,22.5,22.5,22.5h78c12.4,0,22.5-10.1,22.5-22.5
	S247.9,85.5,235.5,85.5z M235.5,112.5h-78c-2.5,0-4.5-2-4.5-4.5s2-4.5,4.5-4.5h78c2.5,0,4.5,2,4.5,4.5S238,112.5,235.5,112.5z"/>
<path class="st0" d="M99.4,81.2l-30,33.3L54,104c-4.1-2.8-9.8-1.7-12.6,2.4c-2.8,4.1-1.7,9.8,2.4,12.6l21.8,14.8
	c3.7,2.5,8.7,1.9,11.7-1.4l35.4-39c3.6-3.4,3.7-9.1,0.3-12.7c-3.4-3.6-9.1-3.7-12.7-0.3c-0.3,0.3-0.6,0.6-0.9,1L99.4,81.2z"/>
<path class="st0" d="M235.5,169.5h-78c-12.4,0-22.5,10.1-22.5,22.5s10.1,22.5,22.5,22.5h78c12.4,0,22.5-10.1,22.5-22.5
	S247.9,169.5,235.5,169.5z M235.5,196.5h-78c-2.5,0-4.5-2-4.5-4.5s2-4.5,4.5-4.5h78c2.5,0,4.5,2,4.5,4.5S238,196.5,235.5,196.5z"/>
<path class="st0" d="M107.8,160.7c-3.5-3.5-9.2-3.5-12.7,0l-18.6,18.6l-18.6-18.6c-3.4-3.6-9.1-3.8-12.7-0.4
	c-3.6,3.4-3.8,9.1-0.4,12.7c0.1,0.2,0.3,0.3,0.4,0.4L63.8,192l-18.6,18.6c-3.6,3.4-3.8,9.1-0.4,12.7c3.4,3.6,9.1,3.8,12.7,0.4
	c0.2-0.1,0.3-0.3,0.4-0.4l18.6-18.6l18.6,18.6c3.4,3.6,9.1,3.8,12.7,0.4c3.6-3.4,3.8-9.1,0.4-12.7c-0.1-0.2-0.3-0.3-0.4-0.4
	L89.2,192l18.6-18.6C111.3,169.9,111.3,164.2,107.8,160.7z"/>
</svg>
