<?xml version="1.0" encoding="utf-8"?>
<!-- Generator: Adobe Illustrator 25.0.0, SVG Export Plug-In . SVG Version: 6.00 Build 0)  -->
<svg version="1.1" id="Layer_1" xmlns="http://www.w3.org/2000/svg" xmlns:xlink="http://www.w3.org/1999/xlink" x="0px" y="0px"
	 viewBox="0 0 248 222" style="enable-background:new 0 0 248 222;" xml:space="preserve">
<style type="text/css">
	.st0{fill:#B71E3E;}
</style>
<g>
	<path class="st0" d="M38.1,84.7h171.7c3.2,0,5.9-2.6,5.9-5.9v-41c0-3.2-2.6-5.9-5.9-5.9H38.1c-3.2,0-5.9,2.6-5.9,5.9v41
		C32.3,82,34.9,84.7,38.1,84.7z M44,43.7h160v29.3H44V43.7z"/>
	<path class="st0" d="M209.9,99.3h-40c-3.2,0-5.9,2.6-5.9,5.9v82c0,3.2,2.6,5.9,5.9,5.9h40c3.2,0,5.9-2.6,5.9-5.9v-82
		C215.7,101.9,213.1,99.3,209.9,99.3z M204,181.3h-28.3V111H204L204,181.3z"/>
	<path class="st0" d="M38.1,193h105.7c3.2,0,5.9-2.6,5.9-5.9v-82c0-3.2-2.6-5.9-5.9-5.9H38.1c-3.2,0-5.9,2.6-5.9,5.9v82
		C32.3,190.3,34.9,193,38.1,193z M44,111h94v70.3H44V111z"/>
	<path class="st0" d="M245,8.5c0-3.2-2.6-5.9-5.9-5.9H8.9C5.6,2.7,3,5.3,3,8.5v204.9c0,3.2,2.6,5.9,5.9,5.9h230.3
		c3.2,0,5.9-2.6,5.9-5.9V8.5z M233.3,207.6H14.7V14.4h218.6V207.6z"/>
</g>
</svg>
