<?xml version="1.0" encoding="utf-8"?>
<!-- Generator: Adobe Illustrator 25.0.0, SVG Export Plug-In . SVG Version: 6.00 Build 0)  -->
<svg version="1.1" id="Layer_1" xmlns="http://www.w3.org/2000/svg" xmlns:xlink="http://www.w3.org/1999/xlink" x="0px" y="0px"
	 viewBox="0 0 245.2 312.1" style="enable-background:new 0 0 245.2 312.1;" xml:space="preserve">
<style type="text/css">
	.st0{fill:#F7A532;}
</style>
<g transform="translate(0 0)">
	<path class="st0" d="M214,40.8h-28.3V28.2c0-4.1-4.5-5.9-8.5-5.9h-21.9C150.5,8.3,137-0.8,122.2,0c-14.7-0.6-28.1,8.5-33.1,22.3
		H67.6c-4.1,0-8.2,1.9-8.2,5.9v12.7H31.2C14.5,41.1,0.8,54.3,0,71v212.9c0,16.3,14.9,28.2,31.2,28.2H214c16.3,0,31.2-11.9,31.2-28.2
		v-213C244.4,54.1,230.7,40.9,214,40.8z M74.3,37.1h20.4c3.6-0.4,6.4-3.2,7-6.7c2.2-9.6,10.6-16.5,20.4-16.7
		c9.7,0.3,18,7.2,20.1,16.7c0.7,3.7,3.7,6.4,7.4,6.7h21.2v29.7H74.2L74.3,37.1z M230.3,283.7c0,8.2-8.2,13.4-16.3,13.4H31.2
		c-8.2,0-16.3-5.2-16.3-13.4V70.9c0.8-8.5,7.8-15.1,16.3-15.2h28.2v18.9c0.4,4.2,4,7.3,8.2,7.1h109.6c4.3,0.2,8-2.8,8.5-7.1V55.7
		H214c8.5,0.2,15.6,6.7,16.3,15.2L230.3,283.7L230.3,283.7z"/>
	<path class="st0" d="M200.6,122.5h-85.4c-4.1,0-7.4,3.3-7.4,7.4c0,4.1,3.3,7.4,7.4,7.4h85.4c4.1,0,7.4-3.3,7.4-7.4
		C208,125.8,204.7,122.5,200.6,122.5z"/>
	<path class="st0" d="M83.6,176.4l-23.8,22.7l-10-10.4c-2.8-2.9-7.4-3.1-10.4-0.4c-2.9,3-2.9,7.8,0,10.8l15.2,15.6
		c1.3,1.5,3.2,2.3,5.2,2.2c2,0,3.8-0.8,5.2-2.2l29-27.5c0.2-0.1,0.3-0.3,0.4-0.4c2.6-2.9,2.4-7.3-0.4-10
		C91.2,173.8,86.6,173.7,83.6,176.4z"/>
	<path class="st0" d="M200.6,192.7h-85.4c-4.1,0-7.4,3.3-7.4,7.4s3.3,7.4,7.4,7.4h85.4c4.1,0,7.4-3.3,7.4-7.4
		C208,196.1,204.7,192.7,200.6,192.7L200.6,192.7z"/>
	<path class="st0" d="M83.6,230.4l-23.8,22.7l-10-10.4c-2.8-2.9-7.4-3.1-10.4-0.4c-2.9,3-2.9,7.8,0,10.8l15.2,15.6
		c1.3,1.5,3.2,2.3,5.2,2.2c2,0,3.8-0.8,5.2-2.2l29-27.5c0.2-0.1,0.3-0.3,0.4-0.4c2.6-2.9,2.4-7.3-0.4-10
		C91.2,227.9,86.6,227.7,83.6,230.4z"/>
	<path class="st0" d="M200.6,246.8h-85.4c-4.1,0-7.4,3.3-7.4,7.4s3.3,7.4,7.4,7.4l0,0h85.4c4.1,0,7.4-3.3,7.4-7.4
		C208,250.1,204.7,246.8,200.6,246.8L200.6,246.8z"/>
	<path class="st0" d="M43.1,156.7h44.2c0.3,0,0.5,0,0.8,0c3.9-0.2,6.9-3.5,6.7-7.4v-40.1c0-4.1-3.3-7.4-7.4-7.4H43.1
		c-4.1,0-7.4,3.3-7.4,7.4v40.1c0,0.3,0,0.5,0,0.8C35.9,153.9,39.2,156.9,43.1,156.7z M50.5,116.6h29.3v25.3H50.5V116.6z"/>
</g>
</svg>
