<?xml version="1.0" encoding="utf-8"?>
<!-- Generator: Adobe Illustrator 25.0.0, SVG Export Plug-In . SVG Version: 6.00 Build 0)  -->
<svg version="1.1"
	 id="Layer_1" xmlns:cc="http://creativecommons.org/ns#" xmlns:dc="http://purl.org/dc/elements/1.1/" xmlns:inkscape="http://www.inkscape.org/namespaces/inkscape" xmlns:rdf="http://www.w3.org/1999/02/22-rdf-syntax-ns#" xmlns:sodipodi="http://sodipodi.sourceforge.net/DTD/sodipodi-0.dtd" xmlns:svg="http://www.w3.org/2000/svg"
	 xmlns="http://www.w3.org/2000/svg" xmlns:xlink="http://www.w3.org/1999/xlink" x="0px" y="0px" viewBox="0 0 270 270"
	 style="enable-background:new 0 0 270 270;" xml:space="preserve">
<style type="text/css">
	.st0{fill:#B71E3E;}
	.st1{fill-rule:evenodd;clip-rule:evenodd;fill:#B71E3E;}
</style>
<g transform="translate(0,-952.36214)">
	<path class="st0" d="M181.8,993.1c-2.3,2.3-2.3,6.1,0,8.5l39,39c2.3,2.3,6.1,2.3,8.5,0l39-39c2.3-2.3,2.3-6.1,0-8.5l-39-39
		c-2.3-2.3-6.1-2.3-8.5,0L181.8,993.1z M194.5,997.4l30.5-30.5l30.5,30.5l-30.5,30.5L194.5,997.4z"/>
	<path class="st0" d="M45,1132.4c-24.8,0-45,20.2-45,45s20.2,45,45,45s45-20.2,45-45S69.8,1132.4,45,1132.4z M45,1144.4
		c18.3,0,33,14.7,33,33s-14.7,33-33,33s-33-14.7-33-33S26.7,1144.4,45,1144.4z"/>
	<path class="st0" d="M198,1132.4c-9.9,0-18,8.1-18,18v54c0,9.9,8.1,18,18,18h54c9.9,0,18-8.1,18-18v-54c0-9.9-8.1-18-18-18H198z
		 M198,1144.4h54c3.4,0,6,2.6,6,6v54c0,3.4-2.6,6-6,6h-54c-3.4,0-6-2.6-6-6v-54C192,1146.9,194.6,1144.4,198,1144.4z"/>
	<path class="st1" d="M126.2,1156.1c-3.3-0.1-5.2,2.9-7.4,4.9c-4.2,4.2-8.5,8.4-12.6,12.7c-2,2.5-1.4,6.5,1.1,8.4c5,5,10,10,15.1,15
		c3.1,2.8,8.7,1.1,9.7-3c0.9-2.7-0.6-5.3-2.6-7c-1.3-1.3-2.6-2.6-3.9-3.9c11.3,0,22.7,0,34,0c4.2-0.2,6.9-5.4,4.7-8.9
		c-1.3-2.5-4.2-3.3-6.8-3c-10.7,0-21.3,0-32,0c2-2.1,4.3-4,6-6.4C133.8,1161.2,130.7,1155.9,126.2,1156.1L126.2,1156.1z"/>
	<path class="st0" d="M18,952.4c-9.9,0-18,8.1-18,18v54c0,9.9,8.1,18,18,18h54c9.9,0,18-8.1,18-18v-54c0-9.9-8.1-18-18-18H18z
		 M18,964.4h54c3.4,0,6,2.6,6,6v54c0,3.4-2.6,6-6,6H18c-3.4,0-6-2.6-6-6v-54C12,966.9,14.6,964.4,18,964.4z"/>
	<path class="st1" d="M66.3,1078.6c0.1-3.3-2.9-5.2-4.9-7.4c-4.2-4.2-8.4-8.5-12.7-12.6c-2.5-2-6.5-1.4-8.4,1.1c-5,5-10,10-15,15.1
		c-2.9,3.1-1.1,8.7,3,9.7c2.7,0.9,5.3-0.6,7-2.6c1.3-1.3,2.6-2.6,3.9-3.9c0,11.3,0,22.7,0,34c0.2,4.2,5.4,6.9,8.9,4.7
		c2.5-1.3,3.3-4.2,3-6.8c0-10.7,0-21.3,0-32c2.1,2,4,4.3,6.4,6C61.2,1086.1,66.4,1083,66.3,1078.6L66.3,1078.6z"/>
	<path class="st1" d="M203.7,1096.1c-0.1,3.3,2.9,5.2,4.9,7.4c4.2,4.2,8.4,8.5,12.7,12.6c2.5,2,6.5,1.4,8.4-1.1c5-5,10-10,15-15.1
		c2.9-3.1,1.1-8.7-3-9.7c-2.7-0.9-5.3,0.7-7,2.6c-1.3,1.3-2.6,2.6-3.9,3.9c0-11.3,0-22.7,0-34c-0.2-4.2-5.4-6.9-8.9-4.7
		c-2.5,1.3-3.3,4.2-3,6.8c0,10.7,0,21.3,0,32c-2.1-2-4-4.3-6.4-6C208.8,1088.6,203.6,1091.7,203.7,1096.1L203.7,1096.1z"/>
	<path class="st1" d="M143.8,1018.6c3.3,0.1,5.2-2.9,7.4-4.9c4.2-4.2,8.5-8.4,12.6-12.7c2-2.5,1.4-6.5-1.1-8.4c-5-5-10-10-15.1-15
		c-3.1-2.9-8.7-1.1-9.7,3c-0.9,2.7,0.6,5.3,2.6,7c1.3,1.3,2.6,2.6,3.9,3.9c-11.3,0-22.7,0-34,0c-4.2,0.2-6.9,5.4-4.7,8.9
		c1.3,2.5,4.2,3.3,6.8,3c10.7,0,21.3,0,32,0c-2,2.1-4.3,4-6,6.4C136.2,1013.6,139.3,1018.8,143.8,1018.6L143.8,1018.6z"/>
</g>
</svg>
