<svg id="business-affiliate-network_1_" data-name="business-affiliate-network (1)" xmlns="http://www.w3.org/2000/svg" width="41.321" height="39.719" viewBox="0 0 41.321 39.719">
  <g id="Layer_1_110_" transform="translate(0 0)">
    <g id="Group_2475" data-name="Group 2475">
      <path id="Path_1173" data-name="Path 1173" d="M16.262,14.854l-2.514-2.376a3.683,3.683,0,0,0,.474-1.784,3.753,3.753,0,1,0-1.757,3.154l2.51,2.373A8.538,8.538,0,0,1,16.262,14.854Z" transform="translate(-0.817 -1.643)" fill="#4B88BC"/>
      <path id="Path_1174" data-name="Path 1174" d="M29.439,13.825l3.34-5.62a3.686,3.686,0,1,0-1.62-.946l-3.329,5.6A8.341,8.341,0,0,1,29.439,13.825Z" transform="translate(-3.363 -0.911)" fill="#4B88BC"/>
      <path id="Path_1175" data-name="Path 1175" d="M41.62,20.952a3.724,3.724,0,0,0-3.489,2.44l-4.64-.458c0,.035.005.069.005.1a8.545,8.545,0,0,1-.187,1.766l4.638.458a3.722,3.722,0,1,0,3.672-4.309Z" transform="translate(-4.025 -3.333)" fill="#4B88BC"/>
      <path id="Path_1176" data-name="Path 1176" d="M27.669,37l-1.037-4.533a8.494,8.494,0,0,1-1.83.423l1.039,4.534A3.717,3.717,0,1,0,27.669,37Z" transform="translate(-2.879 -4.724)" fill="#4B88BC"/>
      <path id="Path_1177" data-name="Path 1177" d="M12.622,25.37,6.846,27.305a3.721,3.721,0,1,0,.61,2.034c0-.086-.018-.165-.025-.25l5.795-1.94A8.513,8.513,0,0,1,12.622,25.37Z" transform="translate(0 -3.867)" fill="#4B88BC"/>
      <circle id="Ellipse_144" data-name="Ellipse 144" cx="6.392" cy="6.392" r="6.392" transform="translate(14.558 13.311)" fill="#4B88BC"/>
    </g>
  </g>
</svg>
