<svg xmlns="http://www.w3.org/2000/svg" width="36" height="36" viewBox="0 0 36 36">
  <g id="Group_4873" data-name="Group 4873" transform="translate(-315 -372)">
    <circle id="Ellipse_164" data-name="Ellipse 164" cx="18" cy="18" r="18" transform="translate(315 372)" fill="#f64e60" opacity="0.12"/>
    <g id="Group_4698" data-name="Group 4698" transform="translate(52 -2)">
      <path id="Path_2199" data-name="Path 2199" d="M12.65,10.967a.843.843,0,0,0-.843.843v3.373a.844.844,0,0,1-.843.843H8.433V3.377a1.7,1.7,0,0,0-1.149-1.6l-.25-.084h3.928a.844.844,0,0,1,.843.843v2.53a.843.843,0,0,0,1.687,0V2.534A2.533,2.533,0,0,0,10.963,0H1.9a.662.662,0,0,0-.09.019C1.767.019,1.728,0,1.687,0A1.688,1.688,0,0,0,0,1.69V16.87a1.7,1.7,0,0,0,1.149,1.6l5.075,1.692a1.746,1.746,0,0,0,.523.078,1.688,1.688,0,0,0,1.687-1.687v-.843h2.53a2.533,2.533,0,0,0,2.53-2.53V11.81a.843.843,0,0,0-.843-.843Zm0,0" transform="translate(271 381.996)" fill="#f64e60"/>
      <path id="Path_2200" data-name="Path 2200" d="M286.362,110.286l-3.373-3.373a.843.843,0,0,0-1.44.6v2.53h-3.373a.843.843,0,1,0,0,1.687h3.373v2.53a.843.843,0,0,0,1.44.6l3.373-3.373a.842.842,0,0,0,0-1.192Zm0,0" transform="translate(4.631 279.551)" fill="#f64e60"/>
    </g>
  </g>
</svg>
