<svg xmlns="http://www.w3.org/2000/svg" width="28" height="28" viewBox="0 0 28 28">
  <g id="Group_2519" data-name="Group 2519" transform="translate(-1415 -162)">
    <circle id="Ellipse_44" data-name="Ellipse 44" cx="14" cy="14" r="14" transform="translate(1415 162)" fill="#46bd9b" opacity="0.22"/>
    <g id="Group_2515" data-name="Group 2515" transform="translate(-1 -1)">
      <g id="Ellipse_156" data-name="Ellipse 156" transform="translate(1421 168)" fill="#46bd9b" stroke="#46bd9b" stroke-width="1">
        <circle cx="8.76" cy="8.76" r="8.76" stroke="none"/>
        <circle cx="8.76" cy="8.76" r="8.26" fill="none"/>
      </g>
      <path id="Exclusion_5" data-name="Exclusion 5" d="M8.76,17.52a8.825,8.825,0,0,1-1.765-.178,8.712,8.712,0,0,1-3.132-1.318A8.785,8.785,0,0,1,.688,12.17a8.716,8.716,0,0,1-.51-1.644,8.846,8.846,0,0,1,0-3.531A8.712,8.712,0,0,1,1.5,3.862,8.785,8.785,0,0,1,5.35.688,8.716,8.716,0,0,1,6.995.178a8.846,8.846,0,0,1,3.531,0A8.712,8.712,0,0,1,13.658,1.5,8.785,8.785,0,0,1,16.832,5.35a8.716,8.716,0,0,1,.51,1.644,8.846,8.846,0,0,1,0,3.531,8.712,8.712,0,0,1-1.318,3.132,8.785,8.785,0,0,1-3.854,3.174,8.716,8.716,0,0,1-1.644.51A8.825,8.825,0,0,1,8.76,17.52Zm0-16.312A7.552,7.552,0,1,0,16.312,8.76,7.56,7.56,0,0,0,8.76,1.208ZM10.874,14.2h0L8.458,12.083V10.27l1.51,1.323V4.229a.3.3,0,0,1,.3-.3h1.208a.3.3,0,0,1,.3.3v7.365l1.51-1.323v1.812L10.874,14.2ZM6.343,10.572h-.6a.3.3,0,0,1-.3-.3V5.6L4.229,6.628V5.3l1.866-1.67L7.854,5.3V6.628L6.646,5.6V10.27A.3.3,0,0,1,6.343,10.572Z" transform="translate(1421 168)" fill="#fff"/>
    </g>
  </g>
</svg>
