<svg xmlns="http://www.w3.org/2000/svg" width="48.04" height="68" viewBox="0 0 48.04 68">
  <g id="tap" transform="translate(-0.089 0)">
    <path id="Path_1281" data-name="Path 1281" d="M44.688,72.388h-.1A3.582,3.582,0,0,0,41.1,76.064V78.93a1.034,1.034,0,0,1-2.069,0V73.638a3.415,3.415,0,1,0-6.8,0v5.609a1.034,1.034,0,0,1-2.069,0V72.1a3.578,3.578,0,0,0-3.453-3.7H26.61a3.461,3.461,0,0,0-3.387,3.544v8.05a1.034,1.034,0,1,1-2.069,0V72.175c0-.025,0-.052,0-.078,0-.063,0-.127,0-.19V53.632A3.621,3.621,0,0,0,17.7,49.883a3.622,3.622,0,0,0-3.454,3.747l-.021,30.306a1.034,1.034,0,0,1-1.834.656l-3.619-4.4a5.509,5.509,0,0,0-3.888-2.056,5.391,5.391,0,0,0-4.05,1.453c-.013.012-.026.025-.04.037l-.708.592,12.546,24.11a11.129,11.129,0,0,0,9.772,6.188h14.5c6.172,0,11.2-5.43,11.2-12.081,0-3.522.007-6.164.01-8.292.008-5.689.01-7.782,0-14.048a3.572,3.572,0,0,0-3.432-3.7Zm0,0" transform="translate(0 -42.512)" fill="#e36537"/>
    <path id="Path_1282" data-name="Path 1282" d="M49.628,11.482a1.034,1.034,0,0,0,1.034-1.034,8.34,8.34,0,1,1,16.679,0,1.034,1.034,0,1,0,2.069,0,10.409,10.409,0,1,0-20.817,0A1.035,1.035,0,0,0,49.628,11.482Zm0,0" transform="translate(-41.337)" fill="#e36537"/>
  </g>
</svg>
