<svg id="_002-matrix" data-name="002-matrix" xmlns="http://www.w3.org/2000/svg" width="35.52" height="35.52" viewBox="0 0 35.52 35.52">
  <g id="Group_470" data-name="Group 470">
    <g id="Group_469" data-name="Group 469">
      <path id="Path_320" data-name="Path 320" d="M112.231,219.379a2.541,2.541,0,1,0,2.541,2.541A2.543,2.543,0,0,0,112.231,219.379Zm0,4.041a1.5,1.5,0,1,1,1.5-1.5A1.5,1.5,0,0,1,112.231,223.42Z" transform="translate(-102.08 -204.16)" fill="#20ac9e"/>
      <path id="Path_321" data-name="Path 321" d="M6.794,13.589a6.8,6.8,0,0,0,4.4-1.613.52.52,0,1,0-.673-.793,5.747,5.747,0,1,1,1.117-1.273.52.52,0,1,0,.874.564,6.79,6.79,0,0,0-.039-7.413h2.8a2.541,2.541,0,0,0,4.974,0h2.636a2.541,2.541,0,0,0,4.974,0h1.127a.52.52,0,1,0,0-1.041H27.857a2.541,2.541,0,0,0-4.974,0H20.247a2.541,2.541,0,0,0-4.974,0H11.624a6.793,6.793,0,1,0-4.83,11.569ZM25.37,1.041a1.5,1.5,0,1,1-1.5,1.5A1.5,1.5,0,0,1,25.37,1.041Zm-7.61,0a1.5,1.5,0,1,1-1.5,1.5A1.5,1.5,0,0,1,17.76,1.041Z" fill="#20ac9e"/>
      <path id="Path_322" data-name="Path 322" d="M334.15,112.231a2.541,2.541,0,1,0-2.541,2.541A2.543,2.543,0,0,0,334.15,112.231Zm-2.541,1.5a1.5,1.5,0,1,1,1.5-1.5A1.5,1.5,0,0,1,331.61,113.731Z" transform="translate(-306.24 -102.08)" fill="#20ac9e"/>
      <path id="Path_323" data-name="Path 323" d="M211.676,10.15a2.545,2.545,0,0,0-2.02-2.487V5.028a2.541,2.541,0,1,0-1.041,0V7.663a2.541,2.541,0,0,0,0,4.974v3.3a6.754,6.754,0,0,0-6.8-.388.52.52,0,1,0,.471.928,5.736,5.736,0,1,1-1.457,1.059.52.52,0,0,0-.736-.736,6.772,6.772,0,0,0,8.522,10.439v3.254a2.548,2.548,0,0,0-1.967,1.967h-2.636a2.541,2.541,0,0,0-4.974,0H196.4a2.541,2.541,0,0,0-4.974,0h-1.621a.52.52,0,0,0,0,1.041h1.621a2.541,2.541,0,0,0,4.974,0h2.636a2.541,2.541,0,0,0,4.974,0h2.636a2.541,2.541,0,1,0,3.007-3.007v-4.1l.014-.014a6.78,6.78,0,0,0,0-9.577l-.014-.014V12.637A2.545,2.545,0,0,0,211.676,10.15Zm-17.76,24.329a1.5,1.5,0,1,1,1.5-1.5A1.5,1.5,0,0,1,193.916,34.479Zm7.61,0a1.5,1.5,0,1,1,1.5-1.5A1.5,1.5,0,0,1,201.526,34.479Zm9.11-1.5a1.5,1.5,0,1,1-1.5-1.5A1.5,1.5,0,0,1,210.636,32.979Zm-3-30.439a1.5,1.5,0,1,1,1.5,1.5A1.5,1.5,0,0,1,207.636,2.541Zm1.5,9.11a1.5,1.5,0,1,1,1.5-1.5A1.5,1.5,0,0,1,209.136,11.65Z" transform="translate(-176.156)" fill="#20ac9e"/>
      <path id="Path_324" data-name="Path 324" d="M61.316,63.857a2.541,2.541,0,1,0,2.541-2.541A2.543,2.543,0,0,0,61.316,63.857Zm4.041,0a1.5,1.5,0,1,1-1.5-1.5A1.5,1.5,0,0,1,65.357,63.857Z" transform="translate(-57.062 -57.062)" fill="#20ac9e"/>
      <path id="Path_325" data-name="Path 325" d="M221.92,329.068a2.541,2.541,0,1,0,2.541,2.541A2.543,2.543,0,0,0,221.92,329.068Zm0,4.041a1.5,1.5,0,1,1,1.5-1.5A1.5,1.5,0,0,1,221.92,333.109Z" transform="translate(-204.16 -306.239)" fill="#20ac9e"/>
      <path id="Path_326" data-name="Path 326" d="M6.794,201.4a6.755,6.755,0,0,0-3.733,1.12v-2.8a2.541,2.541,0,0,0,0-4.974v-1.374a.52.52,0,0,0-1.041,0v1.374a2.541,2.541,0,0,0,0,4.974v3.649a6.79,6.79,0,0,0-.792,8.728.52.52,0,1,0,.852-.6,5.755,5.755,0,1,1,1.235,1.283.52.52,0,0,0-.63.828,6.734,6.734,0,0,0,4.108,1.382,6.794,6.794,0,1,0,0-13.589Zm-4.254-2.671a1.5,1.5,0,1,1,1.5-1.5A1.5,1.5,0,0,1,2.541,198.727Z" transform="translate(0 -179.467)" fill="#20ac9e"/>
      <path id="Path_327" data-name="Path 327" d="M362.076,263.058a3.875,3.875,0,1,0-3.875-3.875A3.88,3.88,0,0,0,362.076,263.058Zm0-6.71a2.835,2.835,0,1,1-2.835,2.835A2.838,2.838,0,0,1,362.076,256.348Z" transform="translate(-333.351 -237.595)" fill="#20ac9e"/>
      <path id="Path_328" data-name="Path 328" d="M221.92,109.689a2.541,2.541,0,1,0,2.541,2.541A2.543,2.543,0,0,0,221.92,109.689Zm0,4.041a1.5,1.5,0,1,1,1.5-1.5A1.5,1.5,0,0,1,221.92,113.73Z" transform="translate(-204.16 -102.079)" fill="#20ac9e"/>
      <path id="Path_329" data-name="Path 329" d="M221.92,219.379a2.541,2.541,0,1,0,2.541,2.541A2.543,2.543,0,0,0,221.92,219.379Zm0,4.041a1.5,1.5,0,1,1,1.5-1.5A1.5,1.5,0,0,1,221.92,223.42Z" transform="translate(-204.16 -204.16)" fill="#20ac9e"/>
      <path id="Path_330" data-name="Path 330" d="M74.757,389.016a1.867,1.867,0,1,0-1.867,1.867A1.869,1.869,0,0,0,74.757,389.016Zm-2.694,0a.827.827,0,1,1,.827.827A.827.827,0,0,1,72.064,389.016Z" transform="translate(-66.096 -360.291)" fill="#20ac9e"/>
    </g>
  </g>
</svg>
