<svg xmlns="http://www.w3.org/2000/svg" width="755" height="755" viewBox="0 0 755 755">
  <g id="Group_2563" data-name="Group 2563" transform="translate(-3450 -3627)">
    <g id="move_2_" data-name="move (2)" transform="translate(3572 3749)">
      <g id="Group_2562" data-name="Group 2562">
        <path id="Path_1318" data-name="Path 1318" d="M507.353,245.245l-83.692-78.769a14.769,14.769,0,0,0-24.891,10.755v34.462H300.308V113.231H334.77A14.769,14.769,0,0,0,345.525,88.34L266.755,4.647a14.769,14.769,0,0,0-21.51,0L166.476,88.34a14.769,14.769,0,0,0,10.755,24.891h34.462v98.462H113.231V177.231A14.769,14.769,0,0,0,88.34,166.476L4.647,245.245a14.769,14.769,0,0,0,0,21.51l83.692,78.769a14.769,14.769,0,0,0,24.891-10.755V300.307h98.462v98.462H177.23a14.769,14.769,0,0,0-10.755,24.891l78.769,83.692a14.769,14.769,0,0,0,21.51,0l78.769-83.692a14.769,14.769,0,0,0-10.755-24.891H300.306V300.307h98.462v34.462a14.769,14.769,0,0,0,24.891,10.755l83.692-78.769a14.771,14.771,0,0,0,0-21.51Z" fill="#fff"/>
      </g>
    </g>
    <rect id="Rectangle_691" data-name="Rectangle 691" width="755" height="755" transform="translate(3450 3627)" fill="none"/>
  </g>
</svg>
