<?xml version="1.0" encoding="utf-8"?>
<!-- Generator: Adobe Illustrator 25.0.0, SVG Export Plug-In . SVG Version: 6.00 Build 0)  -->
<svg version="1.1" id="Layer_1" xmlns="http://www.w3.org/2000/svg" xmlns:xlink="http://www.w3.org/1999/xlink" x="0px" y="0px"
	 viewBox="0 0 43 43" style="enable-background:new 0 0 43 43;" xml:space="preserve">
<style type="text/css">
	.st0{fill:#FFFFFF;}
	.st1{fill:#61646D;}
</style>
<g>
	<circle class="st0" cx="21.5" cy="21.5" r="21.5"/>
	<g>
		<g>
			<path class="st1" d="M31.3,16.5H11.7c-0.5,0-1-0.4-1-1l0,0c0-0.5,0.4-1,1-1h19.6c0.5,0,1,0.4,1,1l0,0
				C32.3,16,31.8,16.5,31.3,16.5z"/>
			<path class="st1" d="M24.9,22.6H11.7c-0.5,0-1-0.4-1-1l0,0c0-0.5,0.4-1,1-1h13.2c0.5,0,1,0.4,1,1l0,0
				C25.9,22.1,25.5,22.6,24.9,22.6z"/>
			<path class="st1" d="M31.3,28.6H11.7c-0.5,0-1-0.4-1-1l0,0c0-0.5,0.4-1,1-1h19.6c0.5,0,1,0.4,1,1l0,0
				C32.3,28.2,31.8,28.6,31.3,28.6z"/>
		</g>
	</g>
</g>
</svg>
