<svg xmlns="http://www.w3.org/2000/svg" width="59.012" height="59" viewBox="0 0 59.012 59">
  <g id="target_1_" data-name="target (1)" transform="translate(0 -0.052)" opacity="0.31">
    <g id="Group_4729" data-name="Group 4729" transform="translate(8.34 14.565)">
      <g id="Group_4728" data-name="Group 4728" transform="translate(0 0)">
        <path id="Path_2215" data-name="Path 2215" d="M107.243,137.4a1.392,1.392,0,1,0-2.589,1.024,15.288,15.288,0,1,1-8.592-8.595,1.392,1.392,0,1,0,1.029-2.587A18.052,18.052,0,1,0,107.243,137.4Z" transform="translate(-72.357 -125.973)" fill="#39afd1"/>
      </g>
    </g>
    <g id="Group_4731" data-name="Group 4731" transform="translate(0 6.224)">
      <g id="Group_4730" data-name="Group 4730">
        <path id="Path_2216" data-name="Path 2216" d="M51.809,72.736a1.392,1.392,0,0,0-2.677.766A23.607,23.607,0,1,1,32.939,57.3a1.392,1.392,0,0,0,.768-2.676,26.387,26.387,0,1,0,18.1,18.111Z" transform="translate(0 -53.603)" fill="#39afd1"/>
      </g>
    </g>
    <g id="Group_4733" data-name="Group 4733" transform="translate(16.681 22.904)">
      <g id="Group_4732" data-name="Group 4732">
        <path id="Path_2217" data-name="Path 2217" d="M164.151,207.21a1.392,1.392,0,1,0-2.773.248c.018.2.027.4.027.6a6.948,6.948,0,1,1-6.947-6.949c.214,0,.424.009.623.028a1.392,1.392,0,0,0,.256-2.773c-.284-.026-.58-.039-.879-.039a9.732,9.732,0,1,0,9.732,9.733C164.189,207.777,164.176,207.49,164.151,207.21Z" transform="translate(-144.724 -198.327)" fill="#39afd1"/>
      </g>
    </g>
    <g id="Group_4735" data-name="Group 4735" transform="translate(25.56 0.052)">
      <g id="Group_4734" data-name="Group 4734" transform="translate(0 0)">
        <path id="Path_2218" data-name="Path 2218" d="M255.006,9.412a2.777,2.777,0,0,0-2.573-1.719h-4.855V2.838A2.785,2.785,0,0,0,242.825.869L234.714,8.98a4.148,4.148,0,0,0-1.223,2.953v7.878L222.176,31.126a1.392,1.392,0,1,0,1.969,1.969L235.46,21.78h7.878a4.148,4.148,0,0,0,2.953-1.223l8.111-8.112A2.775,2.775,0,0,0,255.006,9.412Zm-18.731,2.521a1.382,1.382,0,0,1,.407-.984l8.111-8.11V8.508l-8.519,8.519V11.933Zm8.047,6.656a1.4,1.4,0,0,1-.984.407h-5.094l8.519-8.519h5.67Z" transform="translate(-221.768 -0.052)" fill="#39afd1"/>
      </g>
    </g>
  </g>
</svg>
