<svg xmlns="http://www.w3.org/2000/svg" width="25.384" height="24.4" viewBox="0 0 25.384 24.4">
  <g id="business-affiliate-network_1_" data-name="business-affiliate-network (1)" transform="translate(0 -0.911)">
    <g id="Layer_1_110_" transform="translate(0 0.911)">
      <g id="Group_2475" data-name="Group 2475">
        <path id="Path_1173" data-name="Path 1173" d="M12.6,11.813l-1.544-1.459a2.263,2.263,0,0,0,.291-1.1,2.306,2.306,0,1,0-1.079,1.937l1.542,1.458A5.245,5.245,0,0,1,12.6,11.813Z" transform="translate(-3.111 -3.697)" fill="#e36537"/>
        <path id="Path_1174" data-name="Path 1174" d="M28.818,8.844,30.87,5.392a2.265,2.265,0,1,0-1-.581L27.829,8.253A5.124,5.124,0,0,1,28.818,8.844Z" transform="translate(-12.799 -0.911)" fill="#e36537"/>
        <path id="Path_1175" data-name="Path 1175" d="M38.414,20.952a2.288,2.288,0,0,0-2.143,1.5l-2.851-.281c0,.022,0,.042,0,.063a5.249,5.249,0,0,1-.115,1.085l2.849.281a2.287,2.287,0,1,0,2.256-2.647Z" transform="translate(-15.319 -10.128)" fill="#e36537"/>
        <path id="Path_1176" data-name="Path 1176" d="M26.187,35.253l-.637-2.785a5.218,5.218,0,0,1-1.124.26l.638,2.785a2.283,2.283,0,1,0,1.123-.26Z" transform="translate(-10.958 -15.424)" fill="#e36537"/>
        <path id="Path_1177" data-name="Path 1177" d="M7.754,25.37,4.206,26.559a2.286,2.286,0,1,0,.375,1.249c0-.053-.011-.1-.016-.153l3.56-1.192A5.229,5.229,0,0,1,7.754,25.37Z" transform="translate(0 -12.16)" fill="#e36537"/>
        <circle id="Ellipse_144" data-name="Ellipse 144" cx="3.927" cy="3.927" r="3.927" transform="translate(8.943 8.177)" fill="#e36537"/>
      </g>
    </g>
  </g>
</svg>
