<svg id="policy" xmlns="http://www.w3.org/2000/svg" width="464.001" height="416" viewBox="0 0 464.001 416">
  <path id="Path_1260" data-name="Path 1260" d="M256,362.9V331H0v32.027C0,392.031,23.438,416,52.445,416H281.8c-2.2-2-4.32-3.754-6.324-5.762A66.736,66.736,0,0,1,256,362.9Zm0,0" fill="#6a94ae"/>
  <path id="Path_1261" data-name="Path 1261" d="M181.258,169.523l37.148,25.5,37.293-25.5c10.2-6.957,18.3-22.656,18.3-35V81.82L218.5,54.371,163,81.75v52.773c0,12.34,8.055,28.043,18.258,35Zm8.363-49.812a7,7,0,0,1,9.9.051l11.156,11.266,26.852-26.848a7,7,0,0,1,9.9,9.906L215.6,145.925A7.034,7.034,0,0,1,210.653,148h-.016a6.986,6.986,0,0,1-4.957-2.1l-16.109-16.273a7.02,7.02,0,0,1,.051-9.914Zm0,0" fill="#6a94ae"/>
  <path id="Path_1262" data-name="Path 1262" d="M426.895,0h-.223C406.106,0,389,17.184,389,37.762V102h75V37.637A37.469,37.469,0,0,0,426.895,0Zm0,0" fill="#6a94ae"/>
  <path id="Path_1263" data-name="Path 1263" d="M107.469,0C88.02,0,72.192,15.617,72.192,34.773L70.125,317H263a7.289,7.289,0,0,1,7,7.328V362.9A52.976,52.976,0,0,0,322.594,416h.176A52.617,52.617,0,0,0,375,363.02V37.774C375,23.059,381.621,10,391.571,0ZM149,77.383a6.8,6.8,0,0,1,3.7-6.285l62.688-30.809a6.884,6.884,0,0,1,6.109,0l62.8,30.895a6.81,6.81,0,0,1,3.7,6.285v57.055c0,16.98-10.363,37-24.4,46.566l-41.125,28.2a6.915,6.915,0,0,1-3.918,1.219,6.815,6.815,0,0,1-3.9-1.219l-41.246-28.2C159.387,171.52,149,151.5,149,134.523ZM318,285H126a7,7,0,0,1,0-14H318a7,7,0,0,1,0,14Zm0-37H126a7,7,0,0,1,0-14H318a7,7,0,0,1,0,14Zm0,0" fill="#6a94ae"/>
</svg>
