<svg id="process" xmlns="http://www.w3.org/2000/svg" width="480" height="480" viewBox="0 0 480 480">
  <g id="Group_2526" data-name="Group 2526">
    <path id="Path_1236" data-name="Path 1236" d="M347.44,138.88,333.04,132l6.88-14.4,14.4,6.88Zm-28.88-13.76L304,118.24l6.88-14.4,14.4,6.88Zm-28.88-13.76-14.48-6.88,6.88-14.4,14.48,6.88ZM260.8,97.6l-14.48-6.88,6.88-14.4,14.48,6.88ZM232,83.84l-14.48-6.88L224,62.56l14.48,6.88ZM203.12,70.08,188.56,63.2l6.88-14.4L209.92,56Z" fill="#1e9f9b"/>
    <path id="Path_1237" data-name="Path 1237" d="M195.84,431.04l-8-14.08,14-8,8,14ZM224,416l-8-14.4,14.08-8,8,14Zm27.92-16-8-14,14-8,8,14.08ZM280,384.72l-8-14,14.08-8,8,14Zm28-15.36-8-14.08,14-8,8,14Zm28-15.44-8-14,14-8,8,14Z" fill="#1e9f9b"/>
    <path id="Path_1238" data-name="Path 1238" d="M240.1,262.246l6.878-14.446,14.446,6.878-6.878,14.446Z" fill="#1e9f9b"/>
    <path id="Path_1239" data-name="Path 1239" d="M124.546,207.2l6.878-14.446,14.446,6.878-6.878,14.446Z" fill="#1e9f9b"/>
    <path id="Path_1240" data-name="Path 1240" d="M153.464,220.959l6.878-14.446,14.446,6.878-6.878,14.446Z" fill="#1e9f9b"/>
    <path id="Path_1241" data-name="Path 1241" d="M269.014,276.006l6.878-14.446,14.446,6.878-6.878,14.446Z" fill="#1e9f9b"/>
    <path id="Path_1242" data-name="Path 1242" d="M270.089,200.705l14.018-7.713,7.713,14.018L277.8,214.723Z" fill="#1e9f9b"/>
    <path id="Path_1243" data-name="Path 1243" d="M129.906,277.759l14.018-7.713,7.713,14.018-14.018,7.713Z" fill="#1e9f9b"/>
    <path id="Path_1244" data-name="Path 1244" d="M197.2,240.8l6.48-13.6-14.48-6.88-6.88,14.4,13.92,6.64L186,246.96l7.68,14,14.08-7.68-7.76-14Z" fill="#1e9f9b"/>
    <path id="Path_1245" data-name="Path 1245" d="M242.12,216.131l14.018-7.713,7.713,14.018-14.018,7.713Z" fill="#1e9f9b"/>
    <path id="Path_1246" data-name="Path 1246" d="M157.9,262.435l14.021-7.708,7.708,14.021-14.021,7.708Z" fill="#1e9f9b"/>
    <path id="Path_1247" data-name="Path 1247" d="M228.08,223.84l-14,7.68,2.8,5.12-5.68,11.84,14.48,6.88,6.88-14.4-1.28-.64,4.48-2.48Z" fill="#1e9f9b"/>
  </g>
  <path id="Path_1248" data-name="Path 1248" d="M191.28,84.64l-.72-5.92-26.08-4.8A65.95,65.95,0,0,0,160,63.2l15.04-21.84-3.6-4.64a96.492,96.492,0,0,0-16-16l-4.64-3.6L128.8,32a65.949,65.949,0,0,0-10.72-4.48l-4.8-26.08L107.36.72a89.978,89.978,0,0,0-22.72,0l-5.92.72-4.8,26.08A65.949,65.949,0,0,0,63.2,32L41.36,16.96l-4.64,3.6a96.492,96.492,0,0,0-16,16l-3.6,4.64L32,63.2a65.949,65.949,0,0,0-4.48,10.72L1.44,78.72.72,84.64a89.978,89.978,0,0,0,0,22.72l.72,5.92,26.08,4.8A65.949,65.949,0,0,0,32,128.8L16.96,150.64l3.6,4.64a96.492,96.492,0,0,0,16,16l4.64,3.6L63.2,160a65.95,65.95,0,0,0,10.72,4.48l4.8,26.08,5.92.72a89.977,89.977,0,0,0,22.72,0l5.92-.72,4.8-26.08A65.95,65.95,0,0,0,128.8,160l21.84,15.04,4.64-3.6a96.491,96.491,0,0,0,16-16l3.6-4.64L160,128.8a65.95,65.95,0,0,0,4.48-10.72l26.08-4.8.72-5.92a89.977,89.977,0,0,0,0-22.72ZM120,96A24,24,0,1,1,96,72,24,24,0,0,1,120,96Z" fill="#1e9f9b"/>
  <path id="Path_1249" data-name="Path 1249" d="M479.28,228.64l-.72-5.92-26.08-4.8A65.948,65.948,0,0,0,448,207.2l15.04-21.84-3.6-4.64a96.493,96.493,0,0,0-16-16l-4.64-3.6L416.8,176a65.95,65.95,0,0,0-10.72-4.48l-4.8-26.08-5.92-.72a89.977,89.977,0,0,0-22.72,0l-5.92.72-4.8,26.08A65.95,65.95,0,0,0,351.2,176l-21.84-15.04-4.64,3.6a96.493,96.493,0,0,0-16,16l-3.6,4.64,14.88,22a65.951,65.951,0,0,0-4.48,10.72l-26.08,4.8-.72,5.92a89.979,89.979,0,0,0,0,22.72l.72,5.92,26.08,4.8A65.948,65.948,0,0,0,320,272.8l-15.04,21.84,3.6,4.64a96.494,96.494,0,0,0,16,16l4.64,3.6,22-14.88a65.951,65.951,0,0,0,10.72,4.48l4.8,26.08,5.92.72a89.979,89.979,0,0,0,22.72,0l5.92-.72,4.8-26.08A65.948,65.948,0,0,0,416.8,304l21.84,15.04,4.64-3.6a96.494,96.494,0,0,0,16-16l3.6-4.64L448,272.8a65.951,65.951,0,0,0,4.48-10.72l26.08-4.8.72-5.92a89.979,89.979,0,0,0,0-22.72ZM408,240a24,24,0,1,1-24-24A24,24,0,0,1,408,240Z" fill="#1e9f9b"/>
  <path id="Path_1250" data-name="Path 1250" d="M191.28,372.64l-.72-5.92-26.08-4.8A65.95,65.95,0,0,0,160,351.2l15.04-21.84-3.6-4.64a96.493,96.493,0,0,0-16-16l-4.64-3.6L128.8,320a65.951,65.951,0,0,0-10.72-4.48l-4.8-26.08-5.92-.72a89.979,89.979,0,0,0-22.72,0l-5.92.72-4.8,26.08A65.948,65.948,0,0,0,63.2,320L41.36,304.96l-4.64,3.6a96.493,96.493,0,0,0-16,16l-3.6,4.64L32,351.2a65.949,65.949,0,0,0-4.48,10.72l-26.08,4.8-.72,5.92a89.978,89.978,0,0,0,0,22.72l.72,5.92,26.08,4.8A65.949,65.949,0,0,0,32,416.8L16.96,438.64l3.6,4.64a96.493,96.493,0,0,0,16,16l4.64,3.6L63.2,448a65.951,65.951,0,0,0,10.72,4.48l4.8,26.08,5.92.72a89.979,89.979,0,0,0,22.72,0l5.92-.72,4.8-26.08A65.948,65.948,0,0,0,128.8,448l21.84,15.04,4.64-3.6a96.493,96.493,0,0,0,16-16l3.6-4.64L160,416.8a65.95,65.95,0,0,0,4.48-10.72l26.08-4.8.72-5.92a89.976,89.976,0,0,0,0-22.72ZM120,384a24,24,0,1,1-24-24A24,24,0,0,1,120,384Z" fill="#1e9f9b"/>
</svg>
