<?xml version="1.0" encoding="utf-8"?>
<!-- Generator: Adobe Illustrator 24.1.3, SVG Export Plug-In . SVG Version: 6.00 Build 0)  -->
<svg version="1.1" id="radio-on-button" xmlns="http://www.w3.org/2000/svg" xmlns:xlink="http://www.w3.org/1999/xlink" x="0px"
	 y="0px" viewBox="0 0 510 510" style="enable-background:new 0 0 510 510;" xml:space="preserve">
<style type="text/css">
	.st0{fill:#39AFD1;}
</style>
<g id="radio-button-on">
	<path id="Path_2418" class="st0" d="M255,127.5c-71.4,0-127.5,56.1-127.5,127.5S183.6,382.5,255,382.5S382.5,326.4,382.5,255
		S326.4,127.5,255,127.5z M255,0C114.8,0,0,114.8,0,255s114.8,255,255,255s255-114.8,255-255S395.3,0,255,0z M255,459
		c-112.2,0-204-91.8-204-204S142.8,51,255,51s204,91.8,204,204S367.2,459,255,459z"/>
</g>
</svg>
