<svg xmlns="http://www.w3.org/2000/svg" width="21.001" height="21" viewBox="0 0 21.001 21">
  <path id="Exclusion_2" data-name="Exclusion 2" d="M-2211.5,21a10.433,10.433,0,0,1-7.425-3.075A10.43,10.43,0,0,1-2222,10.5a10.431,10.431,0,0,1,3.075-7.425A10.433,10.433,0,0,1-2211.5,0,10.512,10.512,0,0,1-2201,10.5,10.512,10.512,0,0,1-2211.5,21Zm.16-9.313h0l3.484,3.484a.506.506,0,0,0,.361.149.5.5,0,0,0,.36-.149l.306-.305a.51.51,0,0,0,.148-.361.506.506,0,0,0-.148-.36l-3.485-3.485,3.485-3.486a.506.506,0,0,0,.148-.36.51.51,0,0,0-.148-.361l-.306-.305a.5.5,0,0,0-.36-.148.506.506,0,0,0-.361.148l-3.485,3.485-3.485-3.485a.5.5,0,0,0-.36-.148.507.507,0,0,0-.361.148l-.3.305a.506.506,0,0,0-.149.361.5.5,0,0,0,.149.36l3.485,3.486-3.485,3.485a.5.5,0,0,0-.149.36.506.506,0,0,0,.149.361l.3.305a.506.506,0,0,0,.36.149.506.506,0,0,0,.361-.149l3.484-3.484Z" transform="translate(2222)" fill="#fff"/>
</svg>
