<svg xmlns="http://www.w3.org/2000/svg" width="33" height="33" viewBox="0 0 33 33">
  <g id="Group_5108" data-name="Group 5108" transform="translate(-1361 -884)">
    <circle id="Ellipse_5" data-name="Ellipse 5" cx="16.5" cy="16.5" r="16.5" transform="translate(1361 884)" fill="#f6516f" opacity="0.17"/>
    <g id="trash" transform="translate(1370 892)">
      <path id="Path_111" data-name="Path 111" d="M61.035,2.219H57.984V1.664A1.666,1.666,0,0,0,56.32,0H54.1a1.666,1.666,0,0,0-1.664,1.664v.555H49.387A1.388,1.388,0,0,0,48,3.605V5.547a.555.555,0,0,0,.555.555h.3l.479,10.063A1.662,1.662,0,0,0,51,17.749h8.423a1.662,1.662,0,0,0,1.662-1.585L61.563,6.1h.3a.555.555,0,0,0,.555-.555V3.605a1.388,1.388,0,0,0-1.387-1.387Zm-7.488-.555a.555.555,0,0,1,.555-.555H56.32a.555.555,0,0,1,.555.555v.555H53.547ZM49.109,3.605a.278.278,0,0,1,.277-.277H61.035a.278.278,0,0,1,.277.277V4.992h-12.2ZM59.976,16.112a.554.554,0,0,1-.554.528H51a.554.554,0,0,1-.554-.528L49.968,6.1H60.453Z" transform="translate(-48)" fill="#f6516f"/>
      <path id="Path_112" data-name="Path 112" d="M240.555,216.32a.555.555,0,0,0,.555-.555v-7.211a.555.555,0,1,0-1.109,0v7.211A.555.555,0,0,0,240.555,216.32Z" transform="translate(-233.344 -200.789)" fill="#f6516f"/>
      <path id="Path_113" data-name="Path 113" d="M320.555,216.32a.555.555,0,0,0,.555-.555v-7.211a.555.555,0,1,0-1.109,0v7.211A.555.555,0,0,0,320.555,216.32Z" transform="translate(-310.571 -200.789)" fill="#f6516f"/>
      <path id="Path_114" data-name="Path 114" d="M160.555,216.32a.555.555,0,0,0,.555-.555v-7.211a.555.555,0,1,0-1.109,0v7.211A.555.555,0,0,0,160.555,216.32Z" transform="translate(-156.117 -200.789)" fill="#f6516f"/>
    </g>
  </g>
</svg>
