<svg xmlns="http://www.w3.org/2000/svg" width="512" height="511.983" viewBox="0 0 512 511.983">
  <g id="edit_4_" data-name="edit (4)" transform="translate(0 -0.501)">
    <path id="Path_2189" data-name="Path 2189" d="M405.332,256.484A21.327,21.327,0,0,0,384,277.816V448.484a21.355,21.355,0,0,1-21.332,21.332H64a21.352,21.352,0,0,1-21.332-21.332V149.816A21.352,21.352,0,0,1,64,128.484H234.668a21.334,21.334,0,0,0,0-42.668H64a64.078,64.078,0,0,0-64,64V448.484a64.078,64.078,0,0,0,64,64H362.668a64.078,64.078,0,0,0,64-64V277.816a21.315,21.315,0,0,0-21.336-21.332Zm0,0" fill="#4B88BC"/>
    <path id="Path_2190" data-name="Path 2190" d="M200.02,237.051a10.793,10.793,0,0,0-2.922,5.438l-15.082,75.437a10.658,10.658,0,0,0,10.477,12.754,10.145,10.145,0,0,0,2.09-.211L270,315.387a10.62,10.62,0,0,0,5.461-2.926L444.247,143.672l-75.414-75.41Zm0,0" fill="#4B88BC"/>
    <path id="Path_2191" data-name="Path 2191" d="M496.383,16.1a53.37,53.37,0,0,0-75.414,0L391.445,45.625l75.414,75.414,29.523-29.527a53.325,53.325,0,0,0,0-75.41Zm0,0" fill="#4B88BC"/>
  </g>
</svg>
