<svg xmlns="http://www.w3.org/2000/svg" width="6.8" height="11.513" viewBox="0 0 6.8 11.513">
  <g id="down-arrow_1_" data-name="down-arrow (1)" transform="translate(-100.698 11.513) rotate(-90)">
    <g id="Group_4836" data-name="Group 4836" transform="translate(0 100.698)">
      <path id="Path_2272" data-name="Path 2272" d="M11.329,101.266l-.377-.38a.631.631,0,0,0-.891,0l-4.3,4.3-4.307-4.307a.631.631,0,0,0-.891,0l-.377.377a.63.63,0,0,0,0,.891L5.312,107.3a.644.644,0,0,0,.447.2h0a.644.644,0,0,0,.445-.2l5.123-5.132a.639.639,0,0,0,0-.9Z" transform="translate(0 -100.698)" fill="#fff"/>
    </g>
  </g>
</svg>
