<svg xmlns="http://www.w3.org/2000/svg" width="511.999" height="482.855" viewBox="0 0 511.999 482.855">
  <path id="electrical" d="M501.715,370.449,320.543,37.136A74.961,74.961,0,0,0,255.98.5c-26.727,0-50.746,13.812-64.859,37.234L10.551,369.847c-13.812,23.723-14.113,51.949-.6,75.672a74.087,74.087,0,0,0,65.16,37.836H436.852a75.114,75.114,0,0,0,64.863-112.906ZM284.809,423.3h-43.84V333.215H150.582l77.473-180.172H271v90.086h73.27Zm-43.84-224.316-44.742,104.2H271v66.363l31.828-96.391H240.969Zm0,0" transform="translate(-0.001 -0.499)" fill="#e6c252"/>
</svg>
