<svg xmlns="http://www.w3.org/2000/svg" width="511.998" height="512" viewBox="0 0 511.998 512">
  <g id="floppy-disk" transform="translate(-0.001 0)">
    <g id="Group_2650" data-name="Group 2650">
      <g id="Group_2649" data-name="Group 2649">
        <path id="Path_672" data-name="Path 672" d="M506.513,124.122,387.879,5.488A18.362,18.362,0,0,0,374.515,0H18.733A18.733,18.733,0,0,0,0,18.734V493.268A18.733,18.733,0,0,0,18.733,512H493.267A18.732,18.732,0,0,0,512,493.268v-355.9A18.722,18.722,0,0,0,506.513,124.122ZM156.1,37.465H355.9V148.294H156.1ZM400.447,474.536H111.555v-157.6H400.446v157.6Z" fill="#fff"/>
      </g>
    </g>
    <g id="Group_2652" data-name="Group 2652">
      <g id="Group_2651" data-name="Group 2651">
        <path id="Path_673" data-name="Path 673" d="M309.514,55.016a18.733,18.733,0,0,0-18.732,18.732v38.257a18.732,18.732,0,1,0,37.464,0V73.747A18.733,18.733,0,0,0,309.514,55.016Z" fill="#fff"/>
      </g>
    </g>
  </g>
</svg>
