<?xml version="1.0" encoding="utf-8"?>
<!-- Generator: Adobe Illustrator 24.1.3, SVG Export Plug-In . SVG Version: 6.00 Build 0)  -->
<svg version="1.1" id="Layer_1" xmlns="http://www.w3.org/2000/svg" xmlns:xlink="http://www.w3.org/1999/xlink" x="0px" y="0px"
	 viewBox="0 0 512 512" style="enable-background:new 0 0 512 512;" xml:space="preserve">
<style type="text/css">
	.st0{fill:#39AFD1;}
</style>
<path id="menu_7_" class="st0" d="M452,0H60C26.9,0,0,26.9,0,60v392c0,33.1,26.9,60,60,60h392c33.1,0,60-26.9,60-60V60
	C512,26.9,485.1,0,452,0z M472,452c0,11-9,20-20,20H60c-11,0-20-9-20-20V244h432V452z M403.5,79.9l28.3,28.3l-66.6,66.4L298,108.2
	L326,79.8l39,38.4L403.5,79.9z M419,334H93v-40h326V334z M419,424H93v-40h326V424z"/>
</svg>
