<svg xmlns="http://www.w3.org/2000/svg" width="511.953" height="512.001" viewBox="0 0 511.953 512.001">
  <g id="customer_1_" data-name="customer (1)" transform="translate(-0.024)">
    <g id="Group_2528" data-name="Group 2528">
      <g id="Group_2527" data-name="Group 2527">
        <path id="Path_1251" data-name="Path 1251" d="M271.029,0c-33.091,0-61,27.909-61,61s27.909,61,61,61,60-27.909,60-61S304.12,0,271.029,0Z" fill="#46bd9b"/>
      </g>
    </g>
    <g id="Group_2530" data-name="Group 2530">
      <g id="Group_2529" data-name="Group 2529">
        <path id="Path_1252" data-name="Path 1252" d="M337.621,122a89.454,89.454,0,0,1-66.592,30,91.641,91.641,0,0,1-67.592-30,89.311,89.311,0,0,0-23.408,60v15a14.991,14.991,0,0,0,15,15h151a14.991,14.991,0,0,0,15-15V182A89.311,89.311,0,0,0,337.621,122Z" fill="#46bd9b"/>
      </g>
    </g>
    <g id="Group_2532" data-name="Group 2532">
      <g id="Group_2531" data-name="Group 2531">
        <path id="Path_1253" data-name="Path 1253" d="M144.946,460.4,68.5,307.149a30,30,0,0,0-40.162-13.493l-19.979,9.9a15.012,15.012,0,0,0-6.753,20.156l90,180a15.017,15.017,0,0,0,20.083,6.738l19.722-9.771A30,30,0,0,0,144.946,460.4Z" fill="#46bd9b"/>
      </g>
    </g>
    <g id="Group_2534" data-name="Group 2534">
      <g id="Group_2533" data-name="Group 2533">
        <path id="Path_1254" data-name="Path 1254" d="M499.73,247.7a29.905,29.905,0,0,0-39.6,3.9l-82,100.8c-5.7,6-16.5,9.6-22.2,9.6h-69.9a15,15,0,1,1,0-30h60a30,30,0,0,0,0-60h-78.6c-7.476,0-11.2-4.741-17.1-9.9C227.12,241.214,192.38,231.152,157.21,239.3c-19.528,4.526-32.7,12.415-46.053,22.993l-.445-.361-21.7,19.094L174.28,452H346.029a90.368,90.368,0,0,0,72-36l88-126A30.231,30.231,0,0,0,499.73,247.7Z" fill="#46bd9b"/>
      </g>
    </g>
  </g>
</svg>
