<?xml version="1.0" encoding="utf-8"?>
<!-- Generator: Adobe Illustrator 24.1.2, SVG Export Plug-In . SVG Version: 6.00 Build 0)  -->
<svg version="1.1" id="Layer_1" xmlns="http://www.w3.org/2000/svg" xmlns:xlink="http://www.w3.org/1999/xlink" x="0px" y="0px"
	 viewBox="0 0 30 30" style="enable-background:new 0 0 30 30;" xml:space="preserve">
<style type="text/css">
	.st0{fill:none;}
	.st1{fill:none;stroke:#FFFFFF;stroke-width:2;}
	.st2{fill:#FFFFFF;}
</style>
<g id="Ellipse_44" transform="translate(1332 268)">
	<circle class="st0" cx="-1317" cy="-253" r="14.5"/>
	<circle class="st1" cx="-1317" cy="-253" r="14"/>
</g>
<g id="preference_2_" transform="translate(1401 274.999)">
	<g id="Group_4669" transform="translate(0 0.001)">
		<path id="Path_2183" class="st2" d="M-1377-261.2c-0.1-0.1-1.3-0.8-1.8-1l-0.6-1.4c0.2-0.5,0.5-1.7,0.5-2c0-0.2,0-0.4-0.2-0.6
			l-0.9-0.9c-0.2-0.2-0.4-0.2-0.6-0.2c-0.2,0-1.5,0.4-2,0.5l-1.4-0.6c-0.2-0.4-0.9-1.6-1-1.8c-0.1-0.2-0.3-0.3-0.5-0.3h-1.3
			c-0.2,0-0.4,0.1-0.5,0.3c-0.1,0.2-0.8,1.3-1,1.8l-1.4,0.6c-0.5-0.2-1.7-0.5-2-0.5c-0.2,0-0.4,0-0.6,0.2l-0.9,0.9
			c-0.2,0.2-0.2,0.4-0.2,0.6c0,0.2,0.4,1.5,0.5,2l-0.6,1.4c-0.4,0.2-1.6,0.9-1.8,1c-0.2,0.1-0.3,0.3-0.3,0.5v1.3
			c0,0.2,0.1,0.4,0.3,0.5c0.1,0.1,1.3,0.8,1.8,1l0.6,1.4c-0.2,0.5-0.5,1.7-0.5,2c0,0.2,0,0.4,0.2,0.6l0.9,0.9
			c0.2,0.2,0.4,0.2,0.6,0.2c0.2,0,1.5-0.4,2-0.5l1.4,0.6c0.2,0.4,0.9,1.6,1,1.8c0.1,0.2,0.3,0.3,0.5,0.3h1.3c0.2,0,0.4-0.1,0.5-0.3
			c0.1-0.1,0.8-1.3,1-1.8l1.4-0.6c0.5,0.2,1.7,0.5,2,0.5c0.2,0,0.4,0,0.6-0.2l0.9-0.9c0.2-0.2,0.2-0.4,0.2-0.6c0-0.2-0.4-1.5-0.5-2
			l0.6-1.4c0.4-0.2,1.6-0.9,1.8-1c0.2-0.1,0.3-0.3,0.3-0.5v-1.3C-1376.7-260.8-1376.8-261-1377-261.2z M-1386-256c-2.2,0-4-1.8-4-4
			c0-2.2,1.8-4,4-4c2.2,0,4,1.8,4,4C-1382-257.8-1383.8-256-1386-256z"/>
	</g>
</g>
</svg>
