<svg xmlns="http://www.w3.org/2000/svg" width="44" height="57" viewBox="0 0 44 57">
    <defs>
        <filter id="a" width="108.4%" height="193.1%" x="-4.2%" y="-46.6%" filterUnits="objectBoundingBox">
            <feOffset dy="18" in="SourceAlpha" result="shadowOffsetOuter1"/>
            <feGaussianBlur in="shadowOffsetOuter1" result="shadowBlurOuter1" stdDeviation="8.5"/>
            <feColorMatrix in="shadowBlurOuter1" result="shadowMatrixOuter1" values="0 0 0 0 0 0 0 0 0 0 0 0 0 0 0 0 0 0 0.05 0"/>
            <feMerge>
                <feMergeNode in="shadowMatrixOuter1"/>
                <feMergeNode in="SourceGraphic"/>
            </feMerge>
        </filter>
    </defs>
    <path fill="#191919" fill-rule="nonzero" d="M2 25h2v-2H2v2zm5-11c1.66 0 2.99-1.34 2.99-3L10 5c0-1.66-1.34-3-3-3S4 3.34 4 5v6c0 1.66 1.34 3 3 3zM6 25h2v-2H6v2zm4 0h2v-2h-2v2zm4-14h-1.7c0 3-2.54 5.1-5.3 5.1S1.7 14 1.7 11H0c0 3.41 2.72 6.23 6 6.72V21h2v-3.28c3.28-.49 6-3.31 6-6.72z" filter="url(#a)" transform="translate(15 -2)"/>
</svg>
