<svg xmlns="http://www.w3.org/2000/svg" width="29" height="29" viewBox="0 0 29 29">
  <g id="Group_4670" data-name="Group 4670" transform="translate(-1394 -268)">
    <g id="Ellipse_44" data-name="Ellipse 44" transform="translate(1394 268)" fill="none" stroke="#4f4f4f" stroke-width="1" opacity="0.31">
      <circle cx="14.5" cy="14.5" r="14.5" stroke="none"/>
      <circle cx="14.5" cy="14.5" r="14" fill="none"/>
    </g>
    <g id="preference_2_" data-name="preference (2)" transform="translate(1401 274.999)">
      <g id="Group_4669" data-name="Group 4669" transform="translate(0 0.001)">
        <path id="Path_2183" data-name="Path 2183" d="M14.766,6.562c-.121-.076-1.067-.643-1.443-.815l-.466-1.125c.138-.372.4-1.415.444-1.6a.5.5,0,0,0-.134-.465l-.729-.729a.5.5,0,0,0-.465-.134c-.137.031-1.208.3-1.6.444L9.253,1.678C9.089,1.318,8.539.394,8.439.235A.5.5,0,0,0,8.015,0H6.985a.5.5,0,0,0-.423.234C6.486.356,5.919,1.3,5.747,1.678l-1.125.466c-.372-.138-1.415-.4-1.6-.444a.5.5,0,0,0-.465.134l-.729.729a.5.5,0,0,0-.134.465c.031.137.3,1.208.444,1.6L1.677,5.748c-.36.165-1.283.714-1.443.815A.5.5,0,0,0,0,6.986v1.03a.5.5,0,0,0,.234.423c.121.076,1.067.643,1.443.815l.466,1.125c-.138.372-.4,1.415-.444,1.6a.5.5,0,0,0,.134.465l.729.729a.5.5,0,0,0,.465.134c.137-.031,1.208-.3,1.6-.444l1.125.466c.165.36.714,1.283.815,1.443A.5.5,0,0,0,6.985,15h1.03a.5.5,0,0,0,.423-.234c.076-.121.643-1.067.815-1.443l1.125-.466c.372.138,1.415.4,1.6.444a.5.5,0,0,0,.465-.134l.729-.729a.5.5,0,0,0,.134-.465c-.031-.137-.3-1.208-.444-1.6l.466-1.125c.36-.165,1.283-.714,1.443-.815A.5.5,0,0,0,15,8.016V6.986A.5.5,0,0,0,14.766,6.562ZM7.5,10.771A3.27,3.27,0,1,1,10.77,7.5,3.273,3.273,0,0,1,7.5,10.771Z" transform="translate(0 -0.001)" fill="#4B88BC"/>
      </g>
    </g>
  </g>
</svg>
