<svg xmlns="http://www.w3.org/2000/svg" width="36.765" height="33.891" viewBox="0 0 36.765 33.891">
  <g id="XMLID_1170_" transform="translate(0 -20.016)">
    <g id="XMLID_396_" transform="translate(0 20.016)">
      <path id="XMLID_425_" d="M36.346,49.271,32,41.749a3.582,3.582,0,0,0,1.886-3.162V23.607a3.594,3.594,0,0,0-3.59-3.59H26.041a.718.718,0,0,0,0,1.436H30.3a2.156,2.156,0,0,1,2.154,2.154v14.98a2.148,2.148,0,0,1-1.17,1.916l-2.577-4.464a3.091,3.091,0,0,0-5.354,0l-2.675,4.633a10.358,10.358,0,0,0-7.512-9.923V23.607a2.156,2.156,0,0,1,2.154-2.154h4.259a.718.718,0,1,0,0-1.436H15.32a3.594,3.594,0,0,0-3.59,3.59V30.45a10.339,10.339,0,1,0-1.39,20.585,10.276,10.276,0,0,0,5.2-1.4,3.092,3.092,0,0,0,2.855,4.277H33.669a3.091,3.091,0,0,0,2.677-4.637ZM1.436,40.7a8.9,8.9,0,1,1,8.9,8.9A8.913,8.913,0,0,1,1.436,40.7ZM35.1,51.644a1.638,1.638,0,0,1-1.433.828H18.39a1.655,1.655,0,0,1-1.433-2.483L24.6,36.757a1.655,1.655,0,0,1,2.867,0L35.1,49.989A1.638,1.638,0,0,1,35.1,51.644Z" transform="translate(0 -20.017)" fill="#20ac9e"/>
      <path id="XMLID_427_" d="M308.4,21.452a.718.718,0,1,0-.508-.21A.722.722,0,0,0,308.4,21.452Z" transform="translate(-285.589 -20.016)" fill="#20ac9e"/>
    </g>
  </g>
</svg>
