<svg id="speedometer" xmlns="http://www.w3.org/2000/svg" width="26" height="26" viewBox="0 0 26 26">
  <path id="Path_954" data-name="Path 954" d="M100,368.668a12.93,12.93,0,0,0,8.325-3.1,9.9,9.9,0,0,0-16.671-.019A12.927,12.927,0,0,0,100,368.668Zm-2.285-6.145h4.57v1.523h-4.57Zm0,0" transform="translate(-86.998 -342.668)" fill="#4B88BC"/>
  <path id="Path_955" data-name="Path 955" d="M91.754,100.864a8.269,8.269,0,0,0,2.166,4.884,11.316,11.316,0,0,1,12.354,0,8.267,8.267,0,0,0,2.161-4.879H106.95V99.34h1.485a8.338,8.338,0,0,0-1.905-4.6l-1.049,1.049L104.4,94.716l1.049-1.049a8.338,8.338,0,0,0-4.6-1.905v1.485H99.333V91.762a8.338,8.338,0,0,0-4.6,1.905l1.049,1.049-1.077,1.077L93.66,94.744a8.338,8.338,0,0,0-1.905,4.6h1.485v1.523Zm9.529-2.714a2.285,2.285,0,1,1-3.14,3.14l-2.63-5.769Zm0,0" transform="translate(-87.095 -87.102)" fill="#4B88BC"/>
  <path id="Path_956" data-name="Path 956" d="M13,0A12.927,12.927,0,0,0,3.551,21.825,11.3,11.3,0,0,1,5.587,19.55,9.79,9.79,0,0,1,3.1,13a9.9,9.9,0,1,1,19.8,0,9.79,9.79,0,0,1-2.492,6.554,11.462,11.462,0,0,1,2.037,2.273A12.927,12.927,0,0,0,13,0Zm0,0" fill="#4B88BC"/>
  <path id="Path_957" data-name="Path 957" d="M227.731,228.493a.762.762,0,0,0,.427-1.393l-1.939-.882.9,1.988A.759.759,0,0,0,227.731,228.493Zm0,0" transform="translate(-214.731 -214.731)" fill="#4B88BC"/>
</svg>
