<svg xmlns="http://www.w3.org/2000/svg" width="61.565" height="59" viewBox="0 0 61.565 59">
  <g id="Group_4727" data-name="Group 4727" transform="translate(-653.435 -140)" opacity="0.31">
    <g id="Group_4726" data-name="Group 4726">
      <g id="Group_4725" data-name="Group 4725">
        <g id="Group_4718" data-name="Group 4718" transform="translate(682.294 180.402)">
          <path id="Path_2208" data-name="Path 2208" d="M13.174,35.348a1.925,1.925,0,0,1-1.924-1.924V18.674a1.924,1.924,0,0,1,3.848,0v14.75A1.925,1.925,0,0,1,13.174,35.348Z" transform="translate(-11.25 -16.75)" fill="#39afd1"/>
        </g>
        <g id="Group_4719" data-name="Group 4719" transform="translate(682.294 188.098)">
          <path id="Path_2209" data-name="Path 2209" d="M24.076,30.652a1.924,1.924,0,0,1-1.044-.308L12.13,23.29a1.924,1.924,0,1,1,2.088-3.232l10.9,7.054a1.924,1.924,0,0,1-1.044,3.54Z" transform="translate(-11.25 -19.75)" fill="#39afd1"/>
        </g>
        <g id="Group_4720" data-name="Group 4720" transform="translate(671.391 188.098)">
          <path id="Path_2210" data-name="Path 2210" d="M8.924,30.652a1.924,1.924,0,0,1-1.044-3.54l10.9-7.054A1.924,1.924,0,1,1,20.87,23.29l-10.9,7.054A1.918,1.918,0,0,1,8.924,30.652Z" transform="translate(-7 -19.75)" fill="#39afd1"/>
        </g>
      </g>
      <g id="Group_4721" data-name="Group 4721" transform="translate(653.435 140)">
        <path id="Path_2211" data-name="Path 2211" d="M55.793,12.543H5.772A5.772,5.772,0,0,1,5.772,1H55.793a5.772,5.772,0,0,1,0,11.543ZM5.772,4.848a1.924,1.924,0,1,0,0,3.848H55.793a1.924,1.924,0,0,0,0-3.848Z" transform="translate(0 -1)" fill="#39afd1"/>
      </g>
    </g>
    <g id="Group_4724" data-name="Group 4724">
      <g id="Group_4722" data-name="Group 4722" transform="translate(657.924 147.696)">
        <path id="Path_2212" data-name="Path 2212" d="M49.848,39.913H6.239A4.494,4.494,0,0,1,1.75,35.424V5.924A1.925,1.925,0,0,1,3.674,4H52.413a1.925,1.925,0,0,1,1.924,1.924v29.5A4.494,4.494,0,0,1,49.848,39.913ZM5.6,7.848V35.424a.642.642,0,0,0,.641.641H49.848a.642.642,0,0,0,.641-.641V7.848Z" transform="translate(-1.75 -4)" fill="#39afd1"/>
      </g>
      <g id="Group_4723" data-name="Group 4723" transform="translate(668.825 155.39)">
        <path id="Path_2213" data-name="Path 2213" d="M7.924,27.522a1.924,1.924,0,0,1-1.342-3.3l9.794-9.527a1.923,1.923,0,0,1,2.388-.236l5.9,3.83L33.371,7.7a1.925,1.925,0,0,1,2.973,2.445L26.55,22.056a1.929,1.929,0,0,1-2.532.392l-6.056-3.93L9.269,26.976A1.931,1.931,0,0,1,7.924,27.522Z" transform="translate(-6 -7)" fill="#39afd1"/>
      </g>
    </g>
  </g>
</svg>
