<svg xmlns="http://www.w3.org/2000/svg" width="127.211" height="137.788" viewBox="0 0 127.211 137.788">
  <g id="flags-icons" transform="translate(-1.663)">
    <g id="Group_2525" data-name="Group 2525" transform="translate(1.663)">
      <g id="Group_2524" data-name="Group 2524">
        <path id="Path_1229" data-name="Path 1229" d="M23.661,98.333V17.525a6.042,6.042,0,0,0-12.083,0V98.34a16.811,16.811,0,0,0-9.852,11.412,2.4,2.4,0,0,0,.483,2.057,2.464,2.464,0,0,0,1.952.906H31.214a2.392,2.392,0,0,0,2.368-2.975A16.392,16.392,0,0,0,23.661,98.333Z" transform="translate(-1.663 25.073)" fill="#e35f1b"/>
        <path id="Path_1230" data-name="Path 1230" d="M37.019,33.9V24.3L24.93,26.746v7.127a16.38,16.38,0,0,0-9.912,11.419,2.5,2.5,0,0,0,2.391,3.071h27.05A2.5,2.5,0,0,0,46.842,45.3,16.435,16.435,0,0,0,37.019,33.9Z" transform="translate(27.29 52.95)" fill="#e35f1b"/>
        <path id="Path_1231" data-name="Path 1231" d="M73.909,12.625,24.426,2.589V35.815l49.48-10.036a6.714,6.714,0,0,0,0-13.154Z" transform="translate(47.936 5.641)" fill="#e35f1b"/>
        <path id="Path_1232" data-name="Path 1232" d="M30.179,6.015a6.045,6.045,0,0,0-12.089,0v37.14l12.089,2.438V6.015Z" transform="translate(34.13)" fill="#e35f1b"/>
        <path id="Path_1233" data-name="Path 1233" d="M60.656,24.133,11.119,14.1V47.323L60.656,37.287a6.714,6.714,0,0,0,0-13.154Z" transform="translate(18.941 30.716)" fill="#e35f1b"/>
      </g>
    </g>
  </g>
</svg>
