<svg xmlns="http://www.w3.org/2000/svg" width="325.106" height="460.18" viewBox="0 0 325.106 460.18">
  <g id="tap_1_" data-name="tap (1)" transform="translate(-0.089 0)">
    <path id="Path_1292" data-name="Path 1292" d="M301.9,202.18h-.668c-12.809,0-23.59,10.887-23.59,24.879v19.395a7,7,0,0,1-14,0V210.641c0-13.992-10.16-25.375-22.965-25.375-12.875,0-23.035,11.383-23.035,25.375V248.6a7,7,0,0,1-14,0V200.219c0-13.988-10.562-25.039-23.367-25.039h-.711c-12.484,0-22.922,10.48-22.922,23.984v54.477a7,7,0,1,1-14,0v-52.9c0-.172-.02-.352-.02-.527,0-.43.02-.859.02-1.285V75.254c0-13.992-10.559-25.371-23.359-25.371S95.925,61.258,95.914,75.238l-.141,205.09a7,7,0,0,1-12.41,4.441L58.875,254.961a37.28,37.28,0,0,0-26.312-13.914,36.483,36.483,0,0,0-27.41,9.836c-.086.078-.176.172-.27.25L.089,255.141l84.9,163.16c13.4,25.754,38.746,41.879,66.133,41.879h98.145c41.766,0,75.777-36.746,75.82-81.758.023-23.836.047-41.715.066-56.117.051-38.5.066-52.66-.031-95.07-.031-13.953-10.449-25.055-23.223-25.055Zm0,0" fill="#fff"/>
    <path id="Path_1293" data-name="Path 1293" d="M55.594,77.7a7,7,0,0,0,7-7,56.438,56.438,0,1,1,112.875,0,7,7,0,0,0,14,0,70.438,70.438,0,1,0-140.875,0,7,7,0,0,0,7,7Zm0,0" fill="#fff"/>
  </g>
</svg>
