<svg xmlns="http://www.w3.org/2000/svg" width="36" height="36" viewBox="0 0 36 36">
  <g id="Group_4871" data-name="Group 4871" transform="translate(-219 -372)">
    <circle id="Ellipse_164" data-name="Ellipse 164" cx="18" cy="18" r="18" transform="translate(219 372)" fill="#ffa800" opacity="0.19"/>
    <g id="clipboard_3_" data-name="clipboard (3)" transform="translate(229 380)">
      <g id="Group_4689" data-name="Group 4689" transform="translate(0 0)">
        <g id="Group_4688" data-name="Group 4688" transform="translate(0 0)">
          <path id="Path_2195" data-name="Path 2195" d="M142.338,1.534h-1.481a.416.416,0,0,1-.39-.312A1.506,1.506,0,0,0,138.936,0,1.532,1.532,0,0,0,137.4,1.249a.39.39,0,0,1-.39.286h-1.429v2.6h6.753Z" transform="translate(-131.429 -0.001)" fill="#ffa800"/>
          <path id="Path_2196" data-name="Path 2196" d="M67.053,78.084V63.2a1.065,1.065,0,0,0-1.062-1.068q-.04,0-.081,0H63.677V63.46c0,.208-.13.494-.338.494H55.677c-.208,0-.312-.286-.312-.494V62.135H53.131a1.065,1.065,0,0,0-1.14.984q0,.04,0,.081V78.084a1.169,1.169,0,0,0,1.142,1.195h12.78a1.169,1.169,0,0,0,1.143-1.194Zm-9.637-3.429-2.026,1.9a.363.363,0,0,1-.26.13.416.416,0,0,1-.286-.13L53.78,75.46a.4.4,0,0,1,.571-.545l.779.831L56.9,74.084a.39.39,0,0,1,.519.571Zm0-4.156h0l-2.026,1.9a.363.363,0,0,1-.26.13.416.416,0,0,1-.286-.13L53.78,71.3a.4.4,0,0,1,.571-.545l.779.831L56.9,69.928a.39.39,0,0,1,.519.571Zm0-4.156-2.026,1.9a.363.363,0,0,1-.26.13.416.416,0,0,1-.286-.13L53.78,67.149a.4.4,0,0,1,.571-.545l.779.831L56.9,65.772a.39.39,0,0,1,.519.571Zm7.559,9.818H59a.39.39,0,1,1,0-.779h5.974a.39.39,0,0,1,0,.779Zm0-4.156H59a.39.39,0,1,1,0-.779h5.974a.39.39,0,0,1,0,.779Zm0-4.156H59a.39.39,0,0,1,0-.779h5.974a.39.39,0,0,1,0,.779Z" transform="translate(-51.988 -59.044)" fill="#ffa800"/>
        </g>
      </g>
    </g>
  </g>
</svg>
