<?xml version="1.0" encoding="utf-8"?>
<!-- Generator: Adobe Illustrator 25.0.0, SVG Export Plug-In . SVG Version: 6.00 Build 0)  -->
<svg version="1.1" id="Layer_1" xmlns="http://www.w3.org/2000/svg" xmlns:xlink="http://www.w3.org/1999/xlink" x="0px" y="0px"
	 viewBox="0 0 561 561" style="enable-background:new 0 0 561 561;" xml:space="preserve">
<style type="text/css">
	.st0{fill:#3898EC;}
	.st1{fill:#FFFFFF;}
</style>
<circle class="st0" cx="280.5" cy="280.5" r="273.5"/>
<g transform="translate(0 0)">
	<path class="st1" d="M371.9,165.4h-28.3v-12.6c0-4.1-4.5-5.9-8.5-5.9h-21.9c-4.8-14-18.3-23.1-33.1-22.3
		c-14.7-0.6-28.1,8.5-33.1,22.3h-21.5c-4.1,0-8.2,1.9-8.2,5.9v12.7h-28.2c-16.7,0.2-30.4,13.4-31.2,30.1v212.9
		c0,16.3,14.9,28.2,31.2,28.2h182.8c16.3,0,31.2-11.9,31.2-28.2V195.5C402.3,178.7,388.6,165.5,371.9,165.4z M232.2,161.7h20.4
		c3.6-0.4,6.4-3.2,7-6.7c2.2-9.6,10.6-16.5,20.4-16.7c9.7,0.3,18,7.2,20.1,16.7c0.7,3.7,3.7,6.4,7.4,6.7h21.2v29.7h-96.6
		L232.2,161.7z M388.2,408.3c0,8.2-8.2,13.4-16.3,13.4H189.1c-8.2,0-16.3-5.2-16.3-13.4V195.5c0.8-8.5,7.8-15.1,16.3-15.2h28.2v18.9
		c0.4,4.2,4,7.3,8.2,7.1h109.6c4.3,0.2,8-2.8,8.5-7.1v-18.9h28.3c8.5,0.2,15.6,6.7,16.3,15.2L388.2,408.3L388.2,408.3z"/>
	<path class="st1" d="M358.5,247.1h-85.4c-4.1,0-7.4,3.3-7.4,7.4c0,4.1,3.3,7.4,7.4,7.4h85.4c4.1,0,7.4-3.3,7.4-7.4
		C365.9,250.4,362.6,247.1,358.5,247.1z"/>
	<path class="st1" d="M241.5,301l-23.8,22.7l-10-10.4c-2.8-2.9-7.4-3.1-10.4-0.4c-2.9,3-2.9,7.8,0,10.8l15.2,15.6
		c1.3,1.5,3.2,2.3,5.2,2.2c2,0,3.8-0.8,5.2-2.2l29-27.5c0.2-0.1,0.3-0.3,0.4-0.4c2.6-2.9,2.4-7.3-0.4-10
		C249.1,298.4,244.5,298.3,241.5,301z"/>
	<path class="st1" d="M358.5,317.3h-85.4c-4.1,0-7.4,3.3-7.4,7.4c0,4.1,3.3,7.4,7.4,7.4h85.4c4.1,0,7.4-3.3,7.4-7.4
		C365.9,320.7,362.6,317.3,358.5,317.3C358.5,317.3,358.5,317.3,358.5,317.3z"/>
	<path class="st1" d="M241.5,355l-23.8,22.7l-10-10.4c-2.8-2.9-7.4-3.1-10.4-0.4c-2.9,3-2.9,7.8,0,10.8l15.2,15.6
		c1.3,1.5,3.2,2.3,5.2,2.2c2,0,3.8-0.8,5.2-2.2l29-27.5c0.2-0.1,0.3-0.3,0.4-0.4c2.6-2.9,2.4-7.3-0.4-10
		C249.1,352.5,244.5,352.3,241.5,355z"/>
	<path class="st1" d="M358.5,371.4h-85.4c-4.1,0-7.4,3.3-7.4,7.4c0,4.1,3.3,7.4,7.4,7.4c0,0,0,0,0,0h85.4c4.1,0,7.4-3.3,7.4-7.4
		C365.9,374.7,362.6,371.4,358.5,371.4C358.5,371.4,358.5,371.4,358.5,371.4z"/>
	<path class="st1" d="M201,281.3h44.2c0.3,0,0.5,0,0.8,0c3.9-0.2,6.9-3.5,6.7-7.4v-40.1c0-4.1-3.3-7.4-7.4-7.4H201
		c-4.1,0-7.4,3.3-7.4,7.4v40.1c0,0.3,0,0.5,0,0.8C193.8,278.5,197.1,281.5,201,281.3z M208.4,241.2h29.3v25.3h-29.3V241.2z"/>
</g>
</svg>
