<svg id="clipboard_3_" data-name="clipboard (3)" xmlns="http://www.w3.org/2000/svg" width="20.847" height="28" viewBox="0 0 20.847 28">
  <g id="Group_4689" data-name="Group 4689" transform="translate(0 0)">
    <g id="Group_4688" data-name="Group 4688" transform="translate(0 0)">
      <path id="Path_2195" data-name="Path 2195" d="M144.93,2.123h-2.049a.575.575,0,0,1-.539-.431A2.085,2.085,0,0,0,140.221,0,2.12,2.12,0,0,0,138.1,1.727a.539.539,0,0,1-.539.4h-1.977V5.717h9.345Z" transform="translate(-129.834 -0.001)" fill="#ffa800"/>
      <path id="Path_2196" data-name="Path 2196" d="M72.835,84.2V63.61a1.474,1.474,0,0,0-1.47-1.478q-.056,0-.112,0H68.162V63.97c0,.288-.18.683-.467.683h-10.6c-.288,0-.431-.4-.431-.683V62.137H53.57A1.474,1.474,0,0,0,51.992,63.5q0,.056,0,.112V84.2a1.617,1.617,0,0,0,1.581,1.653H71.253a1.617,1.617,0,0,0,1.581-1.653ZM59.5,79.461l-2.8,2.624a.5.5,0,0,1-.359.18.575.575,0,0,1-.4-.18l-1.474-1.51a.547.547,0,0,1,.791-.755l1.078,1.15,2.444-2.3a.539.539,0,0,1,.719.791Zm0-5.751h0l-2.8,2.624a.5.5,0,0,1-.359.18.575.575,0,0,1-.4-.18l-1.474-1.51a.547.547,0,0,1,.791-.755l1.078,1.15,2.444-2.3a.539.539,0,0,1,.719.791Zm0-5.751-2.8,2.624a.5.5,0,0,1-.359.18.575.575,0,0,1-.4-.18l-1.474-1.51a.547.547,0,0,1,.791-.755l1.078,1.15,2.444-2.3a.539.539,0,0,1,.719.791ZM69.959,81.545H61.693a.539.539,0,0,1,0-1.078h8.267a.539.539,0,0,1,0,1.078Zm0-5.751H61.693a.539.539,0,0,1,0-1.078h8.267a.539.539,0,0,1,0,1.078Zm0-5.751H61.693a.539.539,0,0,1,0-1.078h8.267a.539.539,0,0,1,0,1.078Z" transform="translate(-51.988 -57.858)" fill="#ffa800"/>
    </g>
  </g>
</svg>
