<?xml version="1.0" encoding="utf-8"?>
<!-- Generator: Adobe Illustrator 24.1.3, SVG Export Plug-In . SVG Version: 6.00 Build 0)  -->
<svg version="1.1" id="Layer_1" xmlns="http://www.w3.org/2000/svg" xmlns:xlink="http://www.w3.org/1999/xlink" x="0px" y="0px"
	 viewBox="0 0 675 385" style="enable-background:new 0 0 675 385;" xml:space="preserve">
<style type="text/css">
	.st0{fill:#39AFD1;}
</style>
<path id="Exclusion_12" class="st0" d="M628,385H47c-25.9,0-47-21-47-46.9c0,0,0-0.1,0-0.1V47C0,21.1,21,0,46.9,0c0,0,0.1,0,0.1,0
	h581c25.9,0,47,21,47,46.9c0,0,0,0.1,0,0.1v291C675,363.9,654,385,628,385C628.1,385,628,385,628,385z M49,253v52h368v-52H49z
	 M49,161v52h561v-52H49z M49,69v52h561V69H49z"/>
</svg>
