<?xml version="1.0" encoding="utf-8"?>
<!-- Generator: Adobe Illustrator 24.1.3, SVG Export Plug-In . SVG Version: 6.00 Build 0)  -->
<svg version="1.1" id="Layer_1" xmlns="http://www.w3.org/2000/svg" xmlns:xlink="http://www.w3.org/1999/xlink" x="0px" y="0px"
	 viewBox="0 0 799.2 648.7" style="enable-background:new 0 0 799.2 648.7;" xml:space="preserve">
<style type="text/css">
	.st0{fill:#39AFD1;}
</style>
<g id="type" transform="translate(1.75 6.21)">
	<path id="Path_2404" class="st0" d="M774.1,119.2H668.7v145.2c29.7,24.9,33.6,69.1,8.7,98.8c-2.6,3.1-5.5,6-8.7,8.7v145.2h105.3
		c12.9,0,23.4-10.5,23.4-23.4l0,0V142.6C797.5,129.7,787,119.2,774.1,119.2L774.1,119.2L774.1,119.2z"/>
	<path id="Path_2405" class="st0" d="M528.3,371.9c-29.7-24.9-33.6-69.2-8.7-98.9c2.6-3.1,5.5-6,8.7-8.7V119.2H21.7
		c-12.9,0-23.4,10.5-23.4,23.4v351.1c0,12.9,10.5,23.4,23.4,23.4h506.6V371.9z"/>
	<path id="Path_2406" class="st0" d="M621.9,559.3V341.6h1.7c12.9,0,23.4-10.5,23.4-23.4s-10.5-23.4-23.4-23.4l0,0h-1.7V77.1
		l43.3-43.3c9.1-9.1,9.1-24,0-33.1s-24-9.1-33.1,0l-33.6,33.6L564.9,0.6c-9.1-9.1-24-9.1-33.1,0c-9.1,9.1-9.1,24,0,33.1l0,0
		l43.3,43.3v217.7h-1.7c-12.9,0-23.4,10.5-23.4,23.4s10.5,23.4,23.4,23.4h1.7v217.7l-43.3,43.3c-9.1,9.2-9,24,0.2,33.1
		c9.1,9,23.8,9,32.9,0l33.6-33.6l33.6,33.6c9.2,9.1,24,9.1,33.1-0.1c9.1-9.1,9.1-23.9,0-33L621.9,559.3z"/>
</g>
</svg>
