<svg xmlns="http://www.w3.org/2000/svg" width="245.151" height="294.133" viewBox="0 0 245.151 294.133">
  <g id="graph_1_" data-name="graph (1)" transform="translate(-38.284 0)">
    <g id="Group_2544" data-name="Group 2544" transform="translate(38.284 0)">
      <g id="Group_2543" data-name="Group 2543">
        <path id="Path_1294" data-name="Path 1294" d="M173.317,73.538a6.482,6.482,0,0,0,0,.687,6.35,6.35,0,0,0,6.684,6H291.965a6.478,6.478,0,0,0,.687,0,6.35,6.35,0,0,0,6-6.684V6.694a6.482,6.482,0,0,0,0-.687,6.35,6.35,0,0,0-6.684-6H180a6.478,6.478,0,0,0-.687,0,6.35,6.35,0,0,0-6,6.684Zm13.369-60.16H285.28V66.854H186.686Z" transform="translate(-86.93 0)" fill="#4B88BC"/>
        <path id="Path_1295" data-name="Path 1295" d="M332.072,240.721V173.877a6.466,6.466,0,0,0,0-.687,6.35,6.35,0,0,0-6.684-6H180a6.482,6.482,0,0,0-.687,0,6.35,6.35,0,0,0-6,6.684v66.844a6.474,6.474,0,0,0,0,.687,6.35,6.35,0,0,0,6.684,6H325.387a6.466,6.466,0,0,0,.687,0A6.35,6.35,0,0,0,332.072,240.721ZM318.7,234.037H186.686V180.561H318.7v53.475Z" transform="translate(-86.93 -60.233)" fill="#4B88BC"/>
        <path id="Path_1296" data-name="Path 1296" d="M298.65,341.061a6.482,6.482,0,0,0,0-.687,6.35,6.35,0,0,0-6.684-6H180a6.466,6.466,0,0,0-.687,0,6.35,6.35,0,0,0-6,6.684v66.844a6.474,6.474,0,0,0,0,.687,6.35,6.35,0,0,0,6.684,6H291.966a6.466,6.466,0,0,0,.687,0,6.35,6.35,0,0,0,6-6.684Zm-13.369,60.16h-98.6V347.746h98.595v53.475Z" transform="translate(-86.931 -120.466)" fill="#4B88BC"/>
        <path id="Path_1297" data-name="Path 1297" d="M96.563,33.762A29.077,29.077,0,0,0,39.11,40.079,28.409,28.409,0,0,0,61.169,68.487v54.144a29.077,29.077,0,0,0,0,56.817v54.144A28.409,28.409,0,0,0,39.11,262a29.077,29.077,0,1,0,35.428-28.409V179.449a29.217,29.217,0,0,0,0-56.817V68.487A29.076,29.076,0,0,0,96.563,33.762ZM84.23,262A16.043,16.043,0,0,1,68.187,277.71a15.708,15.708,0,1,1,0-31.417A16.043,16.043,0,0,1,84.23,262ZM83.906,151.03a15.709,15.709,0,0,1-15.7,15.719h-.02A15.708,15.708,0,1,1,83.906,151.03ZM68.187,55.787a15.712,15.712,0,0,1,0-31.417A16.043,16.043,0,0,1,84.231,40.079,16.043,16.043,0,0,1,68.187,55.787Z" transform="translate(-38.284 -3.974)" fill="#4B88BC"/>
        <path id="Path_1298" data-name="Path 1298" d="M211.353,49.955h38.436a6.684,6.684,0,0,0,0-13.369H211.353a6.684,6.684,0,0,0,0,13.369Z" transform="translate(-98.229 -13.181)" fill="#4B88BC"/>
        <path id="Path_1299" data-name="Path 1299" d="M283.211,67.933H211.353a6.684,6.684,0,1,0,0,13.369h71.858a6.684,6.684,0,1,0,0-13.369Z" transform="translate(-98.229 -24.475)" fill="#4B88BC"/>
        <path id="Path_1300" data-name="Path 1300" d="M211.353,217.139h38.436a6.684,6.684,0,1,0,0-13.369H211.353a6.684,6.684,0,0,0,0,13.369Z" transform="translate(-98.229 -73.414)" fill="#4B88BC"/>
        <path id="Path_1301" data-name="Path 1301" d="M211.353,248.486h71.858a6.684,6.684,0,1,0,0-13.369H211.353a6.684,6.684,0,1,0,0,13.369Z" transform="translate(-98.229 -84.708)" fill="#4B88BC"/>
        <path id="Path_1302" data-name="Path 1302" d="M211.353,384.323h38.436a6.684,6.684,0,1,0,0-13.369H211.353a6.684,6.684,0,0,0,0,13.369Z" transform="translate(-98.229 -133.648)" fill="#4B88BC"/>
        <path id="Path_1303" data-name="Path 1303" d="M211.353,415.669h71.858a6.684,6.684,0,0,0,0-13.369H211.353a6.684,6.684,0,1,0,0,13.369Z" transform="translate(-98.229 -144.941)" fill="#4B88BC"/>
      </g>
    </g>
  </g>
</svg>
