<?xml version="1.0" encoding="utf-8"?>
<!-- Generator: Adobe Illustrator 24.2.0, SVG Export Plug-In . SVG Version: 6.00 Build 0)  -->
<svg version="1.1" id="Layer_1" xmlns="http://www.w3.org/2000/svg" xmlns:xlink="http://www.w3.org/1999/xlink" x="0px" y="0px"
	 viewBox="0 0 512 440.1" style="enable-background:new 0 0 512 440.1;" xml:space="preserve">
<style type="text/css">
	.st0{fill:#FFA800;}
	.st1{fill:#4B88BC;}
</style>
<g id="cloud-computing_2_" transform="translate(0 -35.93)">
	<g id="Group_4652">
		<g id="Group_4651">
			<path id="Path_2164" class="st0" d="M256.5,201.3L148.4,309.4l28.2,28.2l59.9-59.9v198.3h39.9V277.7l59.9,59.9l28.2-28.2
				L256.5,201.3z"/>
		</g>
	</g>
	<g id="Group_4654">
		<g id="Group_4653">
			<path id="Path_2165" class="st1" d="M416.1,193.2c-2.4-87.1-74-157.2-161.6-157.2c-76.9,0-143.1,54.1-158.5,129.5
				c-65.7,14.2-107.5,79-93.3,144.8c12.1,56,61.7,96,119,96c0.2,0,0.3,0,0.4,0h20.5v-39.9H122h-0.4c-45.1-0.1-81.7-36.7-81.7-81.8
				c0-42.4,33-78.2,75.2-81.6l16.6-1.3l1.7-16.5c7-66.9,66.8-115.5,133.7-108.5c62,6.5,109.1,58.7,109.2,121.1v34.9h28.9
				c36.9,0,66.9,29.9,66.9,66.9s-29.9,66.9-66.9,66.9l-34.9,0v39.9h34.3c0.2,0,0.4,0,0.6,0c59,0,106.8-47.8,106.8-106.8
				C512,244.7,470.6,198.8,416.1,193.2L416.1,193.2z"/>
		</g>
	</g>
</g>
</svg>
