<?xml version="1.0" encoding="utf-8"?>
<!-- Generator: Adobe Illustrator 24.1.2, SVG Export Plug-In . SVG Version: 6.00 Build 0)  -->
<svg version="1.1" id="Layer_1" xmlns="http://www.w3.org/2000/svg" xmlns:xlink="http://www.w3.org/1999/xlink" x="0px" y="0px"
	 viewBox="0 0 1070 322.1" style="enable-background:new 0 0 1070 322.1;" xml:space="preserve">
<style type="text/css">
	.st0{fill:#41A2C4;}
	.st1{fill:#FFFFFF;}
	.st2{font-family:'Calibri';}
	.st3{font-size:225.9064px;}
</style>
<path class="st0" d="M909,322.1H161c-88.6,0-161-72.5-161-161v0C0,72.5,72.5,0,161,0L909,0c88.6,0,161,72.5,161,161v0
	C1070,249.6,997.5,322.1,909,322.1z"/>
<text transform="matrix(1 0 0 1 338.6005 228.4224)" class="st1 st2 st3">View</text>
<g>
	<g>
		<g>
			<path class="st1" d="M181.6,135.9c-13.9,0-25.1,11.3-25.1,25.1s11.3,25.1,25.1,25.1s25.1-11.3,25.1-25.1
				C206.8,147.2,195.5,135.9,181.6,135.9z"/>
			<path class="st1" d="M181.6,98.2c-41.9,0-77.7,26.1-92.1,62.8c14.5,36.8,50.3,62.8,92.1,62.8c41.9,0,77.7-26.1,92.1-62.8
				C259.3,124.3,223.6,98.2,181.6,98.2z M181.6,202.9c-23.1,0-41.9-18.8-41.9-41.9s18.8-41.9,41.9-41.9s41.9,18.8,41.9,41.9
				S204.8,202.9,181.6,202.9z"/>
		</g>
	</g>
</g>
</svg>
