<svg xmlns="http://www.w3.org/2000/svg" width="59" height="59" viewBox="0 0 59 59">
  <g id="shapes-and-symbols" transform="translate(0 0)" opacity="0.31">
    <path id="Path_2257" data-name="Path 2257" d="M22.739,19.667H4.3a4.307,4.307,0,0,1-4.3-4.3V4.3A4.307,4.307,0,0,1,4.3,0H22.739a4.307,4.307,0,0,1,4.3,4.3V15.365A4.307,4.307,0,0,1,22.739,19.667ZM4.3,3.688a.615.615,0,0,0-.614.614V15.365a.615.615,0,0,0,.614.615H22.739a.615.615,0,0,0,.615-.615V4.3a.615.615,0,0,0-.615-.614Zm0,0" transform="translate(0 0)" fill="#39afd1"/>
    <path id="Path_2258" data-name="Path 2258" d="M22.739,247.749H4.3a4.307,4.307,0,0,1-4.3-4.3V217.634a4.307,4.307,0,0,1,4.3-4.3H22.739a4.307,4.307,0,0,1,4.3,4.3v25.813A4.307,4.307,0,0,1,22.739,247.749ZM4.3,217.02a.615.615,0,0,0-.614.615v25.813a.615.615,0,0,0,.614.614H22.739a.615.615,0,0,0,.615-.614V217.634a.615.615,0,0,0-.615-.615Zm0,0" transform="translate(0 -188.749)" fill="#39afd1"/>
    <path id="Path_2259" data-name="Path 2259" d="M300.072,361H281.634a4.307,4.307,0,0,1-4.3-4.3V345.635a4.307,4.307,0,0,1,4.3-4.3h18.438a4.307,4.307,0,0,1,4.3,4.3V356.7A4.307,4.307,0,0,1,300.072,361ZM281.634,345.02a.615.615,0,0,0-.615.615V356.7a.615.615,0,0,0,.615.614h18.438a.615.615,0,0,0,.614-.614V345.635a.615.615,0,0,0-.614-.615Zm0,0" transform="translate(-245.374 -301.999)" fill="#39afd1"/>
    <path id="Path_2260" data-name="Path 2260" d="M300.072,34.417H281.634a4.307,4.307,0,0,1-4.3-4.3V4.3a4.307,4.307,0,0,1,4.3-4.3h18.438a4.307,4.307,0,0,1,4.3,4.3V30.115A4.307,4.307,0,0,1,300.072,34.417ZM281.634,3.688a.615.615,0,0,0-.615.614V30.115a.615.615,0,0,0,.615.615h18.438a.615.615,0,0,0,.614-.615V4.3a.615.615,0,0,0-.614-.614Zm0,0" transform="translate(-245.374 0)" fill="#39afd1"/>
  </g>
</svg>
