<svg id="dashboard_1_" data-name="dashboard (1)" xmlns="http://www.w3.org/2000/svg" width="18.62" height="18.62" viewBox="0 0 18.62 18.62">
  <path id="Path_929" data-name="Path 929" d="M7.176,0H1.358A1.359,1.359,0,0,0,0,1.358V4.849A1.359,1.359,0,0,0,1.358,6.207H7.176A1.359,1.359,0,0,0,8.534,4.849V1.358A1.359,1.359,0,0,0,7.176,0Zm0,0" fill="#4B88BC"/>
  <path id="Path_930" data-name="Path 930" d="M7.176,213.332H1.358A1.359,1.359,0,0,0,0,214.69v8.146a1.359,1.359,0,0,0,1.358,1.358H7.176a1.359,1.359,0,0,0,1.358-1.358V214.69A1.359,1.359,0,0,0,7.176,213.332Zm0,0" transform="translate(0 -205.574)" fill="#4B88BC"/>
  <path id="Path_931" data-name="Path 931" d="M284.509,341.332H278.69a1.359,1.359,0,0,0-1.358,1.358v3.491a1.359,1.359,0,0,0,1.358,1.358h5.819a1.359,1.359,0,0,0,1.358-1.358V342.69A1.359,1.359,0,0,0,284.509,341.332Zm0,0" transform="translate(-267.246 -328.919)" fill="#4B88BC"/>
  <path id="Path_932" data-name="Path 932" d="M284.509,0H278.69a1.359,1.359,0,0,0-1.358,1.358V9.5a1.359,1.359,0,0,0,1.358,1.358h5.819A1.359,1.359,0,0,0,285.866,9.5V1.358A1.359,1.359,0,0,0,284.509,0Zm0,0" transform="translate(-267.246)" fill="#4B88BC"/>
</svg>
