<svg xmlns="http://www.w3.org/2000/svg" width="466.4" height="486" viewBox="0 0 466.4 486">
  <g id="light-bulb_1_" data-name="light-bulb (1)" transform="translate(-9.8)">
    <path id="XMLID_49_" d="M298.4,424.7v14.2a22.521,22.521,0,0,1-19.1,22.3l-3.5,12.9A16.055,16.055,0,0,1,260.3,486H225.6a16.055,16.055,0,0,1-15.5-11.9l-3.4-12.9a22.622,22.622,0,0,1-19.2-22.4V424.6a13.657,13.657,0,0,1,13.7-13.7h83.5A13.807,13.807,0,0,1,298.4,424.7Zm64.3-191.4a119.125,119.125,0,0,1-33.6,83.1A109.792,109.792,0,0,0,299.7,376a19.8,19.8,0,0,1-19.6,16.7H205.8a19.605,19.605,0,0,1-19.5-16.6,111.009,111.009,0,0,0-29.6-59.8,119.716,119.716,0,1,1,206-83ZM256.5,160.8A13.507,13.507,0,0,0,243,147.3a86.486,86.486,0,0,0-86.4,86.4,13.5,13.5,0,0,0,27,0A59.471,59.471,0,0,1,243,174.3,13.444,13.444,0,0,0,256.5,160.8ZM243,74.3a13.507,13.507,0,0,0,13.5-13.5V13.5a13.5,13.5,0,0,0-27,0V60.8A13.507,13.507,0,0,0,243,74.3ZM84.1,233.2a13.507,13.507,0,0,0-13.5-13.5H23.3a13.5,13.5,0,0,0,0,27H70.6A13.444,13.444,0,0,0,84.1,233.2Zm378.6-13.5H415.4a13.5,13.5,0,0,0,0,27h47.3a13.5,13.5,0,0,0,0-27ZM111.6,345.6,78.1,379.1a13.47,13.47,0,0,0,19,19.1l33.5-33.5a13.47,13.47,0,1,0-19-19.1ZM364.9,124.8a13.48,13.48,0,0,0,9.5-3.9l33.5-33.5a13.506,13.506,0,0,0-19.1-19.1l-33.5,33.5a13.46,13.46,0,0,0,0,19.1A13.712,13.712,0,0,0,364.9,124.8Zm-253.3-4a13.47,13.47,0,1,0,19-19.1L97.1,68.2A13.506,13.506,0,0,0,78,87.3ZM374.4,345.6a13.506,13.506,0,1,0-19.1,19.1l33.5,33.5a13.47,13.47,0,0,0,19-19.1Z" fill="#e3bb1b"/>
  </g>
</svg>
