<svg xmlns="http://www.w3.org/2000/svg" width="469.334" height="320" viewBox="0 0 469.334 320">
  <g id="visibility" transform="translate(0 -74.667)">
    <g id="Group_4661" data-name="Group 4661">
      <g id="Group_4660" data-name="Group 4660">
        <path id="Path_2168" data-name="Path 2168" d="M234.667,170.667a64,64,0,1,0,64,64A64.05,64.05,0,0,0,234.667,170.667Z" fill="#fff"/>
        <path id="Path_2169" data-name="Path 2169" d="M234.667,74.667C128,74.667,36.907,141.013,0,234.667c36.907,93.653,128,160,234.667,160,106.773,0,197.76-66.347,234.667-160C432.427,141.013,341.44,74.667,234.667,74.667Zm0,266.666A106.667,106.667,0,1,1,341.334,234.667,106.706,106.706,0,0,1,234.667,341.333Z" fill="#fff"/>
      </g>
    </g>
  </g>
</svg>
