<?xml version="1.0" encoding="utf-8"?>
<!-- Generator: Adobe Illustrator 24.1.1, SVG Export Plug-In . SVG Version: 6.00 Build 0)  -->
<svg version="1.1" id="Layer_1" xmlns="http://www.w3.org/2000/svg" xmlns:xlink="http://www.w3.org/1999/xlink" x="0px" y="0px"
	 viewBox="0 0 557 557" style="enable-background:new 0 0 557 557;" xml:space="preserve">
<style type="text/css">
	.st0{fill:#FF9800;}
	.st1{fill:none;stroke:#FFFFFF;stroke-width:10;stroke-linecap:round;stroke-miterlimit:10;stroke-dasharray:40.9147,40.9147;}
	.st2{fill:none;stroke:#EFEFEF;stroke-width:30;stroke-miterlimit:10;}
	.st3{fill:#EFEFEF;}
</style>
<circle class="st0" cx="278.5" cy="278.5" r="278.5"/>
<g>
	<circle class="st1" cx="278.5" cy="278.5" r="247.4"/>
</g>
<g>
	<g>
		<path class="st2" d="M278.5,108c-81.5,0-147.6,66.1-147.6,147.6c0,42.7,18.1,81.1,47.1,108l36.7-36.7
			c-19.6-17.5-31.9-43-31.9-71.4c0-52.9,42.9-95.8,95.8-95.8s95.8,42.9,95.8,95.8s-42.9,95.8-95.8,95.8c-4.9,0-9.7-0.4-14.4-1.1
			v52.2c4.7,0.5,9.5,0.7,14.4,0.7c81.5,0,147.6-66.1,147.6-147.6S360,108,278.5,108z"/>
		<g>
			<path class="st3" d="M154.6,428.1c-0.7,0.7-0.9,1.9-0.5,2.8c0.4,0.9,1.4,1.5,2.5,1.4l31-3.1l-10.9,29.5c-0.3,0.9-0.1,1.9,0.6,2.6
				c0.2,0.2,0.5,0.4,0.8,0.5l17.5,7c0.6,0.2,1.3,0.2,1.9,0c0.6-0.3,1.1-0.8,1.3-1.4l10.9-29.6l21.7,21.7c0.7,0.7,1.8,0.9,2.7,0.5
				c0.9-0.4,1.5-1.3,1.5-2.3v-27.6c-22.1-2.1-42-11.6-57.4-25.9L154.6,428.1z"/>
			<path class="st3" d="M202.7,379.9l-24.4,24.4c15.4,14.3,35.3,23.7,57.4,25.9v-34.8C223.1,393.6,211.8,388,202.7,379.9z"/>
			<path class="st3" d="M235.7,369.8c-5.6-1.4-10.8-4.1-15.1-7.7l-17.9,17.9c9,8.1,20.4,13.7,33,15.5V369.8z"/>
			<path class="st3" d="M234.2,350.6c-0.9-0.4-2-0.2-2.7,0.5l-10.9,10.9c4.3,3.6,9.5,6.3,15.1,7.7v-16.9
				C235.7,351.9,235.1,351,234.2,350.6z"/>
		</g>
	</g>
	<circle class="st3" cx="278.5" cy="255.6" r="45.9"/>
</g>
</svg>
