<?xml version="1.0" encoding="utf-8"?>
<!-- Generator: Adobe Illustrator 24.1.2, SVG Export Plug-In . SVG Version: 6.00 Build 0)  -->
<svg version="1.1" id="Layer_1" xmlns="http://www.w3.org/2000/svg" xmlns:xlink="http://www.w3.org/1999/xlink" x="0px" y="0px"
	 viewBox="0 0 378 378" style="enable-background:new 0 0 378 378;" xml:space="preserve">
<style type="text/css">
	.st0{fill:none;stroke:#FFFFFF;stroke-width:30;stroke-miterlimit:10;}
	.st1{fill:#FFFFFF;}
</style>
<g>
	<g>
		<path class="st0" d="M189,37.3c-68.5,0-124.1,55.6-124.1,124.1c0,35.9,15.2,68.2,39.6,90.8l30.9-30.9
			c-16.5-14.7-26.8-36.2-26.8-60c0-44.5,36.1-80.5,80.5-80.5s80.5,36.1,80.5,80.5s-36.1,80.5-80.5,80.5c-4.1,0-8.2-0.3-12.1-0.9
			v43.9c4,0.4,8,0.6,12.1,0.6c68.5,0,124.1-55.6,124.1-124.1S257.5,37.3,189,37.3z"/>
		<g>
			<path class="st1" d="M84.8,306.4c-0.6,0.6-0.8,1.6-0.4,2.4s1.2,1.3,2.1,1.2l26.1-2.6l-9.2,24.8c-0.3,0.8-0.1,1.6,0.5,2.2
				c0.2,0.2,0.4,0.3,0.7,0.4l14.7,5.9c0.5,0.2,1.1,0.2,1.6,0c0.5-0.3,0.9-0.7,1.1-1.2l9.2-24.9l18.2,18.2c0.6,0.6,1.5,0.8,2.3,0.4
				c0.8-0.3,1.3-1.1,1.3-1.9v-23.2c-18.6-1.8-35.3-9.8-48.3-21.8L84.8,306.4z"/>
			<path class="st1" d="M125.2,265.9l-20.5,20.5c12.9,12,29.7,19.9,48.3,21.8v-29.3C142.4,277.4,132.9,272.7,125.2,265.9z"/>
			<path class="st1" d="M153,257.4c-4.7-1.2-9.1-3.4-12.7-6.5l-15,15c7.6,6.8,17.2,11.5,27.7,13V257.4z"/>
			<path class="st1" d="M151.7,241.2c-0.8-0.3-1.7-0.2-2.3,0.4l-9.2,9.2c3.6,3,8,5.3,12.7,6.5v-14.2
				C153,242.3,152.5,241.6,151.7,241.2z"/>
		</g>
	</g>
	<circle class="st1" cx="189" cy="161.4" r="38.6"/>
</g>
</svg>
