<?xml version="1.0" encoding="utf-8"?>
<!-- Generator: Adobe Illustrator 24.1.1, SVG Export Plug-In . SVG Version: 6.00 Build 0)  -->
<svg version="1.1" id="Layer_1" xmlns="http://www.w3.org/2000/svg" xmlns:xlink="http://www.w3.org/1999/xlink" x="0px" y="0px"
	 viewBox="0 0 557 557" style="enable-background:new 0 0 557 557;" xml:space="preserve">
<style type="text/css">
	.st0{fill:#46BD9B;}
	.st1{fill:none;stroke:#FFFFFF;stroke-width:10;stroke-linecap:round;stroke-miterlimit:10;stroke-dasharray:40.9147,40.9147;}
	.st2{fill:none;}
	.st3{fill:#FFFFFF;}
</style>
<circle class="st0" cx="278.5" cy="278.5" r="278.5"/>
<g>
	<circle class="st1" cx="278.5" cy="278.5" r="247.4"/>
</g>
<g>
	<rect x="151.4" y="156.7" class="st2" width="254.2" height="158.9"/>
	<path class="st3" d="M437.4,320.9V146.1c0-11.7-9.5-21.2-21.2-21.2H140.8c-11.7,0-21.2,9.5-21.2,21.2v174.8v26.5
		c0,6.3,2.7,11.9,7.1,15.7v-36.9v-2.7h303v2.7v37.6c4.7-3.9,7.8-9.8,7.8-16.4L437.4,320.9C437.4,320.9,437.4,320.9,437.4,320.9z
		 M151.4,315.6V156.7h254.2v158.9H151.4z"/>
	<path class="st3" d="M246.7,363.7H127.4c3.7,3,8.3,4.8,13.4,4.8h105.8c-1.2,21.1-10.1,31.8-26.3,31.8h-10.6
		c-8.8,0-15.9,7.1-15.9,15.9c0,8.8,7.1,15.9,15.9,15.9h137.7c8.8,0,15.9-7.1,15.9-15.9c0-8.8-7.1-15.9-15.9-15.9h-10.6
		c-16.3,0-25.1-10.7-26.3-31.8h105.8c5.1,0,9.8-1.8,13.4-4.8H310.3H246.7z"/>
	<polygon class="st3" points="429.6,323.4 126.7,323.4 126.7,326.2 126.7,363.1 126.7,363.7 127.4,363.7 246.7,363.7 310.3,363.7 
		429.6,363.7 429.6,363.7 429.6,363.7 429.6,326.2 	"/>
</g>
</svg>
