<?xml version="1.0" encoding="utf-8"?>
<!-- Generator: Adobe Illustrator 24.1.1, SVG Export Plug-In . SVG Version: 6.00 Build 0)  -->
<svg version="1.1" id="Layer_1" xmlns="http://www.w3.org/2000/svg" xmlns:xlink="http://www.w3.org/1999/xlink" x="0px" y="0px"
	 viewBox="0 0 557 557" style="enable-background:new 0 0 557 557;" xml:space="preserve">
<style type="text/css">
	.st0{fill:#46BD9B;}
	.st1{fill:none;stroke:#FFFFFF;stroke-width:10;stroke-linecap:round;stroke-miterlimit:10;stroke-dasharray:40.9147,40.9147;}
	.st2{fill:#FFFFFF;}
</style>
<circle class="st0" cx="278.5" cy="278.5" r="278.5"/>
<g>
	<circle class="st1" cx="278.5" cy="278.5" r="247.4"/>
</g>
<g>
	<path class="st2" d="M320.8,334.8c0.7-4.6,1.1-9.3,1.1-14.1c0-4.7-0.4-9.4-1.1-14l23.3-18.3c5.5-4.3,7-12.1,3.5-18.1l-15-26
		c-3.5-6-11-8.6-17.5-6l-27.4,11.1c-7.5-6-15.6-10.7-24.2-14l-4.2-29.3c-1-6.9-7-12.1-13.9-12.1h-30c-7,0-13,5.2-13.9,12.1
		l-4.2,29.3c-8.6,3.3-16.8,8.1-24.1,14l-27.6-11.1c-6.5-2.6-14,0-17.5,6l-15,26c-3.5,6.1-2,13.9,3.5,18.1l23.3,18.1
		c-0.7,4.6-1.1,9.3-1.1,14.1c0,4.7,0.4,9.4,1.1,14L116.5,353c-5.5,4.3-7,12.1-3.5,18.1l15,26c3.5,6,11,8.6,17.5,6l27.4-11.1
		c7.5,6,15.6,10.7,24.2,14l4.2,29.3c1,6.9,7,12.1,14,12.1h30c7,0,13-5.2,13.9-12.1l4.2-29.3c8.6-3.3,16.8-8.1,24.1-14l27.6,11.1
		c6.5,2.6,14,0,17.5-6l15-26c3.5-6.1,2-13.9-3.5-18.1L320.8,334.8z M230.3,370.1c-27.2,0-49.3-22.1-49.3-49.3s22.1-49.3,49.3-49.3
		c27.2,0,49.3,22.1,49.3,49.3S257.5,370.1,230.3,370.1z"/>
	<path class="st2" d="M430.4,186.5c0.3-2.2,0.7-4.3,0.7-6.6c0-2.3-0.4-4.4-0.7-6.6l12.7-9.6c2.8-2.1,3.6-6.1,1.8-9.1l-11.4-19.7
		c-1.8-3.1-5.6-4.4-8.8-3l-14.6,6.2c-3.6-2.7-7.4-5.1-11.5-6.9l-1.9-15.5c-0.5-3.5-3.4-6.2-7-6.2h-22.8c-3.5,0-6.6,2.6-7,6.2
		l-1.9,15.5c-4.2,1.7-8,4.2-11.5,6.9l-14.6-6.2c-3.3-1.4-7.1-0.1-8.8,3l-11.4,19.7c-1.8,3.1-1,7,1.8,9.1l12.7,9.6
		c-0.3,2.2-0.7,4.3-0.7,6.6c0,2.3,0.4,4.4,0.7,6.6l-12.7,9.6c-2.8,2.1-3.6,6.1-1.8,9.1l11.4,19.7c1.8,3.1,5.6,4.4,8.8,3l14.6-6.2
		c3.6,2.7,7.4,5.1,11.5,6.9l1.9,15.5c0.5,3.5,3.4,6.2,7,6.2h22.8c3.6,0,6.6-2.6,7-6.2l1.9-15.5c4.2-1.7,8-4.2,11.5-6.9l14.6,6.2
		c3.3,1.4,7.1,0.1,8.8-3l11.4-19.7c1.8-3.1,1-7-1.8-9.1L430.4,186.5z M378.2,208.1c-15.6,0-28.2-12.6-28.2-28.2
		c0-15.6,12.6-28.2,28.2-28.2c15.6,0,28.2,12.6,28.2,28.2C406.4,195.5,393.8,208.1,378.2,208.1z"/>
</g>
</svg>
