<?xml version="1.0" encoding="utf-8"?>
<!-- Generator: Adobe Illustrator 24.1.1, SVG Export Plug-In . SVG Version: 6.00 Build 0)  -->
<svg version="1.1" id="Layer_1" xmlns="http://www.w3.org/2000/svg" xmlns:xlink="http://www.w3.org/1999/xlink" x="0px" y="0px"
	 viewBox="0 0 557 557" style="enable-background:new 0 0 557 557;" xml:space="preserve">
<style type="text/css">
	.st0{fill:#FF9800;}
	.st1{fill:none;stroke:#FFFFFF;stroke-width:10;stroke-linecap:round;stroke-miterlimit:10;stroke-dasharray:40.9147,40.9147;}
	.st2{fill:#FFFFFF;}
</style>
<circle class="st0" cx="278.5" cy="278.5" r="278.5"/>
<g>
	<circle class="st1" cx="278.5" cy="278.5" r="247.4"/>
</g>
<g>
	<g>
		<path class="st2" d="M278.5,119.7c-58.4,0-105.9,47.5-105.9,105.9c0,17.5,4.4,34.9,12.7,50.3l87.4,158c1.2,2.1,3.4,3.4,5.8,3.4
			c2.4,0,4.6-1.3,5.8-3.4l87.4-158c8.3-15.4,12.7-32.7,12.7-50.3C384.4,167.2,336.9,119.7,278.5,119.7z M278.5,278.5
			c-29.2,0-52.9-23.7-52.9-52.9s23.7-52.9,52.9-52.9s52.9,23.7,52.9,52.9S307.7,278.5,278.5,278.5z"/>
	</g>
</g>
</svg>
