<?xml version="1.0" encoding="utf-8"?>
<!-- Generator: Adobe Illustrator 24.1.1, SVG Export Plug-In . SVG Version: 6.00 Build 0)  -->
<svg version="1.1" id="Layer_1" xmlns="http://www.w3.org/2000/svg" xmlns:xlink="http://www.w3.org/1999/xlink" x="0px" y="0px"
	 viewBox="0 0 557 557" style="enable-background:new 0 0 557 557;" xml:space="preserve">
<style type="text/css">
	.st0{fill:#46BD9B;}
	.st1{fill:none;stroke:#FFFFFF;stroke-width:10;stroke-linecap:round;stroke-miterlimit:10;stroke-dasharray:40.9147,40.9147;}
	.st2{fill:#FFFFFF;}
	.st3{fill:none;stroke:#46BD9B;stroke-width:26;stroke-linecap:round;stroke-miterlimit:10;}
</style>
<circle class="st0" cx="278.5" cy="278.5" r="278.5"/>
<g>
	<circle class="st1" cx="278.5" cy="278.5" r="247.4"/>
</g>
<path class="st2" d="M359.7,115.2H197.3c-8.1,0-15.6,4.3-19.7,11.4L96.5,267.1c-4.1,7-4.1,15.7,0,22.7l81.2,140.6
	c4.1,7,11.6,11.4,19.7,11.4h162.3c8.1,0,15.6-4.3,19.7-11.4l81.2-140.6c4.1-7,4.1-15.7,0-22.7l-81.2-140.6
	C375.3,119.5,367.8,115.2,359.7,115.2z"/>
<g>
	<line class="st3" x1="209.1" y1="145.7" x2="133.2" y2="274.8"/>
	<line class="st3" x1="347.9" y1="145.7" x2="423.8" y2="274.8"/>
</g>
<line class="st3" x1="353.4" y1="409.8" x2="203.6" y2="409.8"/>
</svg>
