<?xml version="1.0" encoding="utf-8"?>
<!-- Generator: Adobe Illustrator 24.1.1, SVG Export Plug-In . SVG Version: 6.00 Build 0)  -->
<svg version="1.1" id="Layer_1" xmlns="http://www.w3.org/2000/svg" xmlns:xlink="http://www.w3.org/1999/xlink" x="0px" y="0px"
	 viewBox="0 0 557 557" style="enable-background:new 0 0 557 557;" xml:space="preserve">
<style type="text/css">
	.st0{fill:#6739B7;}
	.st1{fill:none;stroke:#FFFFFF;stroke-width:10;stroke-linecap:round;stroke-miterlimit:10;stroke-dasharray:40.9147,40.9147;}
	.st2{fill:#EFEFEF;}
</style>
<circle class="st0" cx="278.5" cy="278.5" r="278.5"/>
<g>
	<circle class="st1" cx="278.5" cy="278.5" r="247.4"/>
</g>
<g>
	<path id="Path_949" class="st2" d="M288.5,228.5c-27.6-5.5-54.4,12.4-59.9,40c-5.5,27.6,12.4,54.4,40,59.9
		c27.6,5.5,54.4-12.4,59.9-40c1.3-6.6,1.3-13.3,0-19.9l-29.9,29.9c-11.2,10.9-29.1,10.6-40-0.7c-10.6-11-10.6-28.4,0-39.3
		L288.5,228.5z"/>
	<path id="Path_950" class="st2" d="M425.1,212l-20.3,20.2c-2,2-4.3,3.7-6.8,5c22.7,66-12.3,137.9-78.3,160.6
		c-66,22.7-137.9-12.3-160.6-78.3s12.3-137.9,78.3-160.6c26.7-9.2,55.7-9.2,82.4,0c1.3-2.5,3-4.8,5-6.8l20.3-20.3
		c-80.9-36.8-176.4-1-213.1,80s-1,176.4,80,213.1s176.4,1,213.1-80C444.3,302.8,444.3,254.3,425.1,212z"/>
	<path id="Path_951" class="st2" d="M318.6,198.4l-1.7-20.4c-55.5-21.2-117.6,6.6-138.8,62.1c-21.2,55.5,6.6,117.6,62.1,138.8
		c55.5,21.2,117.6-6.6,138.8-62.1c9.4-24.7,9.4-52,0-76.7l-20.4-1.7l-15,15c13.9,36-4,76.3-40,90.2c-36,13.9-76.3-4-90.2-40
		c-13.9-36,4-76.3,40-90.2c16.2-6.2,34-6.2,50.2,0L318.6,198.4z"/>
	<path id="Path_952" class="st2" d="M335.4,173l2.7,32.5l-66.2,66.2c-3.9,3.5-4.2,9.4-0.7,13.3c3.5,3.9,9.4,4.2,13.3,0.7
		c0.3-0.2,0.5-0.5,0.7-0.7l66.2-66.2l32.5,2.7c0.3,0,0.5,0,0.8,0c2.5,0,4.9-1,6.7-2.8l40-40c3.7-3.7,3.6-9.7-0.1-13.4
		c-1.6-1.6-3.6-2.5-5.8-2.7l-29-2.4l-2.4-29c-0.5-5.2-5-9-10.2-8.6c-2.2,0.2-4.3,1.1-5.8,2.7l-40.1,40
		C336.2,167.5,335.2,170.3,335.4,173L335.4,173z"/>
</g>
</svg>
