<?xml version="1.0" encoding="utf-8"?>
<!-- Generator: Adobe Illustrator 24.1.1, SVG Export Plug-In . SVG Version: 6.00 Build 0)  -->
<svg version="1.1" id="Layer_1" xmlns="http://www.w3.org/2000/svg" xmlns:xlink="http://www.w3.org/1999/xlink" x="0px" y="0px"
	 viewBox="0 0 557 557" style="enable-background:new 0 0 557 557;" xml:space="preserve">
<style type="text/css">
	.st0{fill:#FF9800;}
	.st1{fill:none;stroke:#FFFFFF;stroke-width:10;stroke-linecap:round;stroke-miterlimit:10;stroke-dasharray:40.9147,40.9147;}
	.st2{fill:#FFFFFF;}
</style>
<circle class="st0" cx="278.5" cy="278.5" r="278.5"/>
<g>
	<circle class="st1" cx="278.5" cy="278.5" r="247.4"/>
</g>
<g>
	<g>
		<g>
			<path class="st2" d="M455,243.2h-11.8v-11.8c0-6.5-5.3-11.8-11.8-11.8h-11.8v-11.8c0-13-10.5-23.5-23.5-23.5H113.8
				c-13,0-23.5,10.5-23.5,23.5v141.2c0,13,10.5,23.5,23.5,23.5h282.4c13,0,23.5-10.5,23.5-23.5v-11.8h11.8c6.5,0,11.8-5.3,11.8-11.8
				v-11.8H455c6.5,0,11.8-5.3,11.8-11.8V255C466.8,248.5,461.5,243.2,455,243.2z M396.2,349.1H113.8V207.9h282.4V349.1z"/>
			<rect x="137.3" y="231.4" class="st2" width="23.5" height="94.1"/>
			<rect x="184.4" y="231.4" class="st2" width="23.5" height="94.1"/>
			<rect x="225.4" y="231.4" class="st2" width="23.5" height="94.1"/>
		</g>
	</g>
</g>
</svg>
